SplineFontDB: 3.2
FontName: Protomolecule
FullName: Protomolecule
FamilyName: Protomolecule Regular
Weight: Normal
Copyright: 2021 Brian J. Hall
Version: 06.2021
ItalicAngle: 0
UnderlinePosition: -139
UnderlineWidth: 51
Ascent: 800
Descent: 200
InvalidEm: 0
sfntRevision: 0x000633bd
LayerCount: 2
Layer: 0 0 "Back" 1
Layer: 1 0 "Fore" 0
XUID: [1021 452 1942903644 7376]
UniqueID: 12500951
StyleMap: 0x0040
FSType: 4
OS2Version: 3
OS2_WeightWidthSlopeOnly: 0
OS2_UseTypoMetrics: 0
CreationTime: 1322146147
ModificationTime: 1624930540
PfmFamily: 17
TTFWeight: 400
TTFWidth: 5
LineGap: 29
VLineGap: 0
Panose: 2 11 5 4 2 1 1 2 1 2
OS2TypoAscent: 712
OS2TypoAOffset: 0
OS2TypoDescent: -220
OS2TypoDOffset: 0
OS2TypoLinegap: 57
OS2WinAscent: 985
OS2WinAOffset: 0
OS2WinDescent: 226
OS2WinDOffset: 0
HheadAscent: 985
HheadAOffset: 0
HheadDescent: -226
HheadDOffset: 0
OS2SubXSize: 650
OS2SubYSize: 600
OS2SubXOff: 0
OS2SubYOff: 75
OS2SupXSize: 650
OS2SupYSize: 600
OS2SupXOff: 0
OS2SupYOff: 350
OS2StrikeYSize: 51
OS2StrikeYPos: 295
OS2CapHeight: 712
OS2XHeight: 492
OS2Vendor: 'FSI '
OS2CodePages: 2000009f.00000000
OS2UnicodeRanges: a00002bf.4000207b.00000008.00000000
Lookup: 1 0 0 "'aalt' Access All Alternates lookup 0" { "'aalt' Access All Alternates lookup 0 subtable"  } ['aalt' ('DFLT' <'dflt' > 'cyrl' <'dflt' > 'grek' <'dflt' > 'latn' <'AZE ' 'CAT ' 'CRT ' 'MOL ' 'ROM ' 'TRK ' 'dflt' > ) ]
Lookup: 3 0 0 "'aalt' Access All Alternates lookup 1" { "'aalt' Access All Alternates lookup 1 subtable"  } ['aalt' ('DFLT' <'dflt' > 'cyrl' <'dflt' > 'grek' <'dflt' > 'latn' <'AZE ' 'CAT ' 'CRT ' 'MOL ' 'ROM ' 'TRK ' 'dflt' > ) ]
Lookup: 1 0 0 "'locl' Localized Forms in Latin lookup 2" { "'locl' Localized Forms in Latin lookup 2 subtable"  } ['locl' ('latn' <'AZE ' > ) ]
Lookup: 1 0 0 "'locl' Localized Forms in Latin lookup 3" { "'locl' Localized Forms in Latin lookup 3 subtable"  } ['locl' ('latn' <'TRK ' > ) ]

StartChar: .notdef
Encoding: 65536 -1 0
Width: 562
Flags: MW
HStem: 0 51<141 421 141 472> 661 51<141 421 141 141>
VStem: 90 51<51 51 51 661> 421 51<51 661 661 661>
LayerCount: 2
Fore
SplineSet
90 0 m 1
 90 712 l 1
 472 712 l 1
 472 0 l 1
 90 0 l 1
141 51 m 1
 421 51 l 1
 421 661 l 1
 141 661 l 1
 141 51 l 1
EndSplineSet
Validated: 1
EndChar

StartChar: exclam
Encoding: 33 33 4
Width: 316
Flags: MW
HStem: 0 21G<130 216 130 130> 692 20G<132 215 215 215>
LayerCount: 2
Fore
SplineSet
215 712 m 1
 204 200 l 1
 142 200 l 1
 132 712 l 1
 215 712 l 1
216 0 m 1
 130 0 l 1
 130 84 l 1
 216 84 l 1
 216 0 l 1
EndSplineSet
Validated: 1
Substitution2: "'ss01' Style Set 1 in Latin lookup 80 subtable" exclam.ss01
Substitution2: "'ss01' Style Set 1 in Cyrillic lookup 79 subtable" exclam.ss01
Substitution2: "'ss01' Style Set 1 in Greek lookup 78 subtable" exclam.ss01
Substitution2: "'ss01' Style Set 1 lookup 77 subtable" exclam.ss01
Substitution2: "'salt' Stylistic Alternatives in Latin lookup 76 subtable" exclam.ss01
Substitution2: "'salt' Stylistic Alternatives in Cyrillic lookup 75 subtable" exclam.ss01
Substitution2: "'salt' Stylistic Alternatives in Greek lookup 74 subtable" exclam.ss01
Substitution2: "'salt' Stylistic Alternatives lookup 73 subtable" exclam.ss01
Substitution2: "'aalt' Access All Alternates lookup 0 subtable" exclam.ss01
EndChar

StartChar: quotedbl
Encoding: 34 34 5
Width: 423
Flags: MW
HStem: 542 21G<88 167 88 88 256 335 256 256> 692 20G<88 167 167 167 256 335 335 335>
VStem: 88 79<542 712> 256 79<542 712>
LayerCount: 2
Fore
SplineSet
335 542 m 1
 256 542 l 1
 256 712 l 1
 335 712 l 1
 335 542 l 1
167 542 m 1
 88 542 l 1
 88 712 l 1
 167 712 l 1
 167 542 l 1
EndSplineSet
Validated: 1
EndChar

StartChar: numbersign
Encoding: 35 35 6
Width: 653
Flags: MW
HStem: 0 21G<130 204 130 130 363 437 363 363> 227 64<77 166 77 177 250 399 77 239 483 572> 432 66<108 200 108 209 108 273 283 432 515 602> 693 20G<243 318 318 318 476 549 549 549>
LayerCount: 2
Fore
SplineSet
602 432 m 1
 506 432 l 1
 483 291 l 1
 572 291 l 1
 572 227 l 1
 473 227 l 1
 437 0 l 1
 363 0 l 1
 399 227 l 1
 239 227 l 1
 204 0 l 1
 130 0 l 1
 166 227 l 1
 77 227 l 1
 77 291 l 1
 177 291 l 1
 200 432 l 1
 108 432 l 1
 108 498 l 1
 209 498 l 1
 243 713 l 1
 318 713 l 1
 283 498 l 1
 442 498 l 1
 476 713 l 1
 549 713 l 1
 515 498 l 1
 602 498 l 1
 602 432 l 1
432 432 m 1
 273 432 l 1
 250 291 l 1
 409 291 l 1
 432 432 l 1
EndSplineSet
Validated: 1
EndChar

StartChar: dollar
Encoding: 36 36 7
Width: 596
Flags: MW
HStem: -114 21G<262 322 262 262> -4 67<266 322> 651 66<262 266 262 319> 786 20G<262 322 322 322>
VStem: 61 75<502.5 557 502.5 573.5> 266 53<63 320 63 328 63 328 399 651> 464 76<155.5 212.5>
LayerCount: 2
Fore
SplineSet
540 196 m 0
 540 80 454 5 322 -4 c 1
 322 -114 l 1
 262 -114 l 1
 262 -6 l 1
 168 -2 104 26 42 88 c 1
 94 140 l 1
 147 87 198 66 266 63 c 1
 266 328 l 1
 246 330 l 2
 192 335 144 360 116 384 c 0
 80 416 61 460 61 517 c 0
 61 630 137 707 262 717 c 1
 262 806 l 1
 322 806 l 1
 322 717 l 1
 399 713 453 689 508 640 c 1
 459 591 l 1
 421 625 380 647 319 651 c 1
 319 392 l 1
 350 387 l 2
 416 376 449 363 479 337 c 0
 518 304 540 255 540 196 c 0
464 194 m 0
 464 231 452 263 429 283 c 0
 396 312 361 314 319 320 c 1
 319 63 l 1
 409 69 464 117 464 194 c 0
266 399 m 1
 266 651 l 1
 183 644 136 594 136 520 c 0
 136 485 146 457 168 438 c 0
 196 415 232 404 266 399 c 1
EndSplineSet
Validated: 1
EndChar

StartChar: percent
Encoding: 37 37 8
Width: 833
Flags: MW
HStem: -7 50<606.5 661.5 606.5 673> 317 50<606.5 661.5> 345 50<172.5 227.5 172.5 239> 669 50<172.5 227.5> 692 20G<554 614 614 614>
VStem: 65 57<479 481 481 582> 277 58<481 582 582 584> 499 57<127 130 130 230> 711 58<130 230 230 232>
LayerCount: 2
Fore
SplineSet
277 481 m 2x00
 277 582 l 2
 277 636 255 669 200 669 c 0
 145 669 122 636 122 582 c 2
 122 481 l 2
 122 427 145 395 200 395 c 0
 255 395 277 427 277 481 c 2x00
335 479 m 2
 335 396 278 345 200 345 c 0
 122 345 65 396 65 479 c 2
 65 584 l 2
 65 667 122 719 200 719 c 0
 278 719 335 667 335 584 c 2
 335 479 l 2
711 130 m 2
 711 230 l 2
 711 284 689 317 634 317 c 0xb780
 579 317 556 284 556 230 c 2
 556 130 l 2
 556 75 579 43 634 43 c 0
 689 43 711 75 711 130 c 2
769 127 m 2
 769 45 712 -7 634 -7 c 0
 556 -7 499 45 499 127 c 2
 499 232 l 2
 499 315 556 367 634 367 c 0
 712 367 769 315 769 232 c 2
 769 127 l 2
614 712 m 1
 280 0 l 1
 220 0 l 1xcf80
 554 712 l 1
 614 712 l 1
EndSplineSet
Validated: 1
EndChar

StartChar: ampersand
Encoding: 38 38 9
Width: 739
Flags: MW
HStem: -6 67<257 327.5 257 359> 0 21G<576 671 576 576> 653 65<286.5 335>
VStem: 77 74<160.5 243.5 160.5 254.5> 154 75<553.5 594 553.5 611.5> 395 71<547.5 592> 556 72<349 349>
LayerCount: 2
Fore
SplineSet
671 0 m 1x00
 576 0 l 1xbe
 512 78 l 1
 483 51 416 -6 302 -6 c 0x7e
 164 -6 77 77 77 201 c 0
 77 308 153 362 231 414 c 1
 196 456 154 505 154 569 c 0
 154 654 220 718 311 718 c 0
 400 718 466 653 466 568 c 0
 466 511 432 472 387 441 c 2
 334 405 l 1
 516 186 l 1
 545 230 555 269 556 349 c 1
 628 349 l 1
 627 259 608 186 562 131 c 1
 671 0 l 1x00
469 130 m 1
 273 366 l 1
 212 324 151 284 151 203 c 0
 151 118 213 61 301 61 c 0x7e
 354 61 408 75 469 130 c 1
395 568 m 0
 395 616 359 653 311 653 c 0
 262 653 229 618 229 570 c 0
 229 537 246 510 293 453 c 1
 331 479 l 2
 364 502 395 527 395 568 c 0
EndSplineSet
Validated: 1
EndChar

StartChar: quotesingle
Encoding: 39 39 10
Width: 255
Flags: MW
HStem: 542 21G<88 167 88 88> 692 20G<88 167 167 167>
VStem: 88 79<542 712>
LayerCount: 2
Fore
SplineSet
167 542 m 1
 88 542 l 1
 88 712 l 1
 167 712 l 1
 167 542 l 1
EndSplineSet
Validated: 1
EndChar

StartChar: parenleft
Encoding: 40 40 11
Width: 298
Flags: MW
HStem: -94 21G<185 185> 786 20G<185 185>
VStem: 92 75<95 101 101 611>
LayerCount: 2
Fore
SplineSet
236 -43 m 1
 185 -94 l 1
 150 -59 130 -39 113 -8 c 0
 95 27 92 58 92 95 c 2
 92 617 l 2
 92 653 95 687 113 720 c 0
 130 751 151 772 185 806 c 1
 236 755 l 1
 209 730 193 714 181 690 c 0
 170 670 167 644 167 611 c 2
 167 101 l 2
 167 68 169 46 181 22 c 0
 193 -2 210 -18 236 -43 c 1
EndSplineSet
Validated: 1
EndChar

StartChar: parenright
Encoding: 41 41 12
Width: 298
Flags: MW
HStem: -94 21G<112 112> 786 20G<112 112>
VStem: 130 75<101 611 611 617>
LayerCount: 2
Fore
SplineSet
112 -94 m 1
 61 -43 l 1
 87 -18 104 -2 116 22 c 0
 128 46 130 68 130 101 c 2
 130 611 l 2
 130 644 127 670 116 690 c 0
 104 714 88 730 61 755 c 1
 112 806 l 1
 146 772 167 751 184 720 c 0
 202 687 205 653 205 617 c 2
 205 95 l 2
 205 58 202 27 184 -8 c 0
 167 -39 147 -59 112 -94 c 1
EndSplineSet
Validated: 1
EndChar

StartChar: asterisk
Encoding: 42 42 13
Width: 474
Flags: MW
HStem: 357 21G<208 266 208 208> 697 20G<208 266 266 266>
VStem: 208 58<357 357>
LayerCount: 2
Fore
SplineSet
407 472 m 1
 379 423 l 1
 262 494 l 1
 266 357 l 1
 208 357 l 1
 212 494 l 1
 96 423 l 1
 67 472 l 1
 187 537 l 1
 67 603 l 1
 96 651 l 1
 212 580 l 1
 208 717 l 1
 266 717 l 1
 262 580 l 1
 379 651 l 1
 407 603 l 1
 287 537 l 1
 407 472 l 1
EndSplineSet
Validated: 1
EndChar

StartChar: plus
Encoding: 43 43 14
Width: 522
Flags: MW
HStem: 58 21G<228 295 228 228> 234 67<52 228 52 228 295 470> 455 20G<228 295 295 295>
VStem: 228 67<58 234 58 234 301 475>
LayerCount: 2
Fore
SplineSet
470 234 m 1
 295 234 l 1
 295 58 l 1
 228 58 l 1
 228 234 l 1
 52 234 l 1
 52 301 l 1
 228 301 l 1
 228 475 l 1
 295 475 l 1
 295 301 l 1
 470 301 l 1
 470 234 l 1
EndSplineSet
Validated: 1
EndChar

StartChar: comma
Encoding: 44 44 15
Width: 264
Flags: MW
HStem: -144 21G<88 88> 68 20G<88 176 176 176>
VStem: 88 88<-65 -65 -65 88>
LayerCount: 2
Fore
SplineSet
176 -65 m 1
 88 -144 l 1
 88 88 l 1
 176 88 l 1
 176 -65 l 1
EndSplineSet
Validated: 1
EndChar

StartChar: hyphen
Encoding: 45 45 16
Width: 426
Flags: MW
HStem: 236 67<76 350 76 350>
LayerCount: 2
Fore
SplineSet
350 236 m 1
 76 236 l 1
 76 303 l 1
 350 303 l 1
 350 236 l 1
EndSplineSet
Validated: 1
Substitution2: "'case' Case-Sensitive Forms in Latin lookup 68 subtable" hyphen.case
Substitution2: "'case' Case-Sensitive Forms in Cyrillic lookup 67 subtable" hyphen.case
Substitution2: "'case' Case-Sensitive Forms in Greek lookup 66 subtable" hyphen.case
Substitution2: "'case' Case-Sensitive Forms lookup 65 subtable" hyphen.case
Substitution2: "'aalt' Access All Alternates lookup 0 subtable" hyphen.case
EndChar

StartChar: period
Encoding: 46 46 17
Width: 270
Flags: MW
HStem: 0 21G<88 182 88 88> 74 20G<88 182 182 182>
VStem: 88 94<0 94>
LayerCount: 2
Fore
SplineSet
182 0 m 1
 88 0 l 1
 88 94 l 1
 182 94 l 1
 182 0 l 1
EndSplineSet
Validated: 1
Substitution2: "'ss01' Style Set 1 in Latin lookup 80 subtable" period.ss01
Substitution2: "'ss01' Style Set 1 in Cyrillic lookup 79 subtable" period.ss01
Substitution2: "'ss01' Style Set 1 in Greek lookup 78 subtable" period.ss01
Substitution2: "'ss01' Style Set 1 lookup 77 subtable" period.ss01
Substitution2: "'salt' Stylistic Alternatives in Latin lookup 76 subtable" period.ss01
Substitution2: "'salt' Stylistic Alternatives in Cyrillic lookup 75 subtable" period.ss01
Substitution2: "'salt' Stylistic Alternatives in Greek lookup 74 subtable" period.ss01
Substitution2: "'salt' Stylistic Alternatives lookup 73 subtable" period.ss01
Substitution2: "'aalt' Access All Alternates lookup 0 subtable" period.ss01
EndChar

StartChar: slash
Encoding: 47 47 18
Width: 355
Flags: MW
HStem: -74 21G<0 71 0 0> 766 20G<285 356 356 356>
LayerCount: 2
Fore
SplineSet
356 786 m 1
 71 -74 l 1
 0 -74 l 1
 285 786 l 1
 356 786 l 1
EndSplineSet
Validated: 1
Substitution2: "Single Substitution lookup 85 subtable" fraction
Substitution2: "'numr' Numerators in Latin lookup 23 subtable" fraction
Substitution2: "'numr' Numerators in Cyrillic lookup 22 subtable" fraction
Substitution2: "'numr' Numerators in Greek lookup 21 subtable" fraction
Substitution2: "'numr' Numerators lookup 20 subtable" fraction
Substitution2: "'aalt' Access All Alternates lookup 0 subtable" fraction
EndChar

StartChar: zero
Encoding: 48 48 19
Width: 522
Flags: MW
HStem: -6 64<221.5 300.5 221.5 316.5> 654 64<221.5 300.5>
VStem: 66 72<190 194 194 518> 384 72<194 518 518 522>
LayerCount: 2
Fore
SplineSet
456 190 m 2
 456 72 372 -6 261 -6 c 0
 149 -6 66 72 66 190 c 2
 66 522 l 2
 66 640 149 718 261 718 c 0
 372 718 456 640 456 522 c 2
 456 190 l 2
384 194 m 2
 384 518 l 2
 384 596 340 654 261 654 c 0
 182 654 138 596 138 518 c 2
 138 194 l 2
 138 116 182 58 261 58 c 0
 340 58 384 116 384 194 c 2
EndSplineSet
Validated: 1
Substitution2: "Single Substitution lookup 86 subtable" zero.dnom
Substitution2: "Single Substitution lookup 85 subtable" zero.numr
Substitution2: "'pnum' Proportional Numbers in Latin lookup 56 subtable" zero.lf
Substitution2: "'pnum' Proportional Numbers in Cyrillic lookup 55 subtable" zero.lf
Substitution2: "'pnum' Proportional Numbers in Greek lookup 54 subtable" zero.lf
Substitution2: "'pnum' Proportional Numbers lookup 53 subtable" zero.lf
Substitution2: "'onum' Oldstyle Figures in Latin lookup 48 subtable" zero.tosf
Substitution2: "'onum' Oldstyle Figures in Cyrillic lookup 47 subtable" zero.tosf
Substitution2: "'onum' Oldstyle Figures in Greek lookup 46 subtable" zero.tosf
Substitution2: "'onum' Oldstyle Figures lookup 45 subtable" zero.tosf
Substitution2: "'dnom' Denominators in Latin lookup 27 subtable" zero.dnom
Substitution2: "'dnom' Denominators in Cyrillic lookup 26 subtable" zero.dnom
Substitution2: "'dnom' Denominators in Greek lookup 25 subtable" zero.dnom
Substitution2: "'dnom' Denominators lookup 24 subtable" zero.dnom
Substitution2: "'numr' Numerators in Latin lookup 23 subtable" zero.numr
Substitution2: "'numr' Numerators in Cyrillic lookup 22 subtable" zero.numr
Substitution2: "'numr' Numerators in Greek lookup 21 subtable" zero.numr
Substitution2: "'numr' Numerators lookup 20 subtable" zero.numr
Substitution2: "'sups' Superscript in Latin lookup 19 subtable" uni2070
Substitution2: "'sups' Superscript in Cyrillic lookup 18 subtable" uni2070
Substitution2: "'sups' Superscript in Greek lookup 17 subtable" uni2070
Substitution2: "'sups' Superscript lookup 16 subtable" uni2070
Substitution2: "'sinf' Scientific Inferiors in Latin lookup 15 subtable" uni2080
Substitution2: "'sinf' Scientific Inferiors in Cyrillic lookup 14 subtable" uni2080
Substitution2: "'sinf' Scientific Inferiors in Greek lookup 13 subtable" uni2080
Substitution2: "'sinf' Scientific Inferiors lookup 12 subtable" uni2080
Substitution2: "'subs' Subscript in Latin lookup 11 subtable" uni2080
Substitution2: "'subs' Subscript in Cyrillic lookup 10 subtable" uni2080
Substitution2: "'subs' Subscript in Greek lookup 9 subtable" uni2080
Substitution2: "'subs' Subscript lookup 8 subtable" uni2080
AlternateSubs2: "'aalt' Access All Alternates lookup 1 subtable" uni2080 uni2070 zero.numr zero.dnom zero.tosf zero.lf
EndChar

StartChar: one
Encoding: 49 49 20
Width: 522
Flags: MW
HStem: 0 21G<258 330 258 258> 692 20G<258 330 330 330>
VStem: 258 72<0 632 632 632>
LayerCount: 2
Fore
SplineSet
330 0 m 1
 258 0 l 1
 258 632 l 1
 125 515 l 1
 125 597 l 1
 258 712 l 1
 330 712 l 1
 330 0 l 1
EndSplineSet
Validated: 1
Substitution2: "Single Substitution lookup 86 subtable" one.dnom
Substitution2: "Single Substitution lookup 85 subtable" one.numr
Substitution2: "'pnum' Proportional Numbers in Latin lookup 56 subtable" one.lf
Substitution2: "'pnum' Proportional Numbers in Cyrillic lookup 55 subtable" one.lf
Substitution2: "'pnum' Proportional Numbers in Greek lookup 54 subtable" one.lf
Substitution2: "'pnum' Proportional Numbers lookup 53 subtable" one.lf
Substitution2: "'onum' Oldstyle Figures in Latin lookup 48 subtable" one.tosf
Substitution2: "'onum' Oldstyle Figures in Cyrillic lookup 47 subtable" one.tosf
Substitution2: "'onum' Oldstyle Figures in Greek lookup 46 subtable" one.tosf
Substitution2: "'onum' Oldstyle Figures lookup 45 subtable" one.tosf
Substitution2: "'dnom' Denominators in Latin lookup 27 subtable" one.dnom
Substitution2: "'dnom' Denominators in Cyrillic lookup 26 subtable" one.dnom
Substitution2: "'dnom' Denominators in Greek lookup 25 subtable" one.dnom
Substitution2: "'dnom' Denominators lookup 24 subtable" one.dnom
Substitution2: "'numr' Numerators in Latin lookup 23 subtable" one.numr
Substitution2: "'numr' Numerators in Cyrillic lookup 22 subtable" one.numr
Substitution2: "'numr' Numerators in Greek lookup 21 subtable" one.numr
Substitution2: "'numr' Numerators lookup 20 subtable" one.numr
Substitution2: "'sups' Superscript in Latin lookup 19 subtable" onesuperior
Substitution2: "'sups' Superscript in Cyrillic lookup 18 subtable" onesuperior
Substitution2: "'sups' Superscript in Greek lookup 17 subtable" onesuperior
Substitution2: "'sups' Superscript lookup 16 subtable" onesuperior
Substitution2: "'sinf' Scientific Inferiors in Latin lookup 15 subtable" uni2081
Substitution2: "'sinf' Scientific Inferiors in Cyrillic lookup 14 subtable" uni2081
Substitution2: "'sinf' Scientific Inferiors in Greek lookup 13 subtable" uni2081
Substitution2: "'sinf' Scientific Inferiors lookup 12 subtable" uni2081
Substitution2: "'subs' Subscript in Latin lookup 11 subtable" uni2081
Substitution2: "'subs' Subscript in Cyrillic lookup 10 subtable" uni2081
Substitution2: "'subs' Subscript in Greek lookup 9 subtable" uni2081
Substitution2: "'subs' Subscript lookup 8 subtable" uni2081
AlternateSubs2: "'aalt' Access All Alternates lookup 1 subtable" uni2081 onesuperior one.numr one.dnom one.tosf one.lf
EndChar

StartChar: two
Encoding: 50 50 21
Width: 522
Flags: MW
HStem: 0 64<155 461 68 68> 654 64<232 304>
VStem: 69 72<525 571 525 581> 389 72<506.5 564.5>
LayerCount: 2
Fore
SplineSet
461 0 m 1
 68 0 l 1
 68 64 l 1
 349 421 l 2
 376 456 389 487 389 526 c 0
 389 603 343 654 265 654 c 0
 199 654 141 617 141 525 c 1
 69 525 l 1
 69 637 146 718 265 718 c 0
 382 718 461 643 461 526 c 0
 461 469 443 432 404 382 c 2
 155 64 l 1
 461 64 l 1
 461 0 l 1
EndSplineSet
Validated: 1
Substitution2: "Single Substitution lookup 86 subtable" two.dnom
Substitution2: "Single Substitution lookup 85 subtable" two.numr
Substitution2: "'pnum' Proportional Numbers in Latin lookup 56 subtable" two.lf
Substitution2: "'pnum' Proportional Numbers in Cyrillic lookup 55 subtable" two.lf
Substitution2: "'pnum' Proportional Numbers in Greek lookup 54 subtable" two.lf
Substitution2: "'pnum' Proportional Numbers lookup 53 subtable" two.lf
Substitution2: "'onum' Oldstyle Figures in Latin lookup 48 subtable" two.tosf
Substitution2: "'onum' Oldstyle Figures in Cyrillic lookup 47 subtable" two.tosf
Substitution2: "'onum' Oldstyle Figures in Greek lookup 46 subtable" two.tosf
Substitution2: "'onum' Oldstyle Figures lookup 45 subtable" two.tosf
Substitution2: "'dnom' Denominators in Latin lookup 27 subtable" two.dnom
Substitution2: "'dnom' Denominators in Cyrillic lookup 26 subtable" two.dnom
Substitution2: "'dnom' Denominators in Greek lookup 25 subtable" two.dnom
Substitution2: "'dnom' Denominators lookup 24 subtable" two.dnom
Substitution2: "'numr' Numerators in Latin lookup 23 subtable" two.numr
Substitution2: "'numr' Numerators in Cyrillic lookup 22 subtable" two.numr
Substitution2: "'numr' Numerators in Greek lookup 21 subtable" two.numr
Substitution2: "'numr' Numerators lookup 20 subtable" two.numr
Substitution2: "'sups' Superscript in Latin lookup 19 subtable" twosuperior
Substitution2: "'sups' Superscript in Cyrillic lookup 18 subtable" twosuperior
Substitution2: "'sups' Superscript in Greek lookup 17 subtable" twosuperior
Substitution2: "'sups' Superscript lookup 16 subtable" twosuperior
Substitution2: "'sinf' Scientific Inferiors in Latin lookup 15 subtable" uni2082
Substitution2: "'sinf' Scientific Inferiors in Cyrillic lookup 14 subtable" uni2082
Substitution2: "'sinf' Scientific Inferiors in Greek lookup 13 subtable" uni2082
Substitution2: "'sinf' Scientific Inferiors lookup 12 subtable" uni2082
Substitution2: "'subs' Subscript in Latin lookup 11 subtable" uni2082
Substitution2: "'subs' Subscript in Cyrillic lookup 10 subtable" uni2082
Substitution2: "'subs' Subscript in Greek lookup 9 subtable" uni2082
Substitution2: "'subs' Subscript lookup 8 subtable" uni2082
AlternateSubs2: "'aalt' Access All Alternates lookup 1 subtable" uni2082 twosuperior two.numr two.dnom two.tosf two.lf
EndChar

StartChar: three
Encoding: 51 51 22
Width: 522
Flags: MW
HStem: -7 64<217 289.5 217 309> 333 63<233 248 233 248> 655 64<213.5 285.5>
VStem: 51 63 388 72<151.5 238>
LayerCount: 2
Fore
SplineSet
460 194 m 0
 460 63 367 -7 251 -7 c 0
 139 -7 48 52 42 181 c 1
 114 181 l 1
 120 92 183 57 251 57 c 0
 328 57 388 108 388 195 c 0
 388 281 345 333 248 333 c 2
 233 333 l 1
 233 396 l 1
 248 396 l 2
 335 396 375 445 375 525 c 0
 375 610 320 655 251 655 c 0
 176 655 130 609 123 536 c 1
 51 536 l 1
 59 651 143 719 251 719 c 0
 367 719 447 642 447 526 c 0
 447 451 415 397 351 368 c 1
 423 341 460 283 460 194 c 0
EndSplineSet
Validated: 1
Substitution2: "Single Substitution lookup 86 subtable" three.dnom
Substitution2: "Single Substitution lookup 85 subtable" three.numr
Substitution2: "'pnum' Proportional Numbers in Latin lookup 56 subtable" three.lf
Substitution2: "'pnum' Proportional Numbers in Cyrillic lookup 55 subtable" three.lf
Substitution2: "'pnum' Proportional Numbers in Greek lookup 54 subtable" three.lf
Substitution2: "'pnum' Proportional Numbers lookup 53 subtable" three.lf
Substitution2: "'onum' Oldstyle Figures in Latin lookup 48 subtable" three.tosf
Substitution2: "'onum' Oldstyle Figures in Cyrillic lookup 47 subtable" three.tosf
Substitution2: "'onum' Oldstyle Figures in Greek lookup 46 subtable" three.tosf
Substitution2: "'onum' Oldstyle Figures lookup 45 subtable" three.tosf
Substitution2: "'dnom' Denominators in Latin lookup 27 subtable" three.dnom
Substitution2: "'dnom' Denominators in Cyrillic lookup 26 subtable" three.dnom
Substitution2: "'dnom' Denominators in Greek lookup 25 subtable" three.dnom
Substitution2: "'dnom' Denominators lookup 24 subtable" three.dnom
Substitution2: "'numr' Numerators in Latin lookup 23 subtable" three.numr
Substitution2: "'numr' Numerators in Cyrillic lookup 22 subtable" three.numr
Substitution2: "'numr' Numerators in Greek lookup 21 subtable" three.numr
Substitution2: "'numr' Numerators lookup 20 subtable" three.numr
Substitution2: "'sups' Superscript in Latin lookup 19 subtable" threesuperior
Substitution2: "'sups' Superscript in Cyrillic lookup 18 subtable" threesuperior
Substitution2: "'sups' Superscript in Greek lookup 17 subtable" threesuperior
Substitution2: "'sups' Superscript lookup 16 subtable" threesuperior
Substitution2: "'sinf' Scientific Inferiors in Latin lookup 15 subtable" uni2083
Substitution2: "'sinf' Scientific Inferiors in Cyrillic lookup 14 subtable" uni2083
Substitution2: "'sinf' Scientific Inferiors in Greek lookup 13 subtable" uni2083
Substitution2: "'sinf' Scientific Inferiors lookup 12 subtable" uni2083
Substitution2: "'subs' Subscript in Latin lookup 11 subtable" uni2083
Substitution2: "'subs' Subscript in Cyrillic lookup 10 subtable" uni2083
Substitution2: "'subs' Subscript in Greek lookup 9 subtable" uni2083
Substitution2: "'subs' Subscript lookup 8 subtable" uni2083
AlternateSubs2: "'aalt' Access All Alternates lookup 1 subtable" uni2083 threesuperior three.numr three.dnom three.tosf three.lf
EndChar

StartChar: four
Encoding: 52 52 23
Width: 522
Flags: MW
HStem: 0 21G<324 395 324 324> 113 65<117 324 40 40 395 482> 692 20G<297 374 374 374>
VStem: 324 71<0 113 0 113 178 380>
LayerCount: 2
Fore
SplineSet
482 113 m 1
 395 113 l 1
 395 0 l 1
 324 0 l 1
 324 113 l 1
 40 113 l 1
 40 178 l 1
 297 712 l 1
 374 712 l 1
 117 178 l 1
 324 178 l 1
 324 380 l 1
 395 380 l 1
 395 178 l 1
 482 178 l 1
 482 113 l 1
EndSplineSet
Validated: 1
Substitution2: "Single Substitution lookup 86 subtable" four.dnom
Substitution2: "Single Substitution lookup 85 subtable" four.numr
Substitution2: "'pnum' Proportional Numbers in Latin lookup 56 subtable" four.lf
Substitution2: "'pnum' Proportional Numbers in Cyrillic lookup 55 subtable" four.lf
Substitution2: "'pnum' Proportional Numbers in Greek lookup 54 subtable" four.lf
Substitution2: "'pnum' Proportional Numbers lookup 53 subtable" four.lf
Substitution2: "'onum' Oldstyle Figures in Latin lookup 48 subtable" four.tosf
Substitution2: "'onum' Oldstyle Figures in Cyrillic lookup 47 subtable" four.tosf
Substitution2: "'onum' Oldstyle Figures in Greek lookup 46 subtable" four.tosf
Substitution2: "'onum' Oldstyle Figures lookup 45 subtable" four.tosf
Substitution2: "'dnom' Denominators in Latin lookup 27 subtable" four.dnom
Substitution2: "'dnom' Denominators in Cyrillic lookup 26 subtable" four.dnom
Substitution2: "'dnom' Denominators in Greek lookup 25 subtable" four.dnom
Substitution2: "'dnom' Denominators lookup 24 subtable" four.dnom
Substitution2: "'numr' Numerators in Latin lookup 23 subtable" four.numr
Substitution2: "'numr' Numerators in Cyrillic lookup 22 subtable" four.numr
Substitution2: "'numr' Numerators in Greek lookup 21 subtable" four.numr
Substitution2: "'numr' Numerators lookup 20 subtable" four.numr
Substitution2: "'sups' Superscript in Latin lookup 19 subtable" uni2074
Substitution2: "'sups' Superscript in Cyrillic lookup 18 subtable" uni2074
Substitution2: "'sups' Superscript in Greek lookup 17 subtable" uni2074
Substitution2: "'sups' Superscript lookup 16 subtable" uni2074
Substitution2: "'sinf' Scientific Inferiors in Latin lookup 15 subtable" uni2084
Substitution2: "'sinf' Scientific Inferiors in Cyrillic lookup 14 subtable" uni2084
Substitution2: "'sinf' Scientific Inferiors in Greek lookup 13 subtable" uni2084
Substitution2: "'sinf' Scientific Inferiors lookup 12 subtable" uni2084
Substitution2: "'subs' Subscript in Latin lookup 11 subtable" uni2084
Substitution2: "'subs' Subscript in Cyrillic lookup 10 subtable" uni2084
Substitution2: "'subs' Subscript in Greek lookup 9 subtable" uni2084
Substitution2: "'subs' Subscript lookup 8 subtable" uni2084
AlternateSubs2: "'aalt' Access All Alternates lookup 1 subtable" uni2084 uni2074 four.numr four.dnom four.tosf four.lf
EndChar

StartChar: five
Encoding: 53 53 24
Width: 522
Flags: MW
HStem: -7 64<232 280.5 225.5 294.5> 408 63<252 306.5 252 321.5> 648 64<152 447 152 152>
VStem: 87 65<422 648> 390 72<209.5 268.5 199.5 278.5>
LayerCount: 2
Fore
SplineSet
462 235 m 0
 462 164 456 97 405 46 c 0
 372 13 326 -7 263 -7 c 0
 201 -7 151 13 120 44 c 0
 89 76 74 117 70 168 c 1
 142 168 l 1
 151 97 188 57 263 57 c 0
 298 57 330 69 351 90 c 0
 388 127 390 184 390 235 c 0
 390 322 373 408 270 408 c 0
 208 408 166 380 152 338 c 1
 87 338 l 1
 87 712 l 1
 447 712 l 1
 447 648 l 1
 152 648 l 1
 152 422 l 1
 180 453 224 471 280 471 c 0
 333 471 375 454 403 426 c 0
 455 374 462 302 462 235 c 0
EndSplineSet
Validated: 1
Substitution2: "Single Substitution lookup 86 subtable" five.dnom
Substitution2: "Single Substitution lookup 85 subtable" five.numr
Substitution2: "'pnum' Proportional Numbers in Latin lookup 56 subtable" five.lf
Substitution2: "'pnum' Proportional Numbers in Cyrillic lookup 55 subtable" five.lf
Substitution2: "'pnum' Proportional Numbers in Greek lookup 54 subtable" five.lf
Substitution2: "'pnum' Proportional Numbers lookup 53 subtable" five.lf
Substitution2: "'onum' Oldstyle Figures in Latin lookup 48 subtable" five.tosf
Substitution2: "'onum' Oldstyle Figures in Cyrillic lookup 47 subtable" five.tosf
Substitution2: "'onum' Oldstyle Figures in Greek lookup 46 subtable" five.tosf
Substitution2: "'onum' Oldstyle Figures lookup 45 subtable" five.tosf
Substitution2: "'dnom' Denominators in Latin lookup 27 subtable" five.dnom
Substitution2: "'dnom' Denominators in Cyrillic lookup 26 subtable" five.dnom
Substitution2: "'dnom' Denominators in Greek lookup 25 subtable" five.dnom
Substitution2: "'dnom' Denominators lookup 24 subtable" five.dnom
Substitution2: "'numr' Numerators in Latin lookup 23 subtable" five.numr
Substitution2: "'numr' Numerators in Cyrillic lookup 22 subtable" five.numr
Substitution2: "'numr' Numerators in Greek lookup 21 subtable" five.numr
Substitution2: "'numr' Numerators lookup 20 subtable" five.numr
Substitution2: "'sups' Superscript in Latin lookup 19 subtable" uni2075
Substitution2: "'sups' Superscript in Cyrillic lookup 18 subtable" uni2075
Substitution2: "'sups' Superscript in Greek lookup 17 subtable" uni2075
Substitution2: "'sups' Superscript lookup 16 subtable" uni2075
Substitution2: "'sinf' Scientific Inferiors in Latin lookup 15 subtable" uni2085
Substitution2: "'sinf' Scientific Inferiors in Cyrillic lookup 14 subtable" uni2085
Substitution2: "'sinf' Scientific Inferiors in Greek lookup 13 subtable" uni2085
Substitution2: "'sinf' Scientific Inferiors lookup 12 subtable" uni2085
Substitution2: "'subs' Subscript in Latin lookup 11 subtable" uni2085
Substitution2: "'subs' Subscript in Cyrillic lookup 10 subtable" uni2085
Substitution2: "'subs' Subscript in Greek lookup 9 subtable" uni2085
Substitution2: "'subs' Subscript lookup 8 subtable" uni2085
AlternateSubs2: "'aalt' Access All Alternates lookup 1 subtable" uni2085 uni2075 five.numr five.dnom five.tosf five.lf
EndChar

StartChar: six
Encoding: 54 54 25
Width: 522
Flags: MW
HStem: -6 64<224 300 224 323.5> 346 61<261 303> 692 20G<285 359 359 359>
VStem: 65 72<158.5 224.5> 388 72<158.5 241.5>
LayerCount: 2
Fore
SplineSet
460 205 m 0
 460 84 384 -6 263 -6 c 0
 142 -6 65 76 65 199 c 0
 65 250 80 299 110 359 c 2
 285 712 l 1
 359 712 l 1
 200 392 l 1
 222 402 247 407 275 407 c 0
 386 407 460 322 460 205 c 0
388 202 m 0
 388 281 344 346 262 346 c 0
 186 346 137 290 137 202 c 0
 137 115 186 58 262 58 c 0
 338 58 388 115 388 202 c 0
EndSplineSet
Validated: 1
Substitution2: "Single Substitution lookup 86 subtable" six.dnom
Substitution2: "Single Substitution lookup 85 subtable" six.numr
Substitution2: "'pnum' Proportional Numbers in Latin lookup 56 subtable" six.lf
Substitution2: "'pnum' Proportional Numbers in Cyrillic lookup 55 subtable" six.lf
Substitution2: "'pnum' Proportional Numbers in Greek lookup 54 subtable" six.lf
Substitution2: "'pnum' Proportional Numbers lookup 53 subtable" six.lf
Substitution2: "'onum' Oldstyle Figures in Latin lookup 48 subtable" six.tosf
Substitution2: "'onum' Oldstyle Figures in Cyrillic lookup 47 subtable" six.tosf
Substitution2: "'onum' Oldstyle Figures in Greek lookup 46 subtable" six.tosf
Substitution2: "'onum' Oldstyle Figures lookup 45 subtable" six.tosf
Substitution2: "'dnom' Denominators in Latin lookup 27 subtable" six.dnom
Substitution2: "'dnom' Denominators in Cyrillic lookup 26 subtable" six.dnom
Substitution2: "'dnom' Denominators in Greek lookup 25 subtable" six.dnom
Substitution2: "'dnom' Denominators lookup 24 subtable" six.dnom
Substitution2: "'numr' Numerators in Latin lookup 23 subtable" six.numr
Substitution2: "'numr' Numerators in Cyrillic lookup 22 subtable" six.numr
Substitution2: "'numr' Numerators in Greek lookup 21 subtable" six.numr
Substitution2: "'numr' Numerators lookup 20 subtable" six.numr
Substitution2: "'sups' Superscript in Latin lookup 19 subtable" uni2076
Substitution2: "'sups' Superscript in Cyrillic lookup 18 subtable" uni2076
Substitution2: "'sups' Superscript in Greek lookup 17 subtable" uni2076
Substitution2: "'sups' Superscript lookup 16 subtable" uni2076
Substitution2: "'sinf' Scientific Inferiors in Latin lookup 15 subtable" uni2086
Substitution2: "'sinf' Scientific Inferiors in Cyrillic lookup 14 subtable" uni2086
Substitution2: "'sinf' Scientific Inferiors in Greek lookup 13 subtable" uni2086
Substitution2: "'sinf' Scientific Inferiors lookup 12 subtable" uni2086
Substitution2: "'subs' Subscript in Latin lookup 11 subtable" uni2086
Substitution2: "'subs' Subscript in Cyrillic lookup 10 subtable" uni2086
Substitution2: "'subs' Subscript in Greek lookup 9 subtable" uni2086
Substitution2: "'subs' Subscript lookup 8 subtable" uni2086
AlternateSubs2: "'aalt' Access All Alternates lookup 1 subtable" uni2086 uni2076 six.numr six.dnom six.tosf six.lf
EndChar

StartChar: seven
Encoding: 55 55 26
Width: 522
Flags: MW
HStem: 0 21G<148 224 148 148> 648 64<147 395 147 147 76 471>
VStem: 76 71<536 648 536 712 536 712>
LayerCount: 2
Fore
SplineSet
471 648 m 1
 224 0 l 1
 148 0 l 1
 395 648 l 1
 147 648 l 1
 147 536 l 1
 76 536 l 1
 76 712 l 1
 471 712 l 1
 471 648 l 1
EndSplineSet
Validated: 1
Substitution2: "Single Substitution lookup 86 subtable" seven.dnom
Substitution2: "Single Substitution lookup 85 subtable" seven.numr
Substitution2: "'pnum' Proportional Numbers in Latin lookup 56 subtable" seven.lf
Substitution2: "'pnum' Proportional Numbers in Cyrillic lookup 55 subtable" seven.lf
Substitution2: "'pnum' Proportional Numbers in Greek lookup 54 subtable" seven.lf
Substitution2: "'pnum' Proportional Numbers lookup 53 subtable" seven.lf
Substitution2: "'onum' Oldstyle Figures in Latin lookup 48 subtable" seven.tosf
Substitution2: "'onum' Oldstyle Figures in Cyrillic lookup 47 subtable" seven.tosf
Substitution2: "'onum' Oldstyle Figures in Greek lookup 46 subtable" seven.tosf
Substitution2: "'onum' Oldstyle Figures lookup 45 subtable" seven.tosf
Substitution2: "'dnom' Denominators in Latin lookup 27 subtable" seven.dnom
Substitution2: "'dnom' Denominators in Cyrillic lookup 26 subtable" seven.dnom
Substitution2: "'dnom' Denominators in Greek lookup 25 subtable" seven.dnom
Substitution2: "'dnom' Denominators lookup 24 subtable" seven.dnom
Substitution2: "'numr' Numerators in Latin lookup 23 subtable" seven.numr
Substitution2: "'numr' Numerators in Cyrillic lookup 22 subtable" seven.numr
Substitution2: "'numr' Numerators in Greek lookup 21 subtable" seven.numr
Substitution2: "'numr' Numerators lookup 20 subtable" seven.numr
Substitution2: "'sups' Superscript in Latin lookup 19 subtable" uni2077
Substitution2: "'sups' Superscript in Cyrillic lookup 18 subtable" uni2077
Substitution2: "'sups' Superscript in Greek lookup 17 subtable" uni2077
Substitution2: "'sups' Superscript lookup 16 subtable" uni2077
Substitution2: "'sinf' Scientific Inferiors in Latin lookup 15 subtable" uni2087
Substitution2: "'sinf' Scientific Inferiors in Cyrillic lookup 14 subtable" uni2087
Substitution2: "'sinf' Scientific Inferiors in Greek lookup 13 subtable" uni2087
Substitution2: "'sinf' Scientific Inferiors lookup 12 subtable" uni2087
Substitution2: "'subs' Subscript in Latin lookup 11 subtable" uni2087
Substitution2: "'subs' Subscript in Cyrillic lookup 10 subtable" uni2087
Substitution2: "'subs' Subscript in Greek lookup 9 subtable" uni2087
Substitution2: "'subs' Subscript lookup 8 subtable" uni2087
AlternateSubs2: "'aalt' Access All Alternates lookup 1 subtable" uni2087 uni2077 seven.numr seven.dnom seven.tosf seven.lf
EndChar

StartChar: eight
Encoding: 56 56 27
Width: 522
Flags: MW
HStem: -6 64<222 300 222 320> 336 63<224.5 297.5 224.5 300> 654 64<224.5 297.5>
VStem: 51 72<157.5 236.5 157.5 237.5> 399 72<157.5 236.5>
LayerCount: 2
Fore
SplineSet
471 196 m 0
 471 76 379 -6 261 -6 c 0
 143 -6 51 76 51 196 c 0
 51 279 98 335 158 369 c 1
 102 401 65 453 65 527 c 0
 65 638 148 718 261 718 c 0
 374 718 457 638 457 527 c 0
 457 453 421 401 365 369 c 1
 425 335 471 279 471 196 c 0
399 197 m 0
 399 276 339 336 261 336 c 0
 183 336 123 276 123 197 c 0
 123 118 183 58 261 58 c 0
 339 58 399 118 399 197 c 0
385 526 m 0
 385 600 334 654 261 654 c 0
 188 654 137 600 137 526 c 0
 137 451 188 399 261 399 c 0
 334 399 385 451 385 526 c 0
EndSplineSet
Validated: 1
Substitution2: "Single Substitution lookup 86 subtable" eight.dnom
Substitution2: "Single Substitution lookup 85 subtable" eight.numr
Substitution2: "'pnum' Proportional Numbers in Latin lookup 56 subtable" eight.lf
Substitution2: "'pnum' Proportional Numbers in Cyrillic lookup 55 subtable" eight.lf
Substitution2: "'pnum' Proportional Numbers in Greek lookup 54 subtable" eight.lf
Substitution2: "'pnum' Proportional Numbers lookup 53 subtable" eight.lf
Substitution2: "'onum' Oldstyle Figures in Latin lookup 48 subtable" eight.tosf
Substitution2: "'onum' Oldstyle Figures in Cyrillic lookup 47 subtable" eight.tosf
Substitution2: "'onum' Oldstyle Figures in Greek lookup 46 subtable" eight.tosf
Substitution2: "'onum' Oldstyle Figures lookup 45 subtable" eight.tosf
Substitution2: "'dnom' Denominators in Latin lookup 27 subtable" eight.dnom
Substitution2: "'dnom' Denominators in Cyrillic lookup 26 subtable" eight.dnom
Substitution2: "'dnom' Denominators in Greek lookup 25 subtable" eight.dnom
Substitution2: "'dnom' Denominators lookup 24 subtable" eight.dnom
Substitution2: "'numr' Numerators in Latin lookup 23 subtable" eight.numr
Substitution2: "'numr' Numerators in Cyrillic lookup 22 subtable" eight.numr
Substitution2: "'numr' Numerators in Greek lookup 21 subtable" eight.numr
Substitution2: "'numr' Numerators lookup 20 subtable" eight.numr
Substitution2: "'sups' Superscript in Latin lookup 19 subtable" uni2078
Substitution2: "'sups' Superscript in Cyrillic lookup 18 subtable" uni2078
Substitution2: "'sups' Superscript in Greek lookup 17 subtable" uni2078
Substitution2: "'sups' Superscript lookup 16 subtable" uni2078
Substitution2: "'sinf' Scientific Inferiors in Latin lookup 15 subtable" uni2088
Substitution2: "'sinf' Scientific Inferiors in Cyrillic lookup 14 subtable" uni2088
Substitution2: "'sinf' Scientific Inferiors in Greek lookup 13 subtable" uni2088
Substitution2: "'sinf' Scientific Inferiors lookup 12 subtable" uni2088
Substitution2: "'subs' Subscript in Latin lookup 11 subtable" uni2088
Substitution2: "'subs' Subscript in Cyrillic lookup 10 subtable" uni2088
Substitution2: "'subs' Subscript in Greek lookup 9 subtable" uni2088
Substitution2: "'subs' Subscript lookup 8 subtable" uni2088
AlternateSubs2: "'aalt' Access All Alternates lookup 1 subtable" uni2088 uni2078 eight.numr eight.dnom eight.tosf eight.lf
EndChar

StartChar: nine
Encoding: 57 57 28
Width: 522
Flags: MW
HStem: 0 21G<162 237 162 162> 305 61<218 260> 654 64<221 297>
VStem: 62 72<470.5 553.5 470.5 567.5> 385 72<487.5 553.5>
LayerCount: 2
Fore
SplineSet
457 513 m 0
 457 462 442 413 412 353 c 2
 237 0 l 1
 162 0 l 1
 322 320 l 1
 300 310 274 305 246 305 c 0
 135 305 62 390 62 507 c 0
 62 628 138 718 259 718 c 0
 380 718 457 636 457 513 c 0
385 510 m 0
 385 597 335 654 259 654 c 0
 183 654 134 597 134 510 c 0
 134 431 177 366 259 366 c 0
 335 366 385 422 385 510 c 0
EndSplineSet
Validated: 1
Substitution2: "Single Substitution lookup 86 subtable" nine.dnom
Substitution2: "Single Substitution lookup 85 subtable" nine.numr
Substitution2: "'pnum' Proportional Numbers in Latin lookup 56 subtable" nine.lf
Substitution2: "'pnum' Proportional Numbers in Cyrillic lookup 55 subtable" nine.lf
Substitution2: "'pnum' Proportional Numbers in Greek lookup 54 subtable" nine.lf
Substitution2: "'pnum' Proportional Numbers lookup 53 subtable" nine.lf
Substitution2: "'onum' Oldstyle Figures in Latin lookup 48 subtable" nine.tosf
Substitution2: "'onum' Oldstyle Figures in Cyrillic lookup 47 subtable" nine.tosf
Substitution2: "'onum' Oldstyle Figures in Greek lookup 46 subtable" nine.tosf
Substitution2: "'onum' Oldstyle Figures lookup 45 subtable" nine.tosf
Substitution2: "'dnom' Denominators in Latin lookup 27 subtable" nine.dnom
Substitution2: "'dnom' Denominators in Cyrillic lookup 26 subtable" nine.dnom
Substitution2: "'dnom' Denominators in Greek lookup 25 subtable" nine.dnom
Substitution2: "'dnom' Denominators lookup 24 subtable" nine.dnom
Substitution2: "'numr' Numerators in Latin lookup 23 subtable" nine.numr
Substitution2: "'numr' Numerators in Cyrillic lookup 22 subtable" nine.numr
Substitution2: "'numr' Numerators in Greek lookup 21 subtable" nine.numr
Substitution2: "'numr' Numerators lookup 20 subtable" nine.numr
Substitution2: "'sups' Superscript in Latin lookup 19 subtable" uni2079
Substitution2: "'sups' Superscript in Cyrillic lookup 18 subtable" uni2079
Substitution2: "'sups' Superscript in Greek lookup 17 subtable" uni2079
Substitution2: "'sups' Superscript lookup 16 subtable" uni2079
Substitution2: "'sinf' Scientific Inferiors in Latin lookup 15 subtable" uni2089
Substitution2: "'sinf' Scientific Inferiors in Cyrillic lookup 14 subtable" uni2089
Substitution2: "'sinf' Scientific Inferiors in Greek lookup 13 subtable" uni2089
Substitution2: "'sinf' Scientific Inferiors lookup 12 subtable" uni2089
Substitution2: "'subs' Subscript in Latin lookup 11 subtable" uni2089
Substitution2: "'subs' Subscript in Cyrillic lookup 10 subtable" uni2089
Substitution2: "'subs' Subscript in Greek lookup 9 subtable" uni2089
Substitution2: "'subs' Subscript lookup 8 subtable" uni2089
AlternateSubs2: "'aalt' Access All Alternates lookup 1 subtable" uni2089 uni2079 nine.numr nine.dnom nine.tosf nine.lf
EndChar

StartChar: colon
Encoding: 58 58 29
Width: 297
Flags: MW
HStem: 0 21G<115 209 115 115> 375 20G<115 209 209 209>
VStem: 115 94<0 94 301 395>
LayerCount: 2
Fore
SplineSet
209 301 m 1
 115 301 l 1
 115 395 l 1
 209 395 l 1
 209 301 l 1
209 0 m 1
 115 0 l 1
 115 94 l 1
 209 94 l 1
 209 0 l 1
EndSplineSet
Validated: 1
Substitution2: "'ss01' Style Set 1 in Latin lookup 80 subtable" colon.ss01
Substitution2: "'ss01' Style Set 1 in Cyrillic lookup 79 subtable" colon.ss01
Substitution2: "'ss01' Style Set 1 in Greek lookup 78 subtable" colon.ss01
Substitution2: "'ss01' Style Set 1 lookup 77 subtable" colon.ss01
Substitution2: "'salt' Stylistic Alternatives in Latin lookup 76 subtable" colon.ss01
Substitution2: "'salt' Stylistic Alternatives in Cyrillic lookup 75 subtable" colon.ss01
Substitution2: "'salt' Stylistic Alternatives in Greek lookup 74 subtable" colon.ss01
Substitution2: "'salt' Stylistic Alternatives lookup 73 subtable" colon.ss01
Substitution2: "'aalt' Access All Alternates lookup 0 subtable" colon.ss01
EndChar

StartChar: semicolon
Encoding: 59 59 30
Width: 297
Flags: MW
HStem: -144 21G<117 117> 375 20G<115 209 209 209>
VStem: 115 94<301 395>
LayerCount: 2
Fore
SplineSet
205 -65 m 1
 117 -144 l 1
 117 88 l 1
 205 88 l 1
 205 -65 l 1
209 301 m 1
 115 301 l 1
 115 395 l 1
 209 395 l 1
 209 301 l 1
EndSplineSet
Validated: 1
Substitution2: "'ss01' Style Set 1 in Latin lookup 80 subtable" semicolon.ss01
Substitution2: "'ss01' Style Set 1 in Cyrillic lookup 79 subtable" semicolon.ss01
Substitution2: "'ss01' Style Set 1 in Greek lookup 78 subtable" semicolon.ss01
Substitution2: "'ss01' Style Set 1 lookup 77 subtable" semicolon.ss01
Substitution2: "'salt' Stylistic Alternatives in Latin lookup 76 subtable" semicolon.ss01
Substitution2: "'salt' Stylistic Alternatives in Cyrillic lookup 75 subtable" semicolon.ss01
Substitution2: "'salt' Stylistic Alternatives in Greek lookup 74 subtable" semicolon.ss01
Substitution2: "'salt' Stylistic Alternatives lookup 73 subtable" semicolon.ss01
Substitution2: "'aalt' Access All Alternates lookup 0 subtable" semicolon.ss01
EndChar

StartChar: less
Encoding: 60 60 31
Width: 522
Flags: MW
HStem: 68 21G<426 426> 450 20G<426 426>
LayerCount: 2
Fore
SplineSet
426 68 m 1
 95 236 l 1
 95 302 l 1
 426 470 l 1
 426 393 l 1
 176 269 l 1
 426 145 l 1
 426 68 l 1
EndSplineSet
Validated: 1
EndChar

StartChar: equal
Encoding: 61 61 32
Width: 522
Flags: MW
HStem: 151 66<52 470 52 470> 320 67<52 470 52 470>
LayerCount: 2
Fore
SplineSet
470 320 m 1
 52 320 l 1
 52 387 l 1
 470 387 l 1
 470 320 l 1
470 151 m 1
 52 151 l 1
 52 217 l 1
 470 217 l 1
 470 151 l 1
EndSplineSet
Validated: 1
EndChar

StartChar: greater
Encoding: 62 62 33
Width: 522
Flags: MW
HStem: 68 21G<95 95> 450 20G<95 95>
LayerCount: 2
Fore
SplineSet
426 236 m 1
 95 68 l 1
 95 145 l 1
 345 269 l 1
 95 393 l 1
 95 470 l 1
 426 302 l 1
 426 236 l 1
EndSplineSet
Validated: 1
EndChar

StartChar: question
Encoding: 63 63 34
Width: 497
Flags: MW
HStem: 0 21G<227 313 227 227> 654 64<228.5 297.5>
VStem: 76 72<535 566.5 535 586> 234 72<200 239 200 240 200 259.5> 379 72<519 569.5>
LayerCount: 2
Fore
SplineSet
451 536 m 0
 451 489 432 453 406 415 c 2
 324 297 l 2
 312 279 306 255 306 239 c 2
 306 200 l 1
 234 200 l 1
 234 240 l 2
 234 279 244 304 265 334 c 2
 346 451 l 2
 365 479 379 502 379 536 c 0
 379 603 331 654 264 654 c 0
 193 654 148 598 148 535 c 1
 76 535 l 1
 76 637 156 718 264 718 c 0
 369 718 451 643 451 536 c 0
313 0 m 1
 227 0 l 1
 227 84 l 1
 313 84 l 1
 313 0 l 1
EndSplineSet
Validated: 1
Substitution2: "'ss01' Style Set 1 in Latin lookup 80 subtable" question.ss01
Substitution2: "'ss01' Style Set 1 in Cyrillic lookup 79 subtable" question.ss01
Substitution2: "'ss01' Style Set 1 in Greek lookup 78 subtable" question.ss01
Substitution2: "'ss01' Style Set 1 lookup 77 subtable" question.ss01
Substitution2: "'salt' Stylistic Alternatives in Latin lookup 76 subtable" question.ss01
Substitution2: "'salt' Stylistic Alternatives in Cyrillic lookup 75 subtable" question.ss01
Substitution2: "'salt' Stylistic Alternatives in Greek lookup 74 subtable" question.ss01
Substitution2: "'salt' Stylistic Alternatives lookup 73 subtable" question.ss01
Substitution2: "'aalt' Access All Alternates lookup 0 subtable" question.ss01
EndChar

StartChar: at
Encoding: 64 64 35
Width: 713
Flags: MW
HStem: -9 21G<150 150> -7 62<410 468.5> 0 21G<572 641 572 572> 421 62<408 466 408 502.5> 652 61<282 291 291 421>
VStem: 72 70<160 161 161 496 496 498> 258 71<192.5 282> 571 70<191.5 284.5 420 496>
LayerCount: 2
Fore
SplineSet
641 0 m 1x00
 572 0 l 1x5f
 572 55 l 1
 539 13 499 -7 438 -7 c 0x9f
 382 -7 333 15 302 54 c 0
 268 96 258 147 258 238 c 0
 258 326 268 380 299 421 c 0
 328 460 379 483 437 483 c 0
 495 483 537 462 571 420 c 1
 571 498 l 2
 571 551 561 582 532 612 c 0
 504 640 468 652 421 652 c 2
 291 652 l 2
 244 652 211 641 182 612 c 0
 152 582 142 553 142 498 c 2
 142 161 l 2
 142 98 153 74 199 40 c 1
 150 -9 l 1x3f
 89 36 72 71 72 160 c 2
 72 496 l 2
 72 564 90 618 128 657 c 0
 165 695 217 713 282 713 c 2
 430 713 l 2
 494 713 546 695 584 657 c 0
 623 618 641 564 641 496 c 2
 641 0 l 1x00
571 238 m 0
 571 331 555 421 450 421 c 0
 345 421 329 331 329 238 c 0
 329 145 345 55 450 55 c 0x3f
 555 55 571 145 571 238 c 0
EndSplineSet
Validated: 1
Substitution2: "'ss01' Style Set 1 in Latin lookup 80 subtable" at.ss01
Substitution2: "'ss01' Style Set 1 in Cyrillic lookup 79 subtable" at.ss01
Substitution2: "'ss01' Style Set 1 in Greek lookup 78 subtable" at.ss01
Substitution2: "'ss01' Style Set 1 lookup 77 subtable" at.ss01
Substitution2: "'salt' Stylistic Alternatives in Latin lookup 76 subtable" at.ss01
Substitution2: "'salt' Stylistic Alternatives in Cyrillic lookup 75 subtable" at.ss01
Substitution2: "'salt' Stylistic Alternatives in Greek lookup 74 subtable" at.ss01
Substitution2: "'salt' Stylistic Alternatives lookup 73 subtable" at.ss01
Substitution2: "'aalt' Access All Alternates lookup 0 subtable" at.ss01
EndChar

StartChar: A
Encoding: 65 65 36
Width: 611
Flags: MW
HStem: 0 21G<12 93 12 12 518 599 518 518> 161 66<173 439 173 461 150 439> 692 20G<274 338 338 338>
LayerCount: 2
Fore
SplineSet
599 0 m 1
 518 0 l 1
 461 161 l 1
 150 161 l 1
 93 0 l 1
 12 0 l 1
 274 712 l 1
 338 712 l 1
 599 0 l 1
439 227 m 1
 307 603 l 1
 173 227 l 1
 439 227 l 1
EndSplineSet
Validated: 1
Position2: "'cpsp' Capital Spacing in Latin lookup 3 subtable" dx=5 dy=0 dh=10 dv=0
Position2: "'cpsp' Capital Spacing in Cyrillic lookup 2 subtable" dx=5 dy=0 dh=10 dv=0
Position2: "'cpsp' Capital Spacing in Greek lookup 1 subtable" dx=5 dy=0 dh=10 dv=0
Position2: "'cpsp' Capital Spacing lookup 0 subtable" dx=5 dy=0 dh=10 dv=0
EndChar

StartChar: B
Encoding: 66 66 37
Width: 668
Flags: MW
HStem: 0 68<179 373 373 380> 329 68<179 365 365 373 179 365> 644 68<179 365 179 179>
VStem: 103 76<68 329 68 397 397 644> 516 76<159 239>
LayerCount: 2
Fore
SplineSet
592 197 m 0
 592 68 506 0 380 0 c 2
 103 0 l 1
 103 712 l 1
 371 712 l 2
 495 712 581 641 581 522 c 0
 581 447 536 388 476 366 c 1
 544 341 592 282 592 197 c 0
516 199 m 0
 516 279 461 329 373 329 c 2
 179 329 l 1
 179 68 l 1
 373 68 l 2
 461 68 516 119 516 199 c 0
505 521 m 0
 505 606 444 644 365 644 c 2
 179 644 l 1
 179 397 l 1
 365 397 l 2
 444 397 505 436 505 521 c 0
EndSplineSet
Validated: 1
Position2: "'cpsp' Capital Spacing in Latin lookup 3 subtable" dx=5 dy=0 dh=10 dv=0
Position2: "'cpsp' Capital Spacing in Cyrillic lookup 2 subtable" dx=5 dy=0 dh=10 dv=0
Position2: "'cpsp' Capital Spacing in Greek lookup 1 subtable" dx=5 dy=0 dh=10 dv=0
Position2: "'cpsp' Capital Spacing lookup 0 subtable" dx=5 dy=0 dh=10 dv=0
EndChar

StartChar: C
Encoding: 67 67 38
Width: 637
Flags: MW
HStem: -6 68<301 369.5 301 389> 650 68<301 369.5>
VStem: 76 76<283 429 283 437.5>
LayerCount: 2
Fore
SplineSet
572 206 m 1
 547 73 453 -6 325 -6 c 0
 251 -6 191 20 147 64 c 0
 80 131 76 193 76 356 c 0
 76 519 80 581 147 648 c 0
 191 692 251 718 325 718 c 0
 454 718 547 639 572 506 c 1
 494 506 l 1
 475 594 414 650 325 650 c 0
 277 650 235 633 202 600 c 0
 157 554 152 502 152 356 c 0
 152 210 157 158 202 112 c 0
 235 79 277 62 325 62 c 0
 414 62 477 118 496 206 c 1
 572 206 l 1
EndSplineSet
Validated: 1
Substitution2: "'ss01' Style Set 1 in Latin lookup 80 subtable" C.ss01
Substitution2: "'ss01' Style Set 1 in Cyrillic lookup 79 subtable" C.ss01
Substitution2: "'ss01' Style Set 1 in Greek lookup 78 subtable" C.ss01
Substitution2: "'ss01' Style Set 1 lookup 77 subtable" C.ss01
Substitution2: "'salt' Stylistic Alternatives in Latin lookup 76 subtable" C.ss01
Substitution2: "'salt' Stylistic Alternatives in Cyrillic lookup 75 subtable" C.ss01
Substitution2: "'salt' Stylistic Alternatives in Greek lookup 74 subtable" C.ss01
Substitution2: "'salt' Stylistic Alternatives lookup 73 subtable" C.ss01
Substitution2: "'aalt' Access All Alternates lookup 0 subtable" C.ss01
Position2: "'cpsp' Capital Spacing in Latin lookup 3 subtable" dx=5 dy=0 dh=10 dv=0
Position2: "'cpsp' Capital Spacing in Cyrillic lookup 2 subtable" dx=5 dy=0 dh=10 dv=0
Position2: "'cpsp' Capital Spacing in Greek lookup 1 subtable" dx=5 dy=0 dh=10 dv=0
Position2: "'cpsp' Capital Spacing lookup 0 subtable" dx=5 dy=0 dh=10 dv=0
EndChar

StartChar: D
Encoding: 68 68 39
Width: 673
Flags: MW
HStem: 0 68<179 334 334 347> 644 68<179 334 179 179>
VStem: 103 76<68 644 68 712 68 712> 521 76<306.5 405.5>
LayerCount: 2
Fore
SplineSet
597 356 m 0
 597 247 597 143 534 75 c 0
 486 23 427 0 347 0 c 2
 103 0 l 1
 103 712 l 1
 347 712 l 2
 427 712 486 689 534 637 c 0
 597 569 597 465 597 356 c 0
521 356 m 0
 521 455 520 543 474 592 c 0
 438 632 388 644 334 644 c 2
 179 644 l 1
 179 68 l 1
 334 68 l 2
 388 68 438 80 474 120 c 0
 520 169 521 257 521 356 c 0
EndSplineSet
Validated: 1
Position2: "'cpsp' Capital Spacing in Latin lookup 3 subtable" dx=5 dy=0 dh=10 dv=0
Position2: "'cpsp' Capital Spacing in Cyrillic lookup 2 subtable" dx=5 dy=0 dh=10 dv=0
Position2: "'cpsp' Capital Spacing in Greek lookup 1 subtable" dx=5 dy=0 dh=10 dv=0
Position2: "'cpsp' Capital Spacing lookup 0 subtable" dx=5 dy=0 dh=10 dv=0
EndChar

StartChar: E
Encoding: 69 69 40
Width: 600
Flags: MW
HStem: 0 68<179 545 179 545> 325 68<179 491 179 491> 644 68<179 545 179 179>
VStem: 103 76<68 325 393 644>
LayerCount: 2
Fore
SplineSet
545 0 m 1
 103 0 l 1
 103 712 l 1
 545 712 l 1
 545 644 l 1
 179 644 l 1
 179 393 l 1
 491 393 l 1
 491 325 l 1
 179 325 l 1
 179 68 l 1
 545 68 l 1
 545 0 l 1
EndSplineSet
Validated: 1
Position2: "'cpsp' Capital Spacing in Latin lookup 3 subtable" dx=5 dy=0 dh=10 dv=0
Position2: "'cpsp' Capital Spacing in Cyrillic lookup 2 subtable" dx=5 dy=0 dh=10 dv=0
Position2: "'cpsp' Capital Spacing in Greek lookup 1 subtable" dx=5 dy=0 dh=10 dv=0
Position2: "'cpsp' Capital Spacing lookup 0 subtable" dx=5 dy=0 dh=10 dv=0
EndChar

StartChar: F
Encoding: 70 70 41
Width: 580
Flags: MW
HStem: 0 21G<103 179 103 103> 314 68<179 491 179 491> 644 68<179 545 179 179>
VStem: 103 76<0 314 382 644>
LayerCount: 2
Fore
SplineSet
545 644 m 1
 179 644 l 1
 179 382 l 1
 491 382 l 1
 491 314 l 1
 179 314 l 1
 179 0 l 1
 103 0 l 1
 103 712 l 1
 545 712 l 1
 545 644 l 1
EndSplineSet
Validated: 1
Position2: "'cpsp' Capital Spacing in Latin lookup 3 subtable" dx=5 dy=0 dh=10 dv=0
Position2: "'cpsp' Capital Spacing in Cyrillic lookup 2 subtable" dx=5 dy=0 dh=10 dv=0
Position2: "'cpsp' Capital Spacing in Greek lookup 1 subtable" dx=5 dy=0 dh=10 dv=0
Position2: "'cpsp' Capital Spacing lookup 0 subtable" dx=5 dy=0 dh=10 dv=0
EndChar

StartChar: G
Encoding: 71 71 42
Width: 650
Flags: MW
HStem: -6 68<300.5 351 300.5 361.5> 307 65<325 500 325 576> 650 68<300.5 369.5>
VStem: 76 76<283 429 283 437.5> 500 76<252 259 259 307 307 307>
LayerCount: 2
Fore
SplineSet
576 259 m 2
 576 177 561 127 515 76 c 0
 465 21 398 -6 325 -6 c 0
 251 -6 191 20 147 64 c 0
 80 131 76 193 76 356 c 0
 76 519 80 581 147 648 c 0
 191 692 251 718 325 718 c 0
 459 718 554 628 574 505 c 1
 498 505 l 1
 478 596 414 650 325 650 c 0
 276 650 234 633 202 600 c 0
 157 554 152 502 152 356 c 0
 152 210 157 158 202 112 c 0
 234 79 276 62 325 62 c 0
 377 62 427 83 460 123 c 0
 489 159 500 198 500 252 c 2
 500 307 l 1
 325 307 l 1
 325 372 l 1
 576 372 l 1
 576 259 l 2
EndSplineSet
Validated: 1
Substitution2: "'ss01' Style Set 1 in Latin lookup 80 subtable" G.ss01
Substitution2: "'ss01' Style Set 1 in Cyrillic lookup 79 subtable" G.ss01
Substitution2: "'ss01' Style Set 1 in Greek lookup 78 subtable" G.ss01
Substitution2: "'ss01' Style Set 1 lookup 77 subtable" G.ss01
Substitution2: "'salt' Stylistic Alternatives in Latin lookup 76 subtable" G.ss01
Substitution2: "'salt' Stylistic Alternatives in Cyrillic lookup 75 subtable" G.ss01
Substitution2: "'salt' Stylistic Alternatives in Greek lookup 74 subtable" G.ss01
Substitution2: "'salt' Stylistic Alternatives lookup 73 subtable" G.ss01
Substitution2: "'aalt' Access All Alternates lookup 0 subtable" G.ss01
Position2: "'cpsp' Capital Spacing in Latin lookup 3 subtable" dx=5 dy=0 dh=10 dv=0
Position2: "'cpsp' Capital Spacing in Cyrillic lookup 2 subtable" dx=5 dy=0 dh=10 dv=0
Position2: "'cpsp' Capital Spacing in Greek lookup 1 subtable" dx=5 dy=0 dh=10 dv=0
Position2: "'cpsp' Capital Spacing lookup 0 subtable" dx=5 dy=0 dh=10 dv=0
EndChar

StartChar: H
Encoding: 72 72 43
Width: 696
Flags: MW
HStem: 0 21G<103 179 103 103 517 593 517 517> 325 68<179 517 179 517> 692 20G<103 179 179 179 517 593 593 593>
VStem: 103 76<0 325 0 393 393 712> 517 76<0 325 325 325 393 712>
LayerCount: 2
Fore
SplineSet
593 0 m 1
 517 0 l 1
 517 325 l 1
 179 325 l 1
 179 0 l 1
 103 0 l 1
 103 712 l 1
 179 712 l 1
 179 393 l 1
 517 393 l 1
 517 712 l 1
 593 712 l 1
 593 0 l 1
EndSplineSet
Validated: 1
Position2: "'cpsp' Capital Spacing in Latin lookup 3 subtable" dx=5 dy=0 dh=10 dv=0
Position2: "'cpsp' Capital Spacing in Cyrillic lookup 2 subtable" dx=5 dy=0 dh=10 dv=0
Position2: "'cpsp' Capital Spacing in Greek lookup 1 subtable" dx=5 dy=0 dh=10 dv=0
Position2: "'cpsp' Capital Spacing lookup 0 subtable" dx=5 dy=0 dh=10 dv=0
EndChar

StartChar: I
Encoding: 73 73 44
Width: 282
Flags: MW
HStem: 0 21G<103 179 103 103> 692 20G<103 179 179 179>
VStem: 103 76<0 712>
LayerCount: 2
Fore
SplineSet
179 0 m 1
 103 0 l 1
 103 712 l 1
 179 712 l 1
 179 0 l 1
EndSplineSet
Validated: 1
Position2: "'cpsp' Capital Spacing in Latin lookup 3 subtable" dx=5 dy=0 dh=10 dv=0
Position2: "'cpsp' Capital Spacing in Cyrillic lookup 2 subtable" dx=5 dy=0 dh=10 dv=0
Position2: "'cpsp' Capital Spacing in Greek lookup 1 subtable" dx=5 dy=0 dh=10 dv=0
Position2: "'cpsp' Capital Spacing lookup 0 subtable" dx=5 dy=0 dh=10 dv=0
EndChar

StartChar: J
Encoding: 74 74 45
Width: 501
Flags: MW
HStem: -6 68<156.5 232.5 156.5 251> 692 20G<332 408 408 408>
VStem: 332 76<226 712>
LayerCount: 2
Fore
SplineSet
408 216 m 2
 408 79 316 -6 186 -6 c 0
 118 -6 67 14 23 58 c 1
 74 109 l 1
 100 83 127 62 186 62 c 0
 279 62 332 121 332 226 c 2
 332 712 l 1
 408 712 l 1
 408 216 l 2
EndSplineSet
Validated: 1
Position2: "'cpsp' Capital Spacing in Latin lookup 3 subtable" dx=5 dy=0 dh=10 dv=0
Position2: "'cpsp' Capital Spacing in Cyrillic lookup 2 subtable" dx=5 dy=0 dh=10 dv=0
Position2: "'cpsp' Capital Spacing in Greek lookup 1 subtable" dx=5 dy=0 dh=10 dv=0
Position2: "'cpsp' Capital Spacing lookup 0 subtable" dx=5 dy=0 dh=10 dv=0
EndChar

StartChar: K
Encoding: 75 75 46
Width: 650
Flags: MW
HStem: 0 21G<103 179 103 103 546 636 546 546> 692 20G<103 179 179 179 511 604 604 604>
VStem: 103 76<0 199 303 712>
LayerCount: 2
Fore
SplineSet
636 0 m 1
 546 0 l 1
 329 379 l 1
 179 199 l 1
 179 0 l 1
 103 0 l 1
 103 712 l 1
 179 712 l 1
 179 303 l 1
 511 712 l 1
 604 712 l 1
 380 437 l 1
 636 0 l 1
EndSplineSet
Validated: 1
Position2: "'cpsp' Capital Spacing in Latin lookup 3 subtable" dx=5 dy=0 dh=10 dv=0
Position2: "'cpsp' Capital Spacing in Cyrillic lookup 2 subtable" dx=5 dy=0 dh=10 dv=0
Position2: "'cpsp' Capital Spacing in Greek lookup 1 subtable" dx=5 dy=0 dh=10 dv=0
Position2: "'cpsp' Capital Spacing lookup 0 subtable" dx=5 dy=0 dh=10 dv=0
EndChar

StartChar: L
Encoding: 76 76 47
Width: 573
Flags: MW
HStem: 0 68<179 543 179 543> 692 20G<103 179 179 179>
VStem: 103 76<68 712 68 712 68 712>
LayerCount: 2
Fore
SplineSet
543 0 m 1
 103 0 l 1
 103 712 l 1
 179 712 l 1
 179 68 l 1
 543 68 l 1
 543 0 l 1
EndSplineSet
Validated: 1
Position2: "'cpsp' Capital Spacing in Latin lookup 3 subtable" dx=5 dy=0 dh=10 dv=0
Position2: "'cpsp' Capital Spacing in Cyrillic lookup 2 subtable" dx=5 dy=0 dh=10 dv=0
Position2: "'cpsp' Capital Spacing in Greek lookup 1 subtable" dx=5 dy=0 dh=10 dv=0
Position2: "'cpsp' Capital Spacing lookup 0 subtable" dx=5 dy=0 dh=10 dv=0
EndChar

StartChar: M
Encoding: 77 77 48
Width: 816
Flags: MW
HStem: 0 21G<103 179 103 103 637 713 637 637> 692 20G<103 179 179 179 637 713 713 713>
VStem: 103 76<0 541 0 712> 637 76<0 541 541 541>
LayerCount: 2
Fore
SplineSet
713 0 m 1
 637 0 l 1
 637 541 l 1
 442 112 l 1
 377 112 l 1
 179 541 l 1
 179 0 l 1
 103 0 l 1
 103 712 l 1
 179 712 l 1
 411 207 l 1
 637 712 l 1
 713 712 l 1
 713 0 l 1
EndSplineSet
Validated: 1
Position2: "'cpsp' Capital Spacing in Latin lookup 3 subtable" dx=5 dy=0 dh=10 dv=0
Position2: "'cpsp' Capital Spacing in Cyrillic lookup 2 subtable" dx=5 dy=0 dh=10 dv=0
Position2: "'cpsp' Capital Spacing in Greek lookup 1 subtable" dx=5 dy=0 dh=10 dv=0
Position2: "'cpsp' Capital Spacing lookup 0 subtable" dx=5 dy=0 dh=10 dv=0
EndChar

StartChar: N
Encoding: 78 78 49
Width: 732
Flags: MW
HStem: 0 21G<103 179 103 103 557 629 557 557> 692 20G<103 175 175 175 553 629 629 629>
VStem: 103 76<0 571 0 712> 553 76<143 712>
LayerCount: 2
Fore
SplineSet
629 0 m 1
 557 0 l 1
 179 571 l 1
 179 0 l 1
 103 0 l 1
 103 712 l 1
 175 712 l 1
 553 143 l 1
 553 712 l 1
 629 712 l 1
 629 0 l 1
EndSplineSet
Validated: 1
Position2: "'cpsp' Capital Spacing in Latin lookup 3 subtable" dx=5 dy=0 dh=10 dv=0
Position2: "'cpsp' Capital Spacing in Cyrillic lookup 2 subtable" dx=5 dy=0 dh=10 dv=0
Position2: "'cpsp' Capital Spacing in Greek lookup 1 subtable" dx=5 dy=0 dh=10 dv=0
Position2: "'cpsp' Capital Spacing lookup 0 subtable" dx=5 dy=0 dh=10 dv=0
EndChar

StartChar: O
Encoding: 79 79 50
Width: 650
Flags: MW
HStem: -6 68<301 349 301 362> 650 68<301 349>
VStem: 76 76<283 429 283 437.5> 498 76<283 429>
LayerCount: 2
Fore
SplineSet
574 356 m 0
 574 193 569 131 502 64 c 0
 458 20 399 -6 325 -6 c 0
 251 -6 191 20 147 64 c 0
 80 131 76 193 76 356 c 0
 76 519 80 581 147 648 c 0
 191 692 251 718 325 718 c 0
 399 718 458 692 502 648 c 0
 569 581 574 519 574 356 c 0
498 356 m 0
 498 502 493 554 448 600 c 0
 415 633 373 650 325 650 c 0
 277 650 235 633 202 600 c 0
 157 554 152 502 152 356 c 0
 152 210 157 158 202 112 c 0
 235 79 277 62 325 62 c 0
 373 62 415 79 448 112 c 0
 493 158 498 210 498 356 c 0
EndSplineSet
Validated: 1
Position2: "'cpsp' Capital Spacing in Latin lookup 3 subtable" dx=5 dy=0 dh=10 dv=0
Position2: "'cpsp' Capital Spacing in Cyrillic lookup 2 subtable" dx=5 dy=0 dh=10 dv=0
Position2: "'cpsp' Capital Spacing in Greek lookup 1 subtable" dx=5 dy=0 dh=10 dv=0
Position2: "'cpsp' Capital Spacing lookup 0 subtable" dx=5 dy=0 dh=10 dv=0
EndChar

StartChar: P
Encoding: 80 80 51
Width: 630
Flags: MW
HStem: 0 21G<103 179 103 103> 293 68<179 362 362 368 179 362> 644 68<179 362 179 179>
VStem: 103 76<0 293 0 361 361 644> 512 76<456 550>
LayerCount: 2
Fore
SplineSet
588 503 m 0
 588 376 497 293 368 293 c 2
 179 293 l 1
 179 0 l 1
 103 0 l 1
 103 712 l 1
 368 712 l 2
 497 712 588 630 588 503 c 0
512 503 m 0
 512 597 451 644 362 644 c 2
 179 644 l 1
 179 361 l 1
 362 361 l 2
 451 361 512 409 512 503 c 0
EndSplineSet
Validated: 1
Position2: "'cpsp' Capital Spacing in Latin lookup 3 subtable" dx=5 dy=0 dh=10 dv=0
Position2: "'cpsp' Capital Spacing in Cyrillic lookup 2 subtable" dx=5 dy=0 dh=10 dv=0
Position2: "'cpsp' Capital Spacing in Greek lookup 1 subtable" dx=5 dy=0 dh=10 dv=0
Position2: "'cpsp' Capital Spacing lookup 0 subtable" dx=5 dy=0 dh=10 dv=0
EndChar

StartChar: Q
Encoding: 81 81 52
Width: 649
Flags: MW
HStem: -35 21G<557 557> -6 68<301 344 301 355.5> 650 68<301 349>
VStem: 76 76<283 429 283 437.5> 498 76<299.5 429>
LayerCount: 2
Fore
SplineSet
574 356 m 0
 574 212 571 149 525 89 c 1
 603 11 l 1
 557 -35 l 1
 478 43 l 1
 439 12 386 -6 325 -6 c 0
 251 -6 191 20 147 64 c 0
 80 131 76 193 76 356 c 0
 76 519 80 581 147 648 c 0
 191 692 251 718 325 718 c 0
 399 718 458 692 502 648 c 0
 569 581 574 519 574 356 c 0
498 356 m 0
 498 502 493 554 448 600 c 0
 416 633 373 650 325 650 c 0
 277 650 234 633 202 600 c 0
 157 554 152 502 152 356 c 0
 152 210 157 158 202 112 c 0
 234 79 277 62 325 62 c 0
 363 62 397 72 426 96 c 1
 336 186 l 1
 382 232 l 1
 468 145 l 1
 495 187 498 243 498 356 c 0
EndSplineSet
Validated: 1
Position2: "'cpsp' Capital Spacing in Latin lookup 3 subtable" dx=5 dy=0 dh=10 dv=0
Position2: "'cpsp' Capital Spacing in Cyrillic lookup 2 subtable" dx=5 dy=0 dh=10 dv=0
Position2: "'cpsp' Capital Spacing in Greek lookup 1 subtable" dx=5 dy=0 dh=10 dv=0
Position2: "'cpsp' Capital Spacing lookup 0 subtable" dx=5 dy=0 dh=10 dv=0
EndChar

StartChar: R
Encoding: 82 82 53
Width: 656
Flags: MW
HStem: 0 21G<103 179 103 103 512 601 512 512> 316 67<179 350 179 369> 644 68<179 369 179 179>
VStem: 103 76<0 316 0 383 383 644> 511 76<469.5 556.5>
LayerCount: 2
Fore
SplineSet
601 0 m 1
 512 0 l 1
 350 316 l 1
 179 316 l 1
 179 0 l 1
 103 0 l 1
 103 712 l 1
 376 712 l 2
 500 712 587 637 587 514 c 0
 587 410 524 342 432 323 c 1
 601 0 l 1
511 513 m 0
 511 600 452 644 369 644 c 2
 179 644 l 1
 179 383 l 1
 369 383 l 2
 452 383 511 426 511 513 c 0
EndSplineSet
Validated: 1
Position2: "'cpsp' Capital Spacing in Latin lookup 3 subtable" dx=5 dy=0 dh=10 dv=0
Position2: "'cpsp' Capital Spacing in Cyrillic lookup 2 subtable" dx=5 dy=0 dh=10 dv=0
Position2: "'cpsp' Capital Spacing in Greek lookup 1 subtable" dx=5 dy=0 dh=10 dv=0
Position2: "'cpsp' Capital Spacing lookup 0 subtable" dx=5 dy=0 dh=10 dv=0
EndChar

StartChar: S
Encoding: 83 83 54
Width: 588
Flags: MW
HStem: -6 68<248 340.5 248 360.5> 653 65<238 323>
VStem: 61 74<502.5 560 502.5 578.5> 457 75<152 213>
LayerCount: 2
Fore
SplineSet
532 196 m 0
 532 71 435 -6 286 -6 c 0
 180 -6 109 21 43 88 c 1
 94 139 l 1
 153 80 208 62 288 62 c 0
 393 62 457 110 457 194 c 0
 457 232 446 262 422 283 c 0
 400 303 380 310 329 318 c 2
 246 330 l 2
 190 339 148 356 116 384 c 0
 80 416 61 460 61 518 c 0
 61 639 148 718 289 718 c 0
 380 718 440 694 501 640 c 1
 452 591 l 1
 409 632 360 653 286 653 c 0
 190 653 135 600 135 520 c 0
 135 485 145 456 167 437 c 0
 189 418 223 406 260 400 c 2
 343 387 l 2
 409 377 440 365 472 336 c 0
 510 303 532 255 532 196 c 0
EndSplineSet
Validated: 1
Position2: "'cpsp' Capital Spacing in Latin lookup 3 subtable" dx=5 dy=0 dh=10 dv=0
Position2: "'cpsp' Capital Spacing in Cyrillic lookup 2 subtable" dx=5 dy=0 dh=10 dv=0
Position2: "'cpsp' Capital Spacing in Greek lookup 1 subtable" dx=5 dy=0 dh=10 dv=0
Position2: "'cpsp' Capital Spacing lookup 0 subtable" dx=5 dy=0 dh=10 dv=0
EndChar

StartChar: T
Encoding: 84 84 55
Width: 548
Flags: MW
HStem: 0 21G<236 312 236 236> 644 68<30 236 30 518 312 518 312 312>
VStem: 236 76<0 644 0 644>
LayerCount: 2
Fore
SplineSet
518 644 m 1
 312 644 l 1
 312 0 l 1
 236 0 l 1
 236 644 l 1
 30 644 l 1
 30 712 l 1
 518 712 l 1
 518 644 l 1
EndSplineSet
Validated: 1
Position2: "'cpsp' Capital Spacing in Latin lookup 3 subtable" dx=5 dy=0 dh=10 dv=0
Position2: "'cpsp' Capital Spacing in Cyrillic lookup 2 subtable" dx=5 dy=0 dh=10 dv=0
Position2: "'cpsp' Capital Spacing in Greek lookup 1 subtable" dx=5 dy=0 dh=10 dv=0
Position2: "'cpsp' Capital Spacing lookup 0 subtable" dx=5 dy=0 dh=10 dv=0
EndChar

StartChar: U
Encoding: 85 85 56
Width: 683
Flags: MW
HStem: -6 68<289 393 289 413> 692 20G<93 169 169 169 514 590 590 590>
VStem: 93 76<235 241 241 712> 514 76<241 712>
LayerCount: 2
Fore
SplineSet
590 235 m 2
 590 93 485 -6 341 -6 c 0
 197 -6 93 93 93 235 c 2
 93 712 l 1
 169 712 l 1
 169 241 l 2
 169 133 237 62 341 62 c 0
 445 62 514 133 514 241 c 2
 514 712 l 1
 590 712 l 1
 590 235 l 2
EndSplineSet
Validated: 1
Position2: "'cpsp' Capital Spacing in Latin lookup 3 subtable" dx=5 dy=0 dh=10 dv=0
Position2: "'cpsp' Capital Spacing in Cyrillic lookup 2 subtable" dx=5 dy=0 dh=10 dv=0
Position2: "'cpsp' Capital Spacing in Greek lookup 1 subtable" dx=5 dy=0 dh=10 dv=0
Position2: "'cpsp' Capital Spacing lookup 0 subtable" dx=5 dy=0 dh=10 dv=0
EndChar

StartChar: V
Encoding: 86 86 57
Width: 546
Flags: MW
HStem: 0 21G<242 304 242 242> 692 20G<8 88 88 88 458 538 538 538>
LayerCount: 2
Fore
SplineSet
538 712 m 1
 304 0 l 1
 242 0 l 1
 8 712 l 1
 88 712 l 1
 273 136 l 1
 458 712 l 1
 538 712 l 1
EndSplineSet
Validated: 1
Position2: "'cpsp' Capital Spacing in Latin lookup 3 subtable" dx=5 dy=0 dh=10 dv=0
Position2: "'cpsp' Capital Spacing in Cyrillic lookup 2 subtable" dx=5 dy=0 dh=10 dv=0
Position2: "'cpsp' Capital Spacing in Greek lookup 1 subtable" dx=5 dy=0 dh=10 dv=0
Position2: "'cpsp' Capital Spacing lookup 0 subtable" dx=5 dy=0 dh=10 dv=0
EndChar

StartChar: W
Encoding: 87 87 58
Width: 854
Flags: MW
HStem: 0 21G<198 269 198 198 585 656 585 585> 692 20G<16 97 97 97 393 461 461 461 757 838 838 838>
LayerCount: 2
Fore
SplineSet
838 712 m 1
 656 0 l 1
 585 0 l 1
 427 570 l 1
 269 0 l 1
 198 0 l 1
 16 712 l 1
 97 712 l 1
 236 138 l 1
 393 712 l 1
 461 712 l 1
 618 138 l 1
 757 712 l 1
 838 712 l 1
EndSplineSet
Validated: 1
Position2: "'cpsp' Capital Spacing in Latin lookup 3 subtable" dx=5 dy=0 dh=10 dv=0
Position2: "'cpsp' Capital Spacing in Cyrillic lookup 2 subtable" dx=5 dy=0 dh=10 dv=0
Position2: "'cpsp' Capital Spacing in Greek lookup 1 subtable" dx=5 dy=0 dh=10 dv=0
Position2: "'cpsp' Capital Spacing lookup 0 subtable" dx=5 dy=0 dh=10 dv=0
EndChar

StartChar: X
Encoding: 88 88 59
Width: 551
Flags: MW
HStem: 0 21G<15 101 15 15 448 536 448 448> 692 20G<29 117 117 117 433 521 521 521>
LayerCount: 2
Fore
SplineSet
536 0 m 1
 448 0 l 1
 275 299 l 1
 101 0 l 1
 15 0 l 1
 233 365 l 1
 29 712 l 1
 117 712 l 1
 275 431 l 1
 433 712 l 1
 521 712 l 1
 316 365 l 1
 536 0 l 1
EndSplineSet
Validated: 1
Position2: "'cpsp' Capital Spacing in Latin lookup 3 subtable" dx=5 dy=0 dh=10 dv=0
Position2: "'cpsp' Capital Spacing in Cyrillic lookup 2 subtable" dx=5 dy=0 dh=10 dv=0
Position2: "'cpsp' Capital Spacing in Greek lookup 1 subtable" dx=5 dy=0 dh=10 dv=0
Position2: "'cpsp' Capital Spacing lookup 0 subtable" dx=5 dy=0 dh=10 dv=0
EndChar

StartChar: Y
Encoding: 89 89 60
Width: 514
Flags: MW
HStem: 0 21G<220 296 220 220> 692 20G<8 90 90 90 424 506 506 506>
VStem: 220 76<0 294 0 294>
LayerCount: 2
Fore
SplineSet
506 712 m 1
 296 294 l 1
 296 0 l 1
 220 0 l 1
 220 294 l 1
 8 712 l 1
 90 712 l 1
 258 371 l 1
 424 712 l 1
 506 712 l 1
EndSplineSet
Validated: 1
Position2: "'cpsp' Capital Spacing in Latin lookup 3 subtable" dx=5 dy=0 dh=10 dv=0
Position2: "'cpsp' Capital Spacing in Cyrillic lookup 2 subtable" dx=5 dy=0 dh=10 dv=0
Position2: "'cpsp' Capital Spacing in Greek lookup 1 subtable" dx=5 dy=0 dh=10 dv=0
Position2: "'cpsp' Capital Spacing lookup 0 subtable" dx=5 dy=0 dh=10 dv=0
EndChar

StartChar: Z
Encoding: 90 90 61
Width: 556
Flags: MW
HStem: 0 68<140 499 140 499> 644 68<71 413 71 499>
LayerCount: 2
Fore
SplineSet
499 0 m 1
 57 0 l 1
 57 72 l 1
 413 644 l 1
 71 644 l 1
 71 712 l 1
 499 712 l 1
 499 648 l 1
 140 68 l 1
 499 68 l 1
 499 0 l 1
EndSplineSet
Validated: 1
Position2: "'cpsp' Capital Spacing in Latin lookup 3 subtable" dx=5 dy=0 dh=10 dv=0
Position2: "'cpsp' Capital Spacing in Cyrillic lookup 2 subtable" dx=5 dy=0 dh=10 dv=0
Position2: "'cpsp' Capital Spacing in Greek lookup 1 subtable" dx=5 dy=0 dh=10 dv=0
Position2: "'cpsp' Capital Spacing lookup 0 subtable" dx=5 dy=0 dh=10 dv=0
EndChar

StartChar: bracketleft
Encoding: 91 91 62
Width: 313
Flags: MW
HStem: -74 64<164 269 164 269> 722 64<164 269 164 164>
VStem: 92 72<-10 722 -10 786 -10 786>
LayerCount: 2
Fore
SplineSet
269 -74 m 1
 92 -74 l 1
 92 786 l 1
 269 786 l 1
 269 722 l 1
 164 722 l 1
 164 -10 l 1
 269 -10 l 1
 269 -74 l 1
EndSplineSet
Validated: 1
EndChar

StartChar: backslash
Encoding: 92 92 63
Width: 355
Flags: MW
HStem: -74 21G<284 355 284 284> 763 20G<0 71 71 71>
LayerCount: 2
Fore
SplineSet
355 -74 m 1
 284 -74 l 1
 0 783 l 1
 71 783 l 1
 355 -74 l 1
EndSplineSet
Validated: 1
EndChar

StartChar: bracketright
Encoding: 93 93 64
Width: 313
Flags: MW
HStem: -74 62<44 152 44 221 44 152> 724 62<44 152 44 221>
VStem: 152 69<-12 724 724 724>
LayerCount: 2
Fore
SplineSet
221 -74 m 1
 44 -74 l 1
 44 -12 l 1
 152 -12 l 1
 152 724 l 1
 44 724 l 1
 44 786 l 1
 221 786 l 1
 221 -74 l 1
EndSplineSet
Validated: 1
EndChar

StartChar: asciicircum
Encoding: 94 94 65
Width: 537
Flags: MW
HStem: 413 21G<72 146 72 72 391 465 391 391> 698 20G<236 302 302 302>
LayerCount: 2
Fore
SplineSet
465 413 m 1
 391 413 l 1
 269 641 l 1
 146 413 l 1
 72 413 l 1
 236 718 l 1
 302 718 l 1
 465 413 l 1
EndSplineSet
Validated: 1
EndChar

StartChar: underscore
Encoding: 95 95 66
Width: 537
Flags: MW
HStem: -165 51<0 537 0 537>
LayerCount: 2
Fore
SplineSet
537 -165 m 1
 0 -165 l 1
 0 -114 l 1
 537 -114 l 1
 537 -165 l 1
EndSplineSet
Validated: 1
EndChar

StartChar: grave
Encoding: 96 96 67
Width: 500
Flags: MW
HStem: 594 21G<233 299 233 233> 727 20G<125 211 211 211>
LayerCount: 2
Fore
SplineSet
299 594 m 1
 233 594 l 1
 125 747 l 1
 211 747 l 1
 299 594 l 1
EndSplineSet
Validated: 1
EndChar

StartChar: a
Encoding: 97 97 68
Width: 598
Flags: MW
HStem: 0 21G<30 110 30 30 488 568 488 488> 692 20G<264 334 334 334>
LayerCount: 2
Fore
SplineSet
568 0 m 5
 488 0 l 5
 300 604 l 5
 110 0 l 5
 30 0 l 5
 264 712 l 5
 334 712 l 5
 568 0 l 5
EndSplineSet
Validated: 1
Substitution2: "Single Substitution lookup 86 subtable" ordfeminine
Substitution2: "'aalt' Access All Alternates lookup 0 subtable" ordfeminine
EndChar

StartChar: b
Encoding: 98 98 69
Width: 668
Flags: HMW
HStem: 0 68<179 373 373 380> 329 68<179 365 365 373 179 365> 644 68<179 365 179 179>
VStem: 103 76<68 329 68 397 397 644> 516 76<159 239>
LayerCount: 2
Fore
SplineSet
103 68 m 1
 373 68 l 2
 435 68 516 119 516 199 c 0
 516 279 461 329 373 329 c 2
 103 329 l 1
 103 397 l 1
 365 397 l 2
 444 397 505 436 505 521 c 0
 505 606 444 644 365 644 c 2
 103 644 l 1
 103 712 l 1
 371 712 l 2
 495 712 581 641 581 522 c 0
 581 447 536 388 476 366 c 1
 544 341 592 282 592 197 c 0
 592 68 506 0 380 0 c 2
 103 0 l 1
 103 68 l 1
EndSplineSet
Validated: 1
EndChar

StartChar: c
Encoding: 99 99 70
Width: 637
Flags: MW
HStem: -6 68<301 369.5 301 389> 650 68<301 369.5>
VStem: 76 76<283 429 283 437.5>
LayerCount: 2
Fore
SplineSet
572 206 m 1
 547 73 453 -6 325 -6 c 0
 251 -6 191 20 147 64 c 0
 80 131 76 193 76 356 c 0
 76 519 80 581 147 648 c 0
 191 692 251 718 325 718 c 0
 454 718 547 639 572 506 c 1
 494 506 l 1
 475 594 414 650 325 650 c 0
 277 650 235 633 202 600 c 0
 157 554 152 502 152 356 c 0
 152 210 157 158 202 112 c 0
 235 79 277 62 325 62 c 0
 414 62 477 118 496 206 c 1
 572 206 l 1
EndSplineSet
Validated: 1
EndChar

StartChar: d
Encoding: 100 100 71
Width: 673
Flags: HMW
HStem: 0 68<179 334 334 347> 644 68<179 334 179 179>
VStem: 103 76<68 644 68 712 68 712> 521 76<306.5 405.5>
LayerCount: 2
Fore
SplineSet
103 68 m 1
 334 68 l 2
 388 68 438 80 474 120 c 0
 520 169 521 257 521 356 c 0
 521 455 520 543 474 592 c 0
 438 632 388 644 334 644 c 2
 103 644 l 1
 103 712 l 1
 347 712 l 2
 427 712 486 689 534 637 c 0
 597 569 597 465 597 356 c 0
 597 247 597 143 534 75 c 0
 486 23 427 -0 347 0 c 2
 103 0 l 1
 103 68 l 1
EndSplineSet
Validated: 1
EndChar

StartChar: e
Encoding: 101 101 72
Width: 600
Flags: HMW
HStem: 0 68<179 545 179 545> 325 68<179 491 179 491> 644 68<179 545 179 179>
VStem: 103 76<68 325 393 644>
LayerCount: 2
Fore
SplineSet
103 712 m 5
 545 712 l 5
 545 644 l 5
 103 644 l 5
 103 712 l 5
103 393 m 5
 491 393 l 5
 491 325 l 5
 103 325 l 5
 103 393 l 5
103 68 m 5
 545 68 l 5
 545 0 l 5
 103 0 l 5
 103 68 l 5
EndSplineSet
Validated: 1
EndChar

StartChar: f
Encoding: 102 102 73
Width: 580
Flags: HMW
HStem: 0 21G<103 179 103 103> 314 68<179 491 179 491> 644 68<179 545 179 179>
VStem: 103 76<0 314 382 644>
LayerCount: 2
Fore
SplineSet
103 382 m 5
 491 382 l 5
 491 314 l 5
 179 314 l 5
 179 0 l 5
 103 0 l 5
 103 382 l 5
103 712 m 5
 545 712 l 5
 545 644 l 5
 103 644 l 5
 103 712 l 5
EndSplineSet
Validated: 1
EndChar

StartChar: g
Encoding: 103 103 74
Width: 650
Flags: MW
HStem: -6 68<300.5 351 300.5 361.5> 307 65<325 500 325 576> 650 68<300.5 369.5>
VStem: 76 76<283 429 283 437.5> 500 76<252 259 259 307 307 307>
LayerCount: 2
Fore
SplineSet
576 259 m 2
 576 177 561 127 515 76 c 0
 465 21 398 -6 325 -6 c 0
 251 -6 191 20 147 64 c 0
 80 131 76 193 76 356 c 0
 76 519 80 581 147 648 c 0
 191 692 251 718 325 718 c 0
 459 718 554 628 574 505 c 1
 498 505 l 1
 478 596 414 650 325 650 c 0
 276 650 234 633 202 600 c 0
 157 554 152 502 152 356 c 0
 152 210 157 158 202 112 c 0
 234 79 276 62 325 62 c 0
 377 62 427 83 460 123 c 0
 489 159 500 198 500 252 c 2
 500 307 l 1
 325 307 l 1
 325 372 l 1
 576 372 l 1
 576 259 l 2
EndSplineSet
Validated: 1
EndChar

StartChar: h
Encoding: 104 104 75
Width: 696
Flags: HMW
HStem: 0 21G<103 179 103 103 517 593 517 517> 325 68<179 517 179 517> 692 20G<103 179 179 179 517 593 593 593>
VStem: 103 76<0 325 0 393 393 712> 517 76<0 325 325 325 393 712>
LayerCount: 2
Fore
SplineSet
179 0 m 5
 103 0 l 5
 103 712 l 5
 179 712 l 5
 179 0 l 5
517 712 m 5
 593 712 l 5
 593 0 l 5
 517 0 l 5
 517 712 l 5
EndSplineSet
Validated: 1
EndChar

StartChar: i
Encoding: 105 105 76
Width: 282
Flags: MW
HStem: 0 21G<103 179 103 103> 692 20G<103 179 179 179>
VStem: 103 76<0 712>
LayerCount: 2
Fore
SplineSet
179 0 m 1
 103 0 l 1
 103 712 l 1
 179 712 l 1
 179 0 l 1
EndSplineSet
Validated: 1
Substitution2: "'ss01' Style Set 1 in Latin lookup 80 subtable" i.ss01
Substitution2: "'ss01' Style Set 1 in Cyrillic lookup 79 subtable" i.ss01
Substitution2: "'ss01' Style Set 1 in Greek lookup 78 subtable" i.ss01
Substitution2: "'ss01' Style Set 1 lookup 77 subtable" i.ss01
Substitution2: "'salt' Stylistic Alternatives in Latin lookup 76 subtable" i.ss01
Substitution2: "'salt' Stylistic Alternatives in Cyrillic lookup 75 subtable" i.ss01
Substitution2: "'salt' Stylistic Alternatives in Greek lookup 74 subtable" i.ss01
Substitution2: "'salt' Stylistic Alternatives lookup 73 subtable" i.ss01
Substitution2: "'locl' Localized Forms in Latin lookup 7 subtable" i.latn_TRK
Substitution2: "'locl' Localized Forms in Latin lookup 3 subtable" i.latn_TRK
Substitution2: "'locl' Localized Forms in Latin lookup 2 subtable" i.latn_TRK
AlternateSubs2: "'aalt' Access All Alternates lookup 1 subtable" i.latn_TRK i.ss01
EndChar

StartChar: j
Encoding: 106 106 77
Width: 501
Flags: MW
HStem: -6 68<156.5 232.5 156.5 251> 692 20G<332 408 408 408>
VStem: 332 76<226 712>
LayerCount: 2
Fore
SplineSet
408 216 m 2
 408 79 316 -6 186 -6 c 0
 118 -6 67 14 23 58 c 1
 74 109 l 1
 100 83 127 62 186 62 c 0
 279 62 332 121 332 226 c 2
 332 712 l 1
 408 712 l 1
 408 216 l 2
EndSplineSet
Validated: 1
Substitution2: "'ss01' Style Set 1 in Latin lookup 80 subtable" j.ss01
Substitution2: "'ss01' Style Set 1 in Cyrillic lookup 79 subtable" j.ss01
Substitution2: "'ss01' Style Set 1 in Greek lookup 78 subtable" j.ss01
Substitution2: "'ss01' Style Set 1 lookup 77 subtable" j.ss01
Substitution2: "'salt' Stylistic Alternatives in Latin lookup 76 subtable" j.ss01
Substitution2: "'salt' Stylistic Alternatives in Cyrillic lookup 75 subtable" j.ss01
Substitution2: "'salt' Stylistic Alternatives in Greek lookup 74 subtable" j.ss01
Substitution2: "'salt' Stylistic Alternatives lookup 73 subtable" j.ss01
Substitution2: "'aalt' Access All Alternates lookup 0 subtable" j.ss01
EndChar

StartChar: k
Encoding: 107 107 78
Width: 650
Flags: MW
HStem: 0 21G<103 179 103 103 546 636 546 546> 692 20G<103 179 179 179 511 604 604 604>
VStem: 103 76<0 199 303 712>
LayerCount: 2
Fore
SplineSet
636 0 m 1
 546 0 l 1
 329 379 l 1
 179 199 l 1
 179 0 l 1
 103 0 l 1
 103 712 l 1
 179 712 l 1
 179 303 l 1
 511 712 l 1
 604 712 l 1
 380 437 l 1
 636 0 l 1
EndSplineSet
Validated: 1
EndChar

StartChar: l
Encoding: 108 108 79
Width: 573
Flags: MW
HStem: 0 68<179 543 179 543> 692 20G<103 179 179 179>
VStem: 103 76<68 712 68 712 68 712>
LayerCount: 2
Fore
SplineSet
543 0 m 1
 103 0 l 1
 103 712 l 1
 179 712 l 1
 179 68 l 1
 543 68 l 1
 543 0 l 1
EndSplineSet
Validated: 1
EndChar

StartChar: m
Encoding: 109 109 80
Width: 816
Flags: MW
HStem: 0 21G<103 179 103 103 637 713 637 637> 692 20G<103 179 179 179 637 713 713 713>
VStem: 103 76<0 541 0 712> 637 76<0 541 541 541>
CounterMasks: 1 1c
LayerCount: 2
Fore
SplineSet
713 0 m 1
 637 0 l 1
 637 541 l 1
 442 112 l 1
 377 112 l 1
 179 541 l 1
 179 0 l 1
 103 0 l 1
 103 712 l 1
 179 712 l 1
 411 207 l 1
 637 712 l 1
 713 712 l 1
 713 0 l 1
EndSplineSet
Validated: 1
EndChar

StartChar: n
Encoding: 110 110 81
Width: 732
Flags: MW
HStem: 0 21G<103 179 103 103 557 629 557 557> 692 20G<103 175 175 175 553 629 629 629>
VStem: 103 76<0 571 0 712> 553 76<143 712>
LayerCount: 2
Fore
SplineSet
629 0 m 1
 557 0 l 1
 179 571 l 1
 179 0 l 1
 103 0 l 1
 103 712 l 1
 175 712 l 1
 553 143 l 1
 553 712 l 1
 629 712 l 1
 629 0 l 1
EndSplineSet
Validated: 1
EndChar

StartChar: o
Encoding: 111 111 82
Width: 650
Flags: MW
HStem: -6 68<301 349 301 362> 650 68<301 349>
VStem: 76 76<283 429 283 437.5> 498 76<283 429>
LayerCount: 2
Fore
SplineSet
574 356 m 0
 574 193 569 131 502 64 c 0
 458 20 399 -6 325 -6 c 0
 251 -6 191 20 147 64 c 0
 80 131 76 193 76 356 c 0
 76 519 80 581 147 648 c 0
 191 692 251 718 325 718 c 0
 399 718 458 692 502 648 c 0
 569 581 574 519 574 356 c 0
498 356 m 0
 498 502 493 554 448 600 c 0
 415 633 373 650 325 650 c 0
 277 650 235 633 202 600 c 0
 157 554 152 502 152 356 c 0
 152 210 157 158 202 112 c 0
 235 79 277 62 325 62 c 0
 373 62 415 79 448 112 c 0
 493 158 498 210 498 356 c 0
EndSplineSet
Validated: 1
Substitution2: "Single Substitution lookup 86 subtable" ordmasculine
Substitution2: "'aalt' Access All Alternates lookup 0 subtable" ordmasculine
EndChar

StartChar: p
Encoding: 112 112 83
Width: 630
Flags: HMW
HStem: 0 21G<103 179 103 103> 293 68<179 362 362 368 179 362> 644 68<179 362 179 179>
VStem: 103 76<0 293 0 361 361 644> 512 76<456 550>
LayerCount: 2
Fore
SplineSet
103 361 m 1
 362 361 l 2
 451 361 512 409 512 503 c 0
 512 597 451 644 362 644 c 2
 103 644 l 1
 103 712 l 1
 368 712 l 2
 497 712 588 630 588 503 c 0
 588 376 497 293 368 293 c 2
 179 293 l 1
 179 0 l 1
 103 0 l 1
 103 361 l 1
EndSplineSet
Validated: 1
EndChar

StartChar: q
Encoding: 113 113 84
Width: 649
Flags: MW
HStem: -35 21G<557 557> -6 68<301 344 301 355.5> 650 68<301 349>
VStem: 76 76<283 429 283 437.5> 498 76<299.5 429>
LayerCount: 2
Fore
SplineSet
574 356 m 0
 574 212 571 149 525 89 c 1
 603 11 l 1
 557 -35 l 1
 478 43 l 1
 439 12 386 -6 325 -6 c 0
 251 -6 191 20 147 64 c 0
 80 131 76 193 76 356 c 0
 76 519 80 581 147 648 c 0
 191 692 251 718 325 718 c 0
 399 718 458 692 502 648 c 0
 569 581 574 519 574 356 c 0
498 356 m 0
 498 502 493 554 448 600 c 0
 416 633 373 650 325 650 c 0
 277 650 234 633 202 600 c 0
 157 554 152 502 152 356 c 0
 152 210 157 158 202 112 c 0
 234 79 277 62 325 62 c 0
 363 62 397 72 426 96 c 1
 336 186 l 1
 382 232 l 1
 468 145 l 1
 495 187 498 243 498 356 c 0
EndSplineSet
Validated: 1
EndChar

StartChar: r
Encoding: 114 114 85
Width: 656
Flags: HMW
HStem: 0 21G<103 179 103 103 512 601 512 512> 316 67<179 350 179 369> 644 68<179 369 179 179>
VStem: 103 76<0 316 0 383 383 644> 511 76<469.5 556.5>
LayerCount: 2
Fore
SplineSet
103 383 m 5
 369 383 l 6
 452 383 511 426 511 513 c 4
 511 600 452 644 369 644 c 6
 103 644 l 5
 103 712 l 5
 376 712 l 6
 500 712 587 637 587 514 c 4
 587 410 524 342 432 323 c 5
 601 0 l 5
 512 0 l 5
 350 316 l 5
 179 316 l 5
 179 0 l 5
 103 0 l 5
 103 383 l 5
EndSplineSet
Validated: 1
EndChar

StartChar: s
Encoding: 115 115 86
Width: 588
Flags: MW
HStem: -6 68<248 340.5 248 360.5> 653 65<238 323>
VStem: 61 74<502.5 560 502.5 578.5> 457 75<152 213>
LayerCount: 2
Fore
SplineSet
532 196 m 0
 532 71 435 -6 286 -6 c 0
 180 -6 109 21 43 88 c 1
 94 139 l 1
 153 80 208 62 288 62 c 0
 393 62 457 110 457 194 c 0
 457 232 446 262 422 283 c 0
 400 303 380 310 329 318 c 2
 246 330 l 2
 190 339 148 356 116 384 c 0
 80 416 61 460 61 518 c 0
 61 639 148 718 289 718 c 0
 380 718 440 694 501 640 c 1
 452 591 l 1
 409 632 360 653 286 653 c 0
 190 653 135 600 135 520 c 0
 135 485 145 456 167 437 c 0
 189 418 223 406 260 400 c 2
 343 387 l 2
 409 377 440 365 472 336 c 0
 510 303 532 255 532 196 c 0
EndSplineSet
Validated: 1
Substitution2: "'ss02' Style Set 2 in Latin lookup 84 subtable" longs
Substitution2: "'ss02' Style Set 2 in Cyrillic lookup 83 subtable" longs
Substitution2: "'ss02' Style Set 2 in Greek lookup 82 subtable" longs
Substitution2: "'ss02' Style Set 2 lookup 81 subtable" longs
Substitution2: "'hist' Historical Forms in Latin lookup 64 subtable" longs
Substitution2: "'hist' Historical Forms in Cyrillic lookup 63 subtable" longs
Substitution2: "'hist' Historical Forms in Greek lookup 62 subtable" longs
Substitution2: "'hist' Historical Forms lookup 61 subtable" longs
Substitution2: "'aalt' Access All Alternates lookup 0 subtable" longs
EndChar

StartChar: t
Encoding: 116 116 87
Width: 548
Flags: MW
HStem: 0 21G<236 312 236 236> 644 68<30 236 30 518 312 518 312 312>
VStem: 236 76<0 644 0 644>
LayerCount: 2
Fore
SplineSet
518 644 m 1
 312 644 l 1
 312 0 l 1
 236 0 l 1
 236 644 l 1
 30 644 l 1
 30 712 l 1
 518 712 l 1
 518 644 l 1
EndSplineSet
Validated: 1
EndChar

StartChar: u
Encoding: 117 117 88
Width: 683
Flags: MW
HStem: -6 68<289 393 289 413> 692 20G<93 169 169 169 514 590 590 590>
VStem: 93 76<235 241 241 712> 514 76<241 712>
LayerCount: 2
Fore
SplineSet
590 235 m 2
 590 93 485 -6 341 -6 c 0
 197 -6 93 93 93 235 c 2
 93 712 l 1
 169 712 l 1
 169 241 l 2
 169 133 237 62 341 62 c 0
 445 62 514 133 514 241 c 2
 514 712 l 1
 590 712 l 1
 590 235 l 2
EndSplineSet
Validated: 1
EndChar

StartChar: v
Encoding: 118 118 89
Width: 546
Flags: MW
HStem: 0 21G<242 304 242 242> 692 20G<8 88 88 88 458 538 538 538>
LayerCount: 2
Fore
SplineSet
538 712 m 1
 304 0 l 1
 242 0 l 1
 8 712 l 1
 88 712 l 1
 273 136 l 1
 458 712 l 1
 538 712 l 1
EndSplineSet
Validated: 1
EndChar

StartChar: w
Encoding: 119 119 90
Width: 854
Flags: MW
HStem: 0 21G<198 269 198 198 585 656 585 585> 692 20G<16 97 97 97 393 461 461 461 757 838 838 838>
LayerCount: 2
Fore
SplineSet
838 712 m 1
 656 0 l 1
 585 0 l 1
 427 570 l 1
 269 0 l 1
 198 0 l 1
 16 712 l 1
 97 712 l 1
 236 138 l 1
 393 712 l 1
 461 712 l 1
 618 138 l 1
 757 712 l 1
 838 712 l 1
EndSplineSet
Validated: 1
EndChar

StartChar: x
Encoding: 120 120 91
Width: 551
Flags: MW
HStem: 0 21G<15 101 15 15 448 536 448 448> 692 20G<29 117 117 117 433 521 521 521>
LayerCount: 2
Fore
SplineSet
536 0 m 1
 448 0 l 1
 275 299 l 1
 101 0 l 1
 15 0 l 1
 233 365 l 1
 29 712 l 1
 117 712 l 1
 275 431 l 1
 433 712 l 1
 521 712 l 1
 316 365 l 1
 536 0 l 1
EndSplineSet
Validated: 1
EndChar

StartChar: y
Encoding: 121 121 92
Width: 514
Flags: MW
HStem: 0 21G<220 296 220 220> 692 20G<8 90 90 90 424 506 506 506>
VStem: 220 76<0 294 0 294>
LayerCount: 2
Fore
SplineSet
506 712 m 1
 296 294 l 1
 296 0 l 1
 220 0 l 1
 220 294 l 1
 8 712 l 1
 90 712 l 1
 258 371 l 1
 424 712 l 1
 506 712 l 1
EndSplineSet
Validated: 1
EndChar

StartChar: z
Encoding: 122 122 93
Width: 556
Flags: MW
HStem: 0 68<140 499 140 499> 644 68<71 413 71 499>
LayerCount: 2
Fore
SplineSet
499 0 m 1
 57 0 l 1
 57 72 l 1
 413 644 l 1
 71 644 l 1
 71 712 l 1
 499 712 l 1
 499 648 l 1
 140 68 l 1
 499 68 l 1
 499 0 l 1
EndSplineSet
Validated: 1
EndChar

StartChar: braceleft
Encoding: 123 123 94
Width: 354
Flags: MW
HStem: -74 64<243 305 282 305 282 305> 324 64<48 74 48 74> 722 64<268 282 282 305>
VStem: 137 72<55 68 68 246 246 256 466 644>
CounterMasks: 1 e0
LayerCount: 2
Fore
SplineSet
305 -74 m 1
 268 -74 l 2
 218 -74 188 -65 167 -44 c 0
 145 -22 137 3 137 55 c 2
 137 246 l 2
 137 274 131 294 119 306 c 0
 109 316 93 324 74 324 c 2
 48 324 l 1
 48 388 l 1
 74 388 l 2
 93 388 109 396 119 406 c 0
 131 418 137 438 137 466 c 2
 137 657 l 2
 137 709 145 734 167 756 c 0
 188 777 218 786 268 786 c 2
 305 786 l 1
 305 722 l 1
 282 722 l 2
 247 722 233 719 223 709 c 0
 212 698 209 680 209 644 c 2
 209 456 l 2
 209 399 184 374 146 356 c 1
 184 338 209 313 209 256 c 2
 209 68 l 2
 209 32 212 14 223 3 c 0
 233 -7 247 -10 282 -10 c 2
 305 -10 l 1
 305 -74 l 1
EndSplineSet
Validated: 1
EndChar

StartChar: bar
Encoding: 124 124 95
Width: 326
Flags: MW
HStem: -74 21G<127 199 127 127> 766 20G<127 199 199 199>
VStem: 127 72<-74 786>
LayerCount: 2
Fore
SplineSet
199 -74 m 1
 127 -74 l 1
 127 786 l 1
 199 786 l 1
 199 -74 l 1
EndSplineSet
Validated: 1
EndChar

StartChar: braceright
Encoding: 125 125 96
Width: 354
Flags: MW
HStem: -74 64<48 72 72 86 48 72> 324 64<270.5 305 280 305> 722 64<48 72 48 86>
VStem: 145 72<68 246 456 466 466 644 644 657>
CounterMasks: 1 e0
LayerCount: 2
Fore
SplineSet
305 324 m 1
 280 324 l 2
 261 324 245 316 235 306 c 0
 223 294 217 274 217 246 c 2
 217 55 l 2
 217 3 209 -22 187 -44 c 0
 166 -65 136 -74 86 -74 c 2
 48 -74 l 1
 48 -10 l 1
 72 -10 l 2
 107 -10 120 -7 130 3 c 0
 141 14 145 32 145 68 c 2
 145 256 l 2
 145 313 170 338 208 356 c 1
 170 374 145 399 145 456 c 2
 145 644 l 2
 145 680 141 698 130 709 c 0
 120 719 107 722 72 722 c 2
 48 722 l 1
 48 786 l 1
 86 786 l 2
 136 786 166 777 187 756 c 0
 209 734 217 709 217 657 c 2
 217 466 l 2
 217 438 223 418 235 406 c 0
 245 396 261 388 280 388 c 2
 305 388 l 1
 305 324 l 1
EndSplineSet
Validated: 1
EndChar

StartChar: asciitilde
Encoding: 126 126 97
Width: 539
Flags: MW
HStem: 220 21G<93 93> 303 20G<445 445>
LayerCount: 2
Fore
SplineSet
490 278 m 1
 434 222 406 210 361 210 c 0
 326 210 293 224 255 241 c 0
 227 254 204 265 177 265 c 0
 149 265 132 259 93 220 c 1
 49 265 l 1
 105 321 133 333 178 333 c 0
 213 333 245 319 283 302 c 0
 311 289 334 278 361 278 c 0
 389 278 406 284 445 323 c 1
 490 278 l 1
EndSplineSet
Validated: 1
EndChar

StartChar: exclamdown
Encoding: 161 161 99
Width: 316
Flags: MW
HStem: -220 21G<101 184 101 101> 472 20G<99 185 185 185>
VStem: 111 62<292 292>
LayerCount: 2
Fore
SplineSet
184 -220 m 1
 101 -220 l 1
 111 292 l 1
 173 292 l 1
 184 -220 l 1
185 408 m 1
 99 408 l 1
 99 492 l 1
 185 492 l 1
 185 408 l 1
EndSplineSet
Validated: 1
Substitution2: "'ss01' Style Set 1 in Latin lookup 80 subtable" exclamdown.ss01
Substitution2: "'ss01' Style Set 1 in Cyrillic lookup 79 subtable" exclamdown.ss01
Substitution2: "'ss01' Style Set 1 in Greek lookup 78 subtable" exclamdown.ss01
Substitution2: "'ss01' Style Set 1 lookup 77 subtable" exclamdown.ss01
Substitution2: "'salt' Stylistic Alternatives in Latin lookup 76 subtable" exclamdown.ss01
Substitution2: "'salt' Stylistic Alternatives in Cyrillic lookup 75 subtable" exclamdown.ss01
Substitution2: "'salt' Stylistic Alternatives in Greek lookup 74 subtable" exclamdown.ss01
Substitution2: "'salt' Stylistic Alternatives lookup 73 subtable" exclamdown.ss01
Substitution2: "'case' Case-Sensitive Forms in Latin lookup 68 subtable" exclamdown.case
Substitution2: "'case' Case-Sensitive Forms in Cyrillic lookup 67 subtable" exclamdown.case
Substitution2: "'case' Case-Sensitive Forms in Greek lookup 66 subtable" exclamdown.case
Substitution2: "'case' Case-Sensitive Forms lookup 65 subtable" exclamdown.case
AlternateSubs2: "'aalt' Access All Alternates lookup 1 subtable" exclamdown.case exclamdown.ss01
EndChar

StartChar: cent
Encoding: 162 162 100
Width: 498
Flags: MW
HStem: 0 21G<244 303 244 244> 115 65<299 303> 552 65<299 303> 692 20G<244 303 303 303>
VStem: 63 72<335 397 335 438> 244 59<0 115 0 117 0 117 617 712>
LayerCount: 2
Fore
SplineSet
448 189 m 1
 402 139 362 119 303 115 c 1
 303 0 l 1
 244 0 l 1
 244 117 l 1
 134 133 63 222 63 366 c 0
 63 510 134 599 244 615 c 1
 244 712 l 1
 303 712 l 1
 303 617 l 1
 362 613 402 593 448 543 c 1
 399 497 l 1
 366 534 339 549 299 552 c 1
 299 180 l 1
 339 183 366 198 399 235 c 1
 448 189 l 1
248 182 m 1
 248 550 l 1
 215 544 188 526 168 498 c 0
 145 466 135 428 135 366 c 0
 135 304 145 266 168 234 c 0
 188 206 215 188 248 182 c 1
EndSplineSet
Validated: 1
EndChar

StartChar: sterling
Encoding: 163 163 101
Width: 548
Flags: MW
HStem: 0 68<187 496 187 496> 330 54<47 110 47 110 187 333> 650 68<286.5 362.5>
VStem: 110 77<68 330 68 330 68 330 384 486>
LayerCount: 2
Fore
SplineSet
496 0 m 1
 110 0 l 1
 110 330 l 1
 47 330 l 1
 47 384 l 1
 110 384 l 1
 110 496 l 2
 110 633 203 718 333 718 c 0
 401 718 452 698 496 654 c 1
 444 603 l 1
 418 629 392 650 333 650 c 0
 240 650 187 591 187 486 c 2
 187 384 l 1
 333 384 l 1
 333 330 l 1
 187 330 l 1
 187 68 l 1
 496 68 l 1
 496 0 l 1
EndSplineSet
Validated: 1
EndChar

StartChar: currency
Encoding: 164 164 102
Width: 660
Flags: MW
HStem: 19 21G<124 124 536 536> 49 66<305 355> 426 66<305 355 305 373> 502 20G<124 124 536 536>
VStem: 108 66<246 296> 485 67<246 296 246 314>
LayerCount: 2
Fore
SplineSet
582 65 m 1
 536 19 l 1
 461 93 l 1
 425 66 380 49 330 49 c 0
 280 49 234 66 198 93 c 1
 124 19 l 1
 78 65 l 1
 152 139 l 1
 125 175 108 221 108 271 c 0
 108 321 125 367 152 403 c 1
 78 476 l 1
 124 522 l 1
 198 449 l 1
 234 476 280 492 330 492 c 0
 380 492 425 476 461 449 c 1
 536 522 l 1
 582 476 l 1
 508 403 l 1
 535 367 552 321 552 271 c 0
 552 221 535 175 508 139 c 1
 582 65 l 1
485 271 m 0
 485 357 416 426 330 426 c 0
 244 426 174 357 174 271 c 0
 174 185 244 115 330 115 c 0
 416 115 485 185 485 271 c 0
EndSplineSet
Validated: 1
EndChar

StartChar: yen
Encoding: 165 165 103
Width: 514
Flags: MW
HStem: 0 21G<219 296 219 219> 187 55<65 219 65 219 296 449> 347 54<65 165 65 193 65 165 349 449> 692 20G<8 90 90 90 425 506 506 506>
VStem: 219 77<0 187 0 187 242 294>
LayerCount: 2
Fore
SplineSet
506 712 m 1
 349 401 l 1
 449 401 l 1
 449 347 l 1
 322 347 l 1
 296 294 l 1
 296 242 l 1
 449 242 l 1
 449 187 l 1
 296 187 l 1
 296 0 l 1
 219 0 l 1
 219 187 l 1
 65 187 l 1
 65 242 l 1
 219 242 l 1
 219 294 l 1
 193 347 l 1
 65 347 l 1
 65 401 l 1
 165 401 l 1
 8 712 l 1
 90 712 l 1
 258 371 l 1
 425 712 l 1
 506 712 l 1
EndSplineSet
Validated: 1
EndChar

StartChar: brokenbar
Encoding: 166 166 104
Width: 335
Flags: MW
HStem: -74 21G<127 199 127 127> 766 20G<127 199 199 199>
VStem: 127 72<-74 276 436 786>
LayerCount: 2
Fore
SplineSet
199 436 m 1
 127 436 l 1
 127 786 l 1
 199 786 l 1
 199 436 l 1
199 -74 m 1
 127 -74 l 1
 127 276 l 1
 199 276 l 1
 199 -74 l 1
EndSplineSet
Validated: 1
EndChar

StartChar: section
Encoding: 167 167 105
Width: 557
Flags: MW
HStem: -226 66<245.5 313 245.5 330.5> 654 64<245.5 311>
VStem: 87 73<231.5 273.5 231.5 293> 397 73<231.5 272>
LayerCount: 2
Fore
SplineSet
470 254 m 0
 470 172 419 116 366 90 c 1
 423 69 463 19 463 -54 c 0
 463 -158 382 -226 279 -226 c 0
 180 -226 96 -172 90 -65 c 1
 163 -65 l 1
 169 -127 212 -160 279 -160 c 0
 347 -160 390 -122 390 -55 c 0
 390 -9 358 31 302 47 c 2
 224 69 l 2
 136 94 87 161 87 252 c 0
 87 334 138 390 192 416 c 1
 135 442 99 481 99 554 c 0
 99 651 174 718 279 718 c 0
 383 718 457 658 461 561 c 1
 389 561 l 1
 384 627 343 654 279 654 c 0
 212 654 171 620 171 555 c 0
 171 502 205 473 255 459 c 2
 333 437 l 2
 420 412 470 344 470 254 c 0
397 253 m 0
 397 291 390 320 365 345 c 0
 342 368 314 381 279 381 c 0
 244 381 214 368 193 345 c 0
 170 320 160 294 160 253 c 0
 160 210 174 182 193 161 c 0
 214 138 244 125 279 125 c 0
 314 125 344 138 365 161 c 0
 385 183 397 210 397 253 c 0
EndSplineSet
Validated: 1
EndChar

StartChar: dieresis
Encoding: 168 168 106
Width: 500
Flags: MW
HStem: 602 21G<108 180 108 108 320 392 320 320> 671 20G<108 180 180 180 320 392 392 392>
LayerCount: 2
Fore
SplineSet
392 602 m 1
 320 602 l 1
 320 691 l 1
 392 691 l 1
 392 602 l 1
180 602 m 1
 108 602 l 1
 108 691 l 1
 180 691 l 1
 180 602 l 1
EndSplineSet
Validated: 1
Substitution2: "'ss01' Style Set 1 in Latin lookup 80 subtable" dieresis.ss01
Substitution2: "'ss01' Style Set 1 in Cyrillic lookup 79 subtable" dieresis.ss01
Substitution2: "'ss01' Style Set 1 in Greek lookup 78 subtable" dieresis.ss01
Substitution2: "'ss01' Style Set 1 lookup 77 subtable" dieresis.ss01
Substitution2: "'salt' Stylistic Alternatives in Latin lookup 76 subtable" dieresis.ss01
Substitution2: "'salt' Stylistic Alternatives in Cyrillic lookup 75 subtable" dieresis.ss01
Substitution2: "'salt' Stylistic Alternatives in Greek lookup 74 subtable" dieresis.ss01
Substitution2: "'salt' Stylistic Alternatives lookup 73 subtable" dieresis.ss01
Substitution2: "'aalt' Access All Alternates lookup 0 subtable" dieresis.ss01
EndChar

StartChar: copyright
Encoding: 169 169 107
Width: 881
Flags: MW
HStem: -6 54<356 524 356 540> 153 50<399.5 463.5 399.5 473> 510 50<399.5 463.5> 664 54<356 524>
VStem: 78 59<271.5 440.5 271.5 456> 267 56<314 398 314 414.5> 744 58<271.5 440.5>
LayerCount: 2
Fore
SplineSet
802 356 m 0
 802 156 640 -6 440 -6 c 0
 240 -6 78 156 78 356 c 0
 78 556 240 718 440 718 c 0
 640 718 802 556 802 356 c 0
744 356 m 0
 744 525 608 664 440 664 c 0
 272 664 137 525 137 356 c 0
 137 187 272 48 440 48 c 0
 608 48 744 187 744 356 c 0
576 205 m 1
 537 170 501 153 445 153 c 0
 329 153 267 239 267 356 c 0
 267 473 329 560 445 560 c 0
 501 560 535 543 576 507 c 1
 540 471 l 1
 507 500 482 510 445 510 c 0
 354 510 323 440 323 356 c 0
 323 272 354 203 445 203 c 0
 482 203 507 212 540 241 c 1
 576 205 l 1
EndSplineSet
Validated: 1
EndChar

StartChar: ordfeminine
Encoding: 170 170 108
Width: 449
Flags: MW
HStem: 314 52<171 217.5 171 221.5> 319 21G<307 365 307 307> 498 45<191 199 199 306> 663 53<184.5 244.5>
VStem: 56 59<413.5 453 409 463.5> 306 59<458 498 498 498 543 579 579 584>
LayerCount: 2
Fore
SplineSet
365 319 m 1x00
 307 319 l 1xbc
 307 355 l 1
 276 325 247 314 196 314 c 0x7c
 142 314 111 325 86 350 c 0
 67 370 56 398 56 429 c 0
 56 498 104 543 191 543 c 2
 306 543 l 1
 306 579 l 2
 306 635 280 663 209 663 c 0
 160 663 135 652 111 619 c 1
 70 656 l 1
 106 702 147 716 210 716 c 0
 315 716 365 669 365 584 c 2
 365 319 l 1x00
306 458 m 2
 306 498 l 1
 199 498 l 2
 142 498 115 475 115 431 c 0
 115 387 141 366 201 366 c 0x7c
 234 366 263 368 287 391 c 0
 300 403 306 425 306 458 c 2
EndSplineSet
Validated: 1
EndChar

StartChar: guillemotleft
Encoding: 171 171 109
Width: 554
Flags: MW
HStem: 58 21G<250 250 476 476> 458 20G<250 250 476 476>
LayerCount: 2
Fore
SplineSet
250 58 m 1
 40 268 l 1
 250 478 l 1
 250 388 l 1
 130 268 l 1
 250 147 l 1
 250 58 l 1
476 58 m 1
 266 268 l 1
 476 478 l 1
 476 388 l 1
 355 268 l 1
 476 147 l 1
 476 58 l 1
EndSplineSet
Validated: 1
Substitution2: "'case' Case-Sensitive Forms in Latin lookup 68 subtable" guillemotleft.case
Substitution2: "'case' Case-Sensitive Forms in Cyrillic lookup 67 subtable" guillemotleft.case
Substitution2: "'case' Case-Sensitive Forms in Greek lookup 66 subtable" guillemotleft.case
Substitution2: "'case' Case-Sensitive Forms lookup 65 subtable" guillemotleft.case
Substitution2: "'aalt' Access All Alternates lookup 0 subtable" guillemotleft.case
EndChar

StartChar: logicalnot
Encoding: 172 172 110
Width: 522
Flags: MW
HStem: 103 21G<404 471 404 404> 240 67<51 404 51 471>
VStem: 404 67<103 240 240 240>
LayerCount: 2
Fore
SplineSet
471 103 m 1
 404 103 l 1
 404 240 l 1
 51 240 l 1
 51 307 l 1
 471 307 l 1
 471 103 l 1
EndSplineSet
Validated: 1
EndChar

StartChar: uni00AD
Encoding: 173 173 111
Width: 426
Flags: MW
HStem: 236 67<76 350 76 350>
LayerCount: 2
Fore
SplineSet
350 236 m 1
 76 236 l 1
 76 303 l 1
 350 303 l 1
 350 236 l 1
EndSplineSet
Validated: 1
Substitution2: "'case' Case-Sensitive Forms in Latin lookup 68 subtable" uni00AD.case
Substitution2: "'case' Case-Sensitive Forms in Cyrillic lookup 67 subtable" uni00AD.case
Substitution2: "'case' Case-Sensitive Forms in Greek lookup 66 subtable" uni00AD.case
Substitution2: "'case' Case-Sensitive Forms lookup 65 subtable" uni00AD.case
Substitution2: "'aalt' Access All Alternates lookup 0 subtable" uni00AD.case
EndChar

StartChar: registered
Encoding: 174 174 112
Width: 881
Flags: MW
HStem: -6 53<356 524 356 540> 158 21G<322 377 322 322 528 592 528 528> 320 47<377 437 377 451> 506 49<377 451 377 377> 665 53<356 524>
VStem: 78 58<271 441 271 456> 322 55<158 320 158 367 367 506> 526 56<416 456> 745 57<271 441>
LayerCount: 2
Fore
SplineSet
802 356 m 0
 802 156 640 -6 440 -6 c 0
 240 -6 78 156 78 356 c 0
 78 556 240 718 440 718 c 0
 640 718 802 556 802 356 c 0
745 356 m 0
 745 526 608 665 440 665 c 0
 272 665 136 526 136 356 c 0
 136 186 272 47 440 47 c 0
 608 47 745 186 745 356 c 0
592 158 m 1
 528 158 l 1
 437 320 l 1
 377 320 l 1
 377 158 l 1
 322 158 l 1
 322 555 l 1
 457 555 l 2
 526 555 582 503 582 436 c 0
 582 378 546 342 497 327 c 1
 592 158 l 1
526 436 m 0
 526 476 495 506 451 506 c 2
 377 506 l 1
 377 367 l 1
 451 367 l 2
 495 367 526 396 526 436 c 0
EndSplineSet
Validated: 1
EndChar

StartChar: macron
Encoding: 175 175 113
Width: 500
Flags: MW
HStem: 613 57<99 400 99 400>
LayerCount: 2
Fore
SplineSet
99 613 m 1
 99 670 l 1
 400 670 l 1
 400 613 l 1
 99 613 l 1
EndSplineSet
Validated: 1
EndChar

StartChar: degree
Encoding: 176 176 114
Width: 463
Flags: MW
HStem: 393 58<202.5 261.5 202.5 277.5> 663 58<201.5 260.5>
VStem: 67 61<527 587 527 602.5> 335 61<527 587>
LayerCount: 2
Fore
SplineSet
396 557 m 0
 396 466 323 393 232 393 c 0
 141 393 67 466 67 557 c 0
 67 648 141 721 232 721 c 0
 323 721 396 648 396 557 c 0
335 557 m 0
 335 617 290 663 231 663 c 0
 172 663 128 617 128 557 c 0
 128 497 173 451 232 451 c 0
 291 451 335 497 335 557 c 0
EndSplineSet
Validated: 1
EndChar

StartChar: plusminus
Encoding: 177 177 115
Width: 522
Flags: MW
HStem: 0 67<52 470 52 470> 289 67<52 228 52 228 295 470> 511 20G<228 295 295 295>
VStem: 228 67<112 289 112 289 356 531>
LayerCount: 2
Fore
SplineSet
470 289 m 1
 295 289 l 1
 295 112 l 1
 228 112 l 1
 228 289 l 1
 52 289 l 1
 52 356 l 1
 228 356 l 1
 228 531 l 1
 295 531 l 1
 295 356 l 1
 470 356 l 1
 470 289 l 1
470 0 m 1
 52 0 l 1
 52 67 l 1
 470 67 l 1
 470 0 l 1
EndSplineSet
Validated: 1
EndChar

StartChar: twosuperior
Encoding: 178 178 116
Width: 318
Flags: MW
HStem: 285 52<110 287 41 41> 664 52<147 184.5>
VStem: 41 58<597 621.5 597 633> 229 58<586 617>
LayerCount: 2
Fore
SplineSet
287 285 m 1
 41 285 l 1
 41 337 l 1
 206 539 l 2
 222 559 229 575 229 597 c 0
 229 637 205 664 164 664 c 0
 130 664 99 646 99 597 c 1
 41 597 l 1
 41 669 92 716 164 716 c 0
 236 716 287 670 287 597 c 0
 287 560 274 537 248 505 c 2
 110 337 l 1
 287 337 l 1
 287 285 l 1
EndSplineSet
Validated: 1
EndChar

StartChar: threesuperior
Encoding: 179 179 117
Width: 318
Flags: MW
HStem: 280 52<145.5 184.5 145.5 199.5> 478 50<152 161 152 161> 664 52<143.5 181>
VStem: 33 58<399 399> 236 57<382 427.5>
LayerCount: 2
Fore
SplineSet
293 405 m 0
 293 323 235 280 164 280 c 0
 96 280 36 317 33 399 c 1
 91 399 l 1
 93 352 127 332 164 332 c 0
 205 332 236 359 236 405 c 0
 236 450 211 478 161 478 c 2
 152 478 l 1
 152 528 l 1
 161 528 l 2
 207 528 229 555 229 596 c 0
 229 641 199 664 163 664 c 0
 124 664 99 640 96 601 c 1
 39 601 l 1
 43 673 96 716 163 716 c 0
 235 716 286 668 286 597 c 0
 286 551 266 521 232 505 c 1
 270 489 293 458 293 405 c 0
EndSplineSet
Validated: 1
EndChar

StartChar: acute
Encoding: 180 180 118
Width: 500
Flags: MW
HStem: 594 21G<201 267 201 201> 727 20G<289 375 375 375>
LayerCount: 2
Fore
SplineSet
375 747 m 1
 267 594 l 1
 201 594 l 1
 289 747 l 1
 375 747 l 1
EndSplineSet
Validated: 1
EndChar

StartChar: mu
Encoding: 181 181 119
Width: 561
Flags: MW
HStem: -220 21G<83 155 83 83> -6 64<239 288.5> 0 21G<399 471 399 399> 472 20G<83 155 155 155 399 471 471 471>
VStem: 83 72<-220 31 145.5 189 189 492> 399 72<0 55 55 55 189 492>
LayerCount: 2
Fore
SplineSet
471 0 m 1x00
 399 0 l 1xdc
 399 55 l 1
 364 15 316 -6 261 -6 c 0
 217 -6 181 7 155 31 c 1
 155 -220 l 1
 83 -220 l 1
 83 492 l 1
 155 492 l 1
 155 189 l 2
 155 102 202 58 276 58 c 0xbc
 350 58 399 103 399 189 c 2
 399 492 l 1
 471 492 l 1
 471 0 l 1x00
EndSplineSet
Validated: 1
EndChar

StartChar: paragraph
Encoding: 182 182 120
Width: 603
Flags: MW
HStem: -220 21G<239 311 239 239 428 500 428 428> 644 68<311 428 311 311>
VStem: 239 72<-220 326 326 326> 428 72<-220 644 644 644>
LayerCount: 2
Fore
SplineSet
500 -220 m 1
 428 -220 l 1
 428 644 l 1
 311 644 l 1
 311 -220 l 1
 239 -220 l 1
 239 326 l 1
 119 326 42 420 42 518 c 0
 42 625 122 712 259 712 c 2
 500 712 l 1
 500 -220 l 1
EndSplineSet
Validated: 1
EndChar

StartChar: periodcentered
Encoding: 183 183 121
Width: 270
Flags: MW
HStem: 223 21G<88 182 88 88> 297 20G<88 182 182 182>
VStem: 88 94<223 317>
LayerCount: 2
Fore
SplineSet
182 223 m 1
 88 223 l 1
 88 317 l 1
 182 317 l 1
 182 223 l 1
EndSplineSet
Validated: 1
Substitution2: "'ss01' Style Set 1 in Latin lookup 80 subtable" periodcentered.ss01
Substitution2: "'ss01' Style Set 1 in Cyrillic lookup 79 subtable" periodcentered.ss01
Substitution2: "'ss01' Style Set 1 in Greek lookup 78 subtable" periodcentered.ss01
Substitution2: "'ss01' Style Set 1 lookup 77 subtable" periodcentered.ss01
Substitution2: "'salt' Stylistic Alternatives in Latin lookup 76 subtable" periodcentered.ss01
Substitution2: "'salt' Stylistic Alternatives in Cyrillic lookup 75 subtable" periodcentered.ss01
Substitution2: "'salt' Stylistic Alternatives in Greek lookup 74 subtable" periodcentered.ss01
Substitution2: "'salt' Stylistic Alternatives lookup 73 subtable" periodcentered.ss01
Substitution2: "'aalt' Access All Alternates lookup 0 subtable" periodcentered.ss01
EndChar

StartChar: cedilla
Encoding: 184 184 122
Width: 500
Flags: MW
HStem: -216 21G<175 254 175 175> -87 20G<246 313 313 313>
LayerCount: 2
Fore
SplineSet
313 -67 m 1
 254 -216 l 1
 175 -216 l 1
 246 -67 l 1
 313 -67 l 1
EndSplineSet
Validated: 1
Substitution2: "'ss01' Style Set 1 in Latin lookup 80 subtable" cedilla.ss01
Substitution2: "'ss01' Style Set 1 in Cyrillic lookup 79 subtable" cedilla.ss01
Substitution2: "'ss01' Style Set 1 in Greek lookup 78 subtable" cedilla.ss01
Substitution2: "'ss01' Style Set 1 lookup 77 subtable" cedilla.ss01
Substitution2: "'salt' Stylistic Alternatives in Latin lookup 76 subtable" cedilla.ss01
Substitution2: "'salt' Stylistic Alternatives in Cyrillic lookup 75 subtable" cedilla.ss01
Substitution2: "'salt' Stylistic Alternatives in Greek lookup 74 subtable" cedilla.ss01
Substitution2: "'salt' Stylistic Alternatives lookup 73 subtable" cedilla.ss01
Substitution2: "'aalt' Access All Alternates lookup 0 subtable" cedilla.ss01
EndChar

StartChar: onesuperior
Encoding: 185 185 123
Width: 318
Flags: MW
HStem: 285 21G<150 207 150 150> 692 20G<150 207 207 207>
VStem: 150 57<285 648 648 648>
LayerCount: 2
Fore
SplineSet
207 285 m 1
 150 285 l 1
 150 648 l 1
 67 575 l 1
 67 641 l 1
 150 712 l 1
 207 712 l 1
 207 285 l 1
EndSplineSet
Validated: 1
EndChar

StartChar: ordmasculine
Encoding: 186 186 124
Width: 455
Flags: MW
HStem: 315 53<213.5 240.5 213.5 251> 662 54<213.5 240.5>
VStem: 67 60<493.5 536.5 493.5 545> 328 59<493.5 536.5>
LayerCount: 2
Fore
SplineSet
387 515 m 0
 387 454 379 400 339 359 c 0
 312 332 275 315 227 315 c 0
 179 315 142 332 115 359 c 0
 75 400 67 454 67 515 c 0
 67 575 75 630 115 671 c 0
 142 698 179 716 227 716 c 0
 275 716 312 698 339 671 c 0
 379 630 387 575 387 515 c 0
328 515 m 0
 328 558 325 606 297 634 c 0
 279 652 254 662 227 662 c 0
 200 662 175 652 157 634 c 0
 129 606 127 558 127 515 c 0
 127 472 129 425 157 397 c 0
 175 379 200 368 227 368 c 0
 254 368 279 379 297 397 c 0
 325 425 328 472 328 515 c 0
EndSplineSet
Validated: 1
EndChar

StartChar: guillemotright
Encoding: 187 187 125
Width: 554
Flags: MW
HStem: 58 21G<78 78 304 304> 458 20G<78 78 304 304>
LayerCount: 2
Fore
SplineSet
514 268 m 1
 304 58 l 1
 304 147 l 1
 424 268 l 1
 304 388 l 1
 304 478 l 1
 514 268 l 1
288 268 m 1
 78 58 l 1
 78 147 l 1
 199 268 l 1
 78 388 l 1
 78 478 l 1
 288 268 l 1
EndSplineSet
Validated: 1
Substitution2: "'case' Case-Sensitive Forms in Latin lookup 68 subtable" guillemotright.case
Substitution2: "'case' Case-Sensitive Forms in Cyrillic lookup 67 subtable" guillemotright.case
Substitution2: "'case' Case-Sensitive Forms in Greek lookup 66 subtable" guillemotright.case
Substitution2: "'case' Case-Sensitive Forms lookup 65 subtable" guillemotright.case
Substitution2: "'aalt' Access All Alternates lookup 0 subtable" guillemotright.case
EndChar

StartChar: onequarter
Encoding: 188 188 126
Width: 821
Flags: MW
HStem: 0 21G<214 274 214 214 697 697 697 754> 285 21G<150 207 150 150> 692 20G<150 207 207 207 547 607 607 607>
VStem: 150 57<285 648 648 648>
LayerCount: 2
Fore
SplineSet
207 285 m 1
 150 285 l 1
 150 648 l 1
 67 575 l 1
 67 641 l 1
 150 712 l 1
 207 712 l 1
 207 285 l 1
607 712 m 1x70
 274 0 l 1
 214 0 l 1
 547 712 l 1
 607 712 l 1x70
801 65 m 1xa0
 754 65 l 1
 754 0 l 1
 697 0 l 1
 697 65 l 1
 525 65 l 1
 525 117 l 1
 676 427 l 1
 738 427 l 1
 587 117 l 1
 697 117 l 1
 697 222 l 1
 754 222 l 1
 754 117 l 1
 801 117 l 1
 801 65 l 1xa0
EndSplineSet
Validated: 1
EndChar

StartChar: onehalf
Encoding: 189 189 127
Width: 821
Flags: MW
HStem: 0 21G<214 274 214 214 544 544 544 790> 285 21G<150 207 150 150> 692 20G<150 207 207 207 547 607 607 607>
VStem: 150 57<285 648 648 648>
LayerCount: 2
Fore
SplineSet
207 285 m 1
 150 285 l 1
 150 648 l 1
 67 575 l 1
 67 641 l 1
 150 712 l 1
 207 712 l 1
 207 285 l 1
607 712 m 1x70
 274 0 l 1
 214 0 l 1
 547 712 l 1
 607 712 l 1x70
790 0 m 1xa0
 544 0 l 1
 544 52 l 1
 709 254 l 2
 725 274 732 290 732 312 c 0
 732 352 708 379 667 379 c 0
 633 379 602 361 602 312 c 1
 544 312 l 1
 544 384 595 431 667 431 c 0
 739 431 790 385 790 312 c 0
 790 275 777 252 751 220 c 2
 613 52 l 1
 790 52 l 1
 790 0 l 1xa0
EndSplineSet
Validated: 1
EndChar

StartChar: threequarters
Encoding: 190 190 128
Width: 821
Flags: MW
HStem: 0 21G<214 274 214 214 697 697 697 754> 281 52<145.5 184 145.5 199.5> 478 51<152 161 152 161> 664 52<143.5 180.5> 692 20G<547 607 607 607>
VStem: 39 52 236 57<383 428>
LayerCount: 2
Fore
SplineSet
293 405 m 0x00
 293 324 235 281 164 281 c 0
 95 281 36 318 33 400 c 1
 91 400 l 1
 94 352 127 333 164 333 c 0
 204 333 236 360 236 406 c 0
 236 450 211 478 161 478 c 2
 152 478 l 1
 152 529 l 1
 161 529 l 2
 206 529 229 556 229 596 c 0
 229 640 198 664 163 664 c 0
 124 664 99 640 96 601 c 1
 39 601 l 1
 43 673 96 716 163 716 c 0
 236 716 286 669 286 597 c 0
 286 551 266 522 232 506 c 1
 270 490 293 458 293 405 c 0x00
607 712 m 1x76
 274 0 l 1
 214 0 l 1
 547 712 l 1
 607 712 l 1x76
801 65 m 1x88
 754 65 l 1
 754 0 l 1
 697 0 l 1
 697 65 l 1
 525 65 l 1
 525 117 l 1
 676 427 l 1
 738 427 l 1
 587 117 l 1
 697 117 l 1
 697 222 l 1
 754 222 l 1
 754 117 l 1
 801 117 l 1
 801 65 l 1x88
EndSplineSet
Validated: 1
EndChar

StartChar: questiondown
Encoding: 191 191 129
Width: 497
Flags: MW
HStem: -226 65<200.5 269.5 200.5 288> 472 20G<185 270 270 270>
VStem: 46 72<-76.5 -26 -76.5 -19.5> 192 72<253 293 232.5 293> 349 72<-74.5 -43>
LayerCount: 2
Fore
SplineSet
421 -43 m 1
 421 -145 342 -226 234 -226 c 0
 129 -226 46 -150 46 -43 c 0
 46 4 66 39 92 77 c 2
 174 195 l 2
 186 213 192 237 192 253 c 2
 192 293 l 1
 264 293 l 1
 264 252 l 2
 264 213 253 188 232 158 c 2
 151 42 l 2
 132 14 118 -9 118 -43 c 0
 118 -110 167 -161 234 -161 c 0
 305 -161 349 -106 349 -43 c 1
 421 -43 l 1
270 408 m 1
 185 408 l 1
 185 492 l 1
 270 492 l 1
 270 408 l 1
EndSplineSet
Validated: 1
Substitution2: "'ss01' Style Set 1 in Latin lookup 80 subtable" questiondown.ss01
Substitution2: "'ss01' Style Set 1 in Cyrillic lookup 79 subtable" questiondown.ss01
Substitution2: "'ss01' Style Set 1 in Greek lookup 78 subtable" questiondown.ss01
Substitution2: "'ss01' Style Set 1 lookup 77 subtable" questiondown.ss01
Substitution2: "'salt' Stylistic Alternatives in Latin lookup 76 subtable" questiondown.ss01
Substitution2: "'salt' Stylistic Alternatives in Cyrillic lookup 75 subtable" questiondown.ss01
Substitution2: "'salt' Stylistic Alternatives in Greek lookup 74 subtable" questiondown.ss01
Substitution2: "'salt' Stylistic Alternatives lookup 73 subtable" questiondown.ss01
Substitution2: "'case' Case-Sensitive Forms in Latin lookup 68 subtable" questiondown.case
Substitution2: "'case' Case-Sensitive Forms in Cyrillic lookup 67 subtable" questiondown.case
Substitution2: "'case' Case-Sensitive Forms in Greek lookup 66 subtable" questiondown.case
Substitution2: "'case' Case-Sensitive Forms lookup 65 subtable" questiondown.case
AlternateSubs2: "'aalt' Access All Alternates lookup 1 subtable" questiondown.case questiondown.ss01
EndChar

StartChar: Agrave
Encoding: 192 192 130
Width: 611
Flags: MW
HStem: 0 21G<12 93 12 12 518 599 518 518> 161 66<173 439 173 461 150 439> 692 20G<274 338 338 338>
LayerCount: 2
Fore
SplineSet
599 0 m 1
 518 0 l 1
 461 161 l 1
 150 161 l 1
 93 0 l 1
 12 0 l 1
 274 712 l 1
 338 712 l 1
 599 0 l 1
439 227 m 1
 307 603 l 1
 173 227 l 1
 439 227 l 1
353 780 m 1xe0
 284 780 l 1
 179 934 l 1
 262 934 l 1
 353 780 l 1xe0
EndSplineSet
Validated: 1
Position2: "'cpsp' Capital Spacing in Latin lookup 3 subtable" dx=5 dy=0 dh=10 dv=0
Position2: "'cpsp' Capital Spacing in Cyrillic lookup 2 subtable" dx=5 dy=0 dh=10 dv=0
Position2: "'cpsp' Capital Spacing in Greek lookup 1 subtable" dx=5 dy=0 dh=10 dv=0
Position2: "'cpsp' Capital Spacing lookup 0 subtable" dx=5 dy=0 dh=10 dv=0
EndChar

StartChar: Aacute
Encoding: 193 193 131
Width: 611
Flags: MW
HStem: 0 21G<12 93 12 12 518 599 518 518> 161 66<173 439 173 461 150 439> 692 20G<274 338 338 338>
LayerCount: 2
Fore
SplineSet
599 0 m 1
 518 0 l 1
 461 161 l 1
 150 161 l 1
 93 0 l 1
 12 0 l 1
 274 712 l 1
 338 712 l 1
 599 0 l 1
439 227 m 1
 307 603 l 1
 173 227 l 1
 439 227 l 1
425 934 m 1xe0
 320 780 l 1
 251 780 l 1
 342 934 l 1
 425 934 l 1xe0
EndSplineSet
Validated: 1
Position2: "'cpsp' Capital Spacing in Latin lookup 3 subtable" dx=5 dy=0 dh=10 dv=0
Position2: "'cpsp' Capital Spacing in Cyrillic lookup 2 subtable" dx=5 dy=0 dh=10 dv=0
Position2: "'cpsp' Capital Spacing in Greek lookup 1 subtable" dx=5 dy=0 dh=10 dv=0
Position2: "'cpsp' Capital Spacing lookup 0 subtable" dx=5 dy=0 dh=10 dv=0
EndChar

StartChar: Acircumflex
Encoding: 194 194 132
Width: 611
Flags: MW
HStem: 0 21G<12 93 12 12 518 599 518 518> 161 66<173 439 173 461 150 439> 692 20G<274 338 338 338>
LayerCount: 2
Fore
SplineSet
599 0 m 1
 518 0 l 1
 461 161 l 1
 150 161 l 1
 93 0 l 1
 12 0 l 1
 274 712 l 1
 338 712 l 1
 599 0 l 1
439 227 m 1
 307 603 l 1
 173 227 l 1
 439 227 l 1
461 780 m 1xe0
 392 780 l 1
 302 885 l 1
 211 780 l 1
 142 780 l 1
 268 933 l 1
 336 933 l 1
 461 780 l 1xe0
EndSplineSet
Validated: 1
Position2: "'cpsp' Capital Spacing in Latin lookup 3 subtable" dx=5 dy=0 dh=10 dv=0
Position2: "'cpsp' Capital Spacing in Cyrillic lookup 2 subtable" dx=5 dy=0 dh=10 dv=0
Position2: "'cpsp' Capital Spacing in Greek lookup 1 subtable" dx=5 dy=0 dh=10 dv=0
Position2: "'cpsp' Capital Spacing lookup 0 subtable" dx=5 dy=0 dh=10 dv=0
EndChar

StartChar: Atilde
Encoding: 195 195 133
Width: 611
Flags: MW
HStem: 0 21G<12 93 12 12 518 599 518 518> 161 66<173 439 173 461 150 439> 692 20G<274 338 338 338>
LayerCount: 2
Fore
SplineSet
599 0 m 1
 518 0 l 1
 461 161 l 1
 150 161 l 1
 93 0 l 1
 12 0 l 1
 274 712 l 1
 338 712 l 1
 599 0 l 1
439 227 m 1
 307 603 l 1
 173 227 l 1
 439 227 l 1
459 844 m 1xe0
 413 799 387 794 364 794 c 0
 335 794 317 803 293 817 c 0
 274 828 257 838 237 838 c 0
 220 838 207 835 178 806 c 1
 141 842 l 1
 186 887 212 893 236 893 c 0
 265 893 282 885 307 869 c 0
 328 856 343 849 363 849 c 0
 378 849 392 851 422 881 c 1
 459 844 l 1xe0
EndSplineSet
Validated: 1
Position2: "'cpsp' Capital Spacing in Latin lookup 3 subtable" dx=5 dy=0 dh=10 dv=0
Position2: "'cpsp' Capital Spacing in Cyrillic lookup 2 subtable" dx=5 dy=0 dh=10 dv=0
Position2: "'cpsp' Capital Spacing in Greek lookup 1 subtable" dx=5 dy=0 dh=10 dv=0
Position2: "'cpsp' Capital Spacing lookup 0 subtable" dx=5 dy=0 dh=10 dv=0
EndChar

StartChar: Adieresis
Encoding: 196 196 134
Width: 611
Flags: MW
HStem: 0 21G<12 93 12 12 518 599 518 518> 161 66<173 439 173 461 150 439> 692 20G<274 338 338 338>
LayerCount: 2
Fore
SplineSet
599 0 m 1
 518 0 l 1
 461 161 l 1
 150 161 l 1
 93 0 l 1
 12 0 l 1
 274 712 l 1
 338 712 l 1
 599 0 l 1
439 227 m 1
 307 603 l 1
 173 227 l 1
 439 227 l 1
448 789 m 1xe0
 376 789 l 1
 376 878 l 1
 448 878 l 1
 448 789 l 1xe0
236 789 m 1
 164 789 l 1
 164 878 l 1
 236 878 l 1
 236 789 l 1
EndSplineSet
Validated: 1
Substitution2: "'ss01' Style Set 1 in Latin lookup 80 subtable" Adieresis.ss01
Substitution2: "'ss01' Style Set 1 in Cyrillic lookup 79 subtable" Adieresis.ss01
Substitution2: "'ss01' Style Set 1 in Greek lookup 78 subtable" Adieresis.ss01
Substitution2: "'ss01' Style Set 1 lookup 77 subtable" Adieresis.ss01
Substitution2: "'salt' Stylistic Alternatives in Latin lookup 76 subtable" Adieresis.ss01
Substitution2: "'salt' Stylistic Alternatives in Cyrillic lookup 75 subtable" Adieresis.ss01
Substitution2: "'salt' Stylistic Alternatives in Greek lookup 74 subtable" Adieresis.ss01
Substitution2: "'salt' Stylistic Alternatives lookup 73 subtable" Adieresis.ss01
Substitution2: "'aalt' Access All Alternates lookup 0 subtable" Adieresis.ss01
Position2: "'cpsp' Capital Spacing in Latin lookup 3 subtable" dx=5 dy=0 dh=10 dv=0
Position2: "'cpsp' Capital Spacing in Cyrillic lookup 2 subtable" dx=5 dy=0 dh=10 dv=0
Position2: "'cpsp' Capital Spacing in Greek lookup 1 subtable" dx=5 dy=0 dh=10 dv=0
Position2: "'cpsp' Capital Spacing lookup 0 subtable" dx=5 dy=0 dh=10 dv=0
EndChar

StartChar: Aring
Encoding: 197 197 135
Width: 611
Flags: MW
HStem: 0 21G<12 93 12 12 518 599 518 518> 161 66<173 439 173 461 150 439> 692 20G<274 338 338 338>
LayerCount: 2
Fore
SplineSet
599 0 m 1
 518 0 l 1
 461 161 l 1
 150 161 l 1
 93 0 l 1
 12 0 l 1
 274 712 l 1
 338 712 l 1
 599 0 l 1
439 227 m 1
 307 603 l 1
 173 227 l 1
 439 227 l 1
420 867 m 0xe0
 420 802 367 748 302 748 c 0
 237 748 184 802 184 867 c 0
 184 932 237 985 302 985 c 0
 367 985 420 933 420 867 c 0xe0
371 867 m 0
 371 905 340 935 302 935 c 0
 264 935 233 905 233 867 c 0
 233 829 264 798 302 798 c 0
 340 798 371 829 371 867 c 0
EndSplineSet
Validated: 1
Position2: "'cpsp' Capital Spacing in Latin lookup 3 subtable" dx=5 dy=0 dh=10 dv=0
Position2: "'cpsp' Capital Spacing in Cyrillic lookup 2 subtable" dx=5 dy=0 dh=10 dv=0
Position2: "'cpsp' Capital Spacing in Greek lookup 1 subtable" dx=5 dy=0 dh=10 dv=0
Position2: "'cpsp' Capital Spacing lookup 0 subtable" dx=5 dy=0 dh=10 dv=0
EndChar

StartChar: AE
Encoding: 198 198 136
Width: 922
Flags: MW
HStem: 0 68<501 867 501 867> 169 66<212 426 212 426 179 426> 323 68<501 813 501 813> 644 68<426 426 501 867 501 501>
VStem: 426 75<68 169 169 169 235 323 391 644>
LayerCount: 2
Fore
SplineSet
867 0 m 1
 426 0 l 1
 426 169 l 1
 179 169 l 1
 91 0 l 1
 8 0 l 1
 384 712 l 1
 867 712 l 1
 867 644 l 1
 501 644 l 1
 501 391 l 1
 813 391 l 1
 813 323 l 1
 501 323 l 1
 501 68 l 1
 867 68 l 1
 867 0 l 1
426 235 m 1
 426 644 l 1
 212 235 l 1
 426 235 l 1
EndSplineSet
Validated: 1
Position2: "'cpsp' Capital Spacing in Latin lookup 3 subtable" dx=5 dy=0 dh=10 dv=0
Position2: "'cpsp' Capital Spacing in Cyrillic lookup 2 subtable" dx=5 dy=0 dh=10 dv=0
Position2: "'cpsp' Capital Spacing in Greek lookup 1 subtable" dx=5 dy=0 dh=10 dv=0
Position2: "'cpsp' Capital Spacing lookup 0 subtable" dx=5 dy=0 dh=10 dv=0
EndChar

StartChar: Ccedilla
Encoding: 199 199 137
Width: 637
Flags: MW
HStem: -6 68<301 369.5 301 389> 650 68<301 369.5>
VStem: 76 76<283 429 283 437.5>
LayerCount: 2
Fore
SplineSet
572 206 m 1
 547 73 453 -6 325 -6 c 0
 251 -6 191 20 147 64 c 0
 80 131 76 193 76 356 c 0
 76 519 80 581 147 648 c 0
 191 692 251 718 325 718 c 0
 454 718 547 639 572 506 c 1
 494 506 l 1
 475 594 414 650 325 650 c 0
 277 650 235 633 202 600 c 0
 157 554 152 502 152 356 c 0
 152 210 157 158 202 112 c 0
 235 79 277 62 325 62 c 0
 414 62 477 118 496 206 c 1
 572 206 l 1
370 -67 m 1xe0
 311 -216 l 1
 232 -216 l 1
 303 -67 l 1
 370 -67 l 1xe0
EndSplineSet
Validated: 1
Substitution2: "'ss01' Style Set 1 in Latin lookup 80 subtable" Ccedilla.ss01
Substitution2: "'ss01' Style Set 1 in Cyrillic lookup 79 subtable" Ccedilla.ss01
Substitution2: "'ss01' Style Set 1 in Greek lookup 78 subtable" Ccedilla.ss01
Substitution2: "'ss01' Style Set 1 lookup 77 subtable" Ccedilla.ss01
Substitution2: "'salt' Stylistic Alternatives in Latin lookup 76 subtable" Ccedilla.ss01
Substitution2: "'salt' Stylistic Alternatives in Cyrillic lookup 75 subtable" Ccedilla.ss01
Substitution2: "'salt' Stylistic Alternatives in Greek lookup 74 subtable" Ccedilla.ss01
Substitution2: "'salt' Stylistic Alternatives lookup 73 subtable" Ccedilla.ss01
Substitution2: "'aalt' Access All Alternates lookup 0 subtable" Ccedilla.ss01
Position2: "'cpsp' Capital Spacing in Latin lookup 3 subtable" dx=5 dy=0 dh=10 dv=0
Position2: "'cpsp' Capital Spacing in Cyrillic lookup 2 subtable" dx=5 dy=0 dh=10 dv=0
Position2: "'cpsp' Capital Spacing in Greek lookup 1 subtable" dx=5 dy=0 dh=10 dv=0
Position2: "'cpsp' Capital Spacing lookup 0 subtable" dx=5 dy=0 dh=10 dv=0
EndChar

StartChar: Egrave
Encoding: 200 200 138
Width: 600
Flags: MW
HStem: 0 68<179 545 179 545> 325 68<179 491 179 491> 644 68<179 545 179 179>
VStem: 103 76<68 325 393 644>
LayerCount: 2
Fore
SplineSet
545 0 m 1
 103 0 l 1
 103 712 l 1
 545 712 l 1
 545 644 l 1
 179 644 l 1
 179 393 l 1
 491 393 l 1
 491 325 l 1
 179 325 l 1
 179 68 l 1
 545 68 l 1
 545 0 l 1
364 780 m 1xf0
 295 780 l 1
 190 934 l 1
 273 934 l 1
 364 780 l 1xf0
EndSplineSet
Validated: 1
Position2: "'cpsp' Capital Spacing in Latin lookup 3 subtable" dx=5 dy=0 dh=10 dv=0
Position2: "'cpsp' Capital Spacing in Cyrillic lookup 2 subtable" dx=5 dy=0 dh=10 dv=0
Position2: "'cpsp' Capital Spacing in Greek lookup 1 subtable" dx=5 dy=0 dh=10 dv=0
Position2: "'cpsp' Capital Spacing lookup 0 subtable" dx=5 dy=0 dh=10 dv=0
EndChar

StartChar: Eacute
Encoding: 201 201 139
Width: 600
Flags: MW
HStem: 0 68<179 545 179 545> 325 68<179 491 179 491> 644 68<179 545 179 179>
VStem: 103 76<68 325 393 644>
LayerCount: 2
Fore
SplineSet
545 0 m 1
 103 0 l 1
 103 712 l 1
 545 712 l 1
 545 644 l 1
 179 644 l 1
 179 393 l 1
 491 393 l 1
 491 325 l 1
 179 325 l 1
 179 68 l 1
 545 68 l 1
 545 0 l 1
436 934 m 1xf0
 331 780 l 1
 262 780 l 1
 353 934 l 1
 436 934 l 1xf0
EndSplineSet
Validated: 1
Position2: "'cpsp' Capital Spacing in Latin lookup 3 subtable" dx=5 dy=0 dh=10 dv=0
Position2: "'cpsp' Capital Spacing in Cyrillic lookup 2 subtable" dx=5 dy=0 dh=10 dv=0
Position2: "'cpsp' Capital Spacing in Greek lookup 1 subtable" dx=5 dy=0 dh=10 dv=0
Position2: "'cpsp' Capital Spacing lookup 0 subtable" dx=5 dy=0 dh=10 dv=0
EndChar

StartChar: Ecircumflex
Encoding: 202 202 140
Width: 600
Flags: MW
HStem: 0 68<179 545 179 545> 325 68<179 491 179 491> 644 68<179 545 179 179>
VStem: 103 76<68 325 393 644>
LayerCount: 2
Fore
SplineSet
545 0 m 1
 103 0 l 1
 103 712 l 1
 545 712 l 1
 545 644 l 1
 179 644 l 1
 179 393 l 1
 491 393 l 1
 491 325 l 1
 179 325 l 1
 179 68 l 1
 545 68 l 1
 545 0 l 1
472 780 m 1xf0
 403 780 l 1
 313 885 l 1
 222 780 l 1
 153 780 l 1
 279 933 l 1
 347 933 l 1
 472 780 l 1xf0
EndSplineSet
Validated: 1
Position2: "'cpsp' Capital Spacing in Latin lookup 3 subtable" dx=5 dy=0 dh=10 dv=0
Position2: "'cpsp' Capital Spacing in Cyrillic lookup 2 subtable" dx=5 dy=0 dh=10 dv=0
Position2: "'cpsp' Capital Spacing in Greek lookup 1 subtable" dx=5 dy=0 dh=10 dv=0
Position2: "'cpsp' Capital Spacing lookup 0 subtable" dx=5 dy=0 dh=10 dv=0
EndChar

StartChar: Edieresis
Encoding: 203 203 141
Width: 600
Flags: MW
HStem: 0 68<179 545 179 545> 325 68<179 491 179 491> 644 68<179 545 179 179>
VStem: 103 76<68 325 393 644>
LayerCount: 2
Fore
SplineSet
545 0 m 1
 103 0 l 1
 103 712 l 1
 545 712 l 1
 545 644 l 1
 179 644 l 1
 179 393 l 1
 491 393 l 1
 491 325 l 1
 179 325 l 1
 179 68 l 1
 545 68 l 1
 545 0 l 1
455 789 m 1xf0
 383 789 l 1
 383 878 l 1
 455 878 l 1
 455 789 l 1xf0
243 789 m 1
 171 789 l 1
 171 878 l 1
 243 878 l 1
 243 789 l 1
EndSplineSet
Validated: 1
Substitution2: "'ss01' Style Set 1 in Latin lookup 80 subtable" Edieresis.ss01
Substitution2: "'ss01' Style Set 1 in Cyrillic lookup 79 subtable" Edieresis.ss01
Substitution2: "'ss01' Style Set 1 in Greek lookup 78 subtable" Edieresis.ss01
Substitution2: "'ss01' Style Set 1 lookup 77 subtable" Edieresis.ss01
Substitution2: "'salt' Stylistic Alternatives in Latin lookup 76 subtable" Edieresis.ss01
Substitution2: "'salt' Stylistic Alternatives in Cyrillic lookup 75 subtable" Edieresis.ss01
Substitution2: "'salt' Stylistic Alternatives in Greek lookup 74 subtable" Edieresis.ss01
Substitution2: "'salt' Stylistic Alternatives lookup 73 subtable" Edieresis.ss01
Substitution2: "'aalt' Access All Alternates lookup 0 subtable" Edieresis.ss01
Position2: "'cpsp' Capital Spacing in Latin lookup 3 subtable" dx=5 dy=0 dh=10 dv=0
Position2: "'cpsp' Capital Spacing in Cyrillic lookup 2 subtable" dx=5 dy=0 dh=10 dv=0
Position2: "'cpsp' Capital Spacing in Greek lookup 1 subtable" dx=5 dy=0 dh=10 dv=0
Position2: "'cpsp' Capital Spacing lookup 0 subtable" dx=5 dy=0 dh=10 dv=0
EndChar

StartChar: Igrave
Encoding: 204 204 142
Width: 282
Flags: MW
HStem: 0 21G<103 179 103 103> 692 20G<103 179 179 179>
VStem: 103 76<0 712>
LayerCount: 2
Fore
SplineSet
179 0 m 1
 103 0 l 1
 103 712 l 1
 179 712 l 1
 179 0 l 1
181 780 m 1xe0
 112 780 l 1
 7 934 l 1
 90 934 l 1
 181 780 l 1xe0
EndSplineSet
Validated: 1
Position2: "'cpsp' Capital Spacing in Latin lookup 3 subtable" dx=5 dy=0 dh=10 dv=0
Position2: "'cpsp' Capital Spacing in Cyrillic lookup 2 subtable" dx=5 dy=0 dh=10 dv=0
Position2: "'cpsp' Capital Spacing in Greek lookup 1 subtable" dx=5 dy=0 dh=10 dv=0
Position2: "'cpsp' Capital Spacing lookup 0 subtable" dx=5 dy=0 dh=10 dv=0
EndChar

StartChar: Iacute
Encoding: 205 205 143
Width: 282
Flags: MW
HStem: 0 21G<103 179 103 103> 692 20G<103 179 179 179>
VStem: 103 76<0 712>
LayerCount: 2
Fore
SplineSet
179 0 m 1
 103 0 l 1
 103 712 l 1
 179 712 l 1
 179 0 l 1
275 934 m 1xe0
 170 780 l 1
 101 780 l 1
 192 934 l 1
 275 934 l 1xe0
EndSplineSet
Validated: 1
Position2: "'cpsp' Capital Spacing in Latin lookup 3 subtable" dx=5 dy=0 dh=10 dv=0
Position2: "'cpsp' Capital Spacing in Cyrillic lookup 2 subtable" dx=5 dy=0 dh=10 dv=0
Position2: "'cpsp' Capital Spacing in Greek lookup 1 subtable" dx=5 dy=0 dh=10 dv=0
Position2: "'cpsp' Capital Spacing lookup 0 subtable" dx=5 dy=0 dh=10 dv=0
EndChar

StartChar: Icircumflex
Encoding: 206 206 144
Width: 282
Flags: MW
HStem: 0 21G<103 179 103 103> 692 20G<103 179 179 179>
VStem: 103 76<0 712>
LayerCount: 2
Fore
SplineSet
179 0 m 1
 103 0 l 1
 103 712 l 1
 179 712 l 1
 179 0 l 1
299 780 m 1xe0
 230 780 l 1
 140 885 l 1
 49 780 l 1
 -20 780 l 1
 106 933 l 1
 174 933 l 1
 299 780 l 1xe0
EndSplineSet
Validated: 1
Position2: "'cpsp' Capital Spacing in Latin lookup 3 subtable" dx=5 dy=0 dh=10 dv=0
Position2: "'cpsp' Capital Spacing in Cyrillic lookup 2 subtable" dx=5 dy=0 dh=10 dv=0
Position2: "'cpsp' Capital Spacing in Greek lookup 1 subtable" dx=5 dy=0 dh=10 dv=0
Position2: "'cpsp' Capital Spacing lookup 0 subtable" dx=5 dy=0 dh=10 dv=0
EndChar

StartChar: Idieresis
Encoding: 207 207 145
Width: 282
Flags: MW
HStem: 0 21G<103 179 103 103> 692 20G<103 179 179 179>
VStem: 103 76<0 712>
LayerCount: 2
Fore
SplineSet
179 0 m 1
 103 0 l 1
 103 712 l 1
 179 712 l 1
 179 0 l 1
283 789 m 1xe0
 211 789 l 1
 211 878 l 1
 283 878 l 1
 283 789 l 1xe0
71 789 m 1
 -1 789 l 1
 -1 878 l 1
 71 878 l 1
 71 789 l 1
EndSplineSet
Validated: 1
Substitution2: "'ss01' Style Set 1 in Latin lookup 80 subtable" Idieresis.ss01
Substitution2: "'ss01' Style Set 1 in Cyrillic lookup 79 subtable" Idieresis.ss01
Substitution2: "'ss01' Style Set 1 in Greek lookup 78 subtable" Idieresis.ss01
Substitution2: "'ss01' Style Set 1 lookup 77 subtable" Idieresis.ss01
Substitution2: "'salt' Stylistic Alternatives in Latin lookup 76 subtable" Idieresis.ss01
Substitution2: "'salt' Stylistic Alternatives in Cyrillic lookup 75 subtable" Idieresis.ss01
Substitution2: "'salt' Stylistic Alternatives in Greek lookup 74 subtable" Idieresis.ss01
Substitution2: "'salt' Stylistic Alternatives lookup 73 subtable" Idieresis.ss01
Substitution2: "'aalt' Access All Alternates lookup 0 subtable" Idieresis.ss01
Position2: "'cpsp' Capital Spacing in Latin lookup 3 subtable" dx=5 dy=0 dh=10 dv=0
Position2: "'cpsp' Capital Spacing in Cyrillic lookup 2 subtable" dx=5 dy=0 dh=10 dv=0
Position2: "'cpsp' Capital Spacing in Greek lookup 1 subtable" dx=5 dy=0 dh=10 dv=0
Position2: "'cpsp' Capital Spacing lookup 0 subtable" dx=5 dy=0 dh=10 dv=0
EndChar

StartChar: Eth
Encoding: 208 208 146
Width: 687
Flags: MW
HStem: 0 68<193 348 348 361> 330 59<39 117 39 117 193 355> 644 68<193 348 193 193>
VStem: 117 76<68 330 68 330 68 330 389 644> 535 76<306.5 405.5>
LayerCount: 2
Fore
SplineSet
611 356 m 0
 611 247 609 142 548 75 c 0
 500 23 441 0 361 0 c 2
 117 0 l 1
 117 330 l 1
 39 330 l 1
 39 389 l 1
 117 389 l 1
 117 712 l 1
 361 712 l 2
 441 712 500 689 548 637 c 0
 611 569 611 465 611 356 c 0
535 356 m 0
 535 455 534 543 488 592 c 0
 452 632 402 644 348 644 c 2
 193 644 l 1
 193 389 l 1
 355 389 l 1
 355 330 l 1
 193 330 l 1
 193 68 l 1
 348 68 l 2
 402 68 452 80 488 120 c 0
 534 169 535 257 535 356 c 0
EndSplineSet
Validated: 1
Position2: "'cpsp' Capital Spacing in Latin lookup 3 subtable" dx=5 dy=0 dh=10 dv=0
Position2: "'cpsp' Capital Spacing in Cyrillic lookup 2 subtable" dx=5 dy=0 dh=10 dv=0
Position2: "'cpsp' Capital Spacing in Greek lookup 1 subtable" dx=5 dy=0 dh=10 dv=0
Position2: "'cpsp' Capital Spacing lookup 0 subtable" dx=5 dy=0 dh=10 dv=0
EndChar

StartChar: Ntilde
Encoding: 209 209 147
Width: 732
Flags: MW
HStem: 0 21G<103 179 103 103 557 629 557 557> 692 20G<103 175 175 175 553 629 629 629>
VStem: 103 76<0 571 0 712> 553 76<143 712>
LayerCount: 2
Fore
SplineSet
629 0 m 1
 557 0 l 1
 179 571 l 1
 179 0 l 1
 103 0 l 1
 103 712 l 1
 175 712 l 1
 553 143 l 1
 553 712 l 1
 629 712 l 1
 629 0 l 1
523 844 m 1xf0
 477 799 451 794 428 794 c 0
 399 794 381 803 357 817 c 0
 338 828 321 838 301 838 c 0
 284 838 271 835 242 806 c 1
 205 842 l 1
 250 887 276 893 300 893 c 0
 329 893 346 885 371 869 c 0
 392 856 407 849 427 849 c 0
 442 849 456 851 486 881 c 1
 523 844 l 1xf0
EndSplineSet
Validated: 1
Position2: "'cpsp' Capital Spacing in Latin lookup 3 subtable" dx=5 dy=0 dh=10 dv=0
Position2: "'cpsp' Capital Spacing in Cyrillic lookup 2 subtable" dx=5 dy=0 dh=10 dv=0
Position2: "'cpsp' Capital Spacing in Greek lookup 1 subtable" dx=5 dy=0 dh=10 dv=0
Position2: "'cpsp' Capital Spacing lookup 0 subtable" dx=5 dy=0 dh=10 dv=0
EndChar

StartChar: Ograve
Encoding: 210 210 148
Width: 650
Flags: MW
HStem: -6 68<301 349 301 362> 650 68<301 349>
VStem: 76 76<283 429 283 437.5> 498 76<283 429>
LayerCount: 2
Fore
SplineSet
574 356 m 0
 574 193 569 131 502 64 c 0
 458 20 399 -6 325 -6 c 0
 251 -6 191 20 147 64 c 0
 80 131 76 193 76 356 c 0
 76 519 80 581 147 648 c 0
 191 692 251 718 325 718 c 0
 399 718 458 692 502 648 c 0
 569 581 574 519 574 356 c 0
498 356 m 0
 498 502 493 554 448 600 c 0
 415 633 373 650 325 650 c 0
 277 650 235 633 202 600 c 0
 157 554 152 502 152 356 c 0
 152 210 157 158 202 112 c 0
 235 79 277 62 325 62 c 0
 373 62 415 79 448 112 c 0
 493 158 498 210 498 356 c 0
376 780 m 1xf0
 307 780 l 1
 202 934 l 1
 285 934 l 1
 376 780 l 1xf0
EndSplineSet
Validated: 1
Position2: "'cpsp' Capital Spacing in Latin lookup 3 subtable" dx=5 dy=0 dh=10 dv=0
Position2: "'cpsp' Capital Spacing in Cyrillic lookup 2 subtable" dx=5 dy=0 dh=10 dv=0
Position2: "'cpsp' Capital Spacing in Greek lookup 1 subtable" dx=5 dy=0 dh=10 dv=0
Position2: "'cpsp' Capital Spacing lookup 0 subtable" dx=5 dy=0 dh=10 dv=0
EndChar

StartChar: Oacute
Encoding: 211 211 149
Width: 650
Flags: MW
HStem: -6 68<301 349 301 362> 650 68<301 349>
VStem: 76 76<283 429 283 437.5> 498 76<283 429>
LayerCount: 2
Fore
SplineSet
574 356 m 0
 574 193 569 131 502 64 c 0
 458 20 399 -6 325 -6 c 0
 251 -6 191 20 147 64 c 0
 80 131 76 193 76 356 c 0
 76 519 80 581 147 648 c 0
 191 692 251 718 325 718 c 0
 399 718 458 692 502 648 c 0
 569 581 574 519 574 356 c 0
498 356 m 0
 498 502 493 554 448 600 c 0
 415 633 373 650 325 650 c 0
 277 650 235 633 202 600 c 0
 157 554 152 502 152 356 c 0
 152 210 157 158 202 112 c 0
 235 79 277 62 325 62 c 0
 373 62 415 79 448 112 c 0
 493 158 498 210 498 356 c 0
448 934 m 1xf0
 343 780 l 1
 274 780 l 1
 365 934 l 1
 448 934 l 1xf0
EndSplineSet
Validated: 1
Position2: "'cpsp' Capital Spacing in Latin lookup 3 subtable" dx=5 dy=0 dh=10 dv=0
Position2: "'cpsp' Capital Spacing in Cyrillic lookup 2 subtable" dx=5 dy=0 dh=10 dv=0
Position2: "'cpsp' Capital Spacing in Greek lookup 1 subtable" dx=5 dy=0 dh=10 dv=0
Position2: "'cpsp' Capital Spacing lookup 0 subtable" dx=5 dy=0 dh=10 dv=0
EndChar

StartChar: Ocircumflex
Encoding: 212 212 150
Width: 650
Flags: MW
HStem: -6 68<301 349 301 362> 650 68<301 349>
VStem: 76 76<283 429 283 437.5> 498 76<283 429>
LayerCount: 2
Fore
SplineSet
574 356 m 0
 574 193 569 131 502 64 c 0
 458 20 399 -6 325 -6 c 0
 251 -6 191 20 147 64 c 0
 80 131 76 193 76 356 c 0
 76 519 80 581 147 648 c 0
 191 692 251 718 325 718 c 0
 399 718 458 692 502 648 c 0
 569 581 574 519 574 356 c 0
498 356 m 0
 498 502 493 554 448 600 c 0
 415 633 373 650 325 650 c 0
 277 650 235 633 202 600 c 0
 157 554 152 502 152 356 c 0
 152 210 157 158 202 112 c 0
 235 79 277 62 325 62 c 0
 373 62 415 79 448 112 c 0
 493 158 498 210 498 356 c 0
484 780 m 1xf0
 415 780 l 1
 325 885 l 1
 234 780 l 1
 165 780 l 1
 291 933 l 1
 359 933 l 1
 484 780 l 1xf0
EndSplineSet
Validated: 1
Position2: "'cpsp' Capital Spacing in Latin lookup 3 subtable" dx=5 dy=0 dh=10 dv=0
Position2: "'cpsp' Capital Spacing in Cyrillic lookup 2 subtable" dx=5 dy=0 dh=10 dv=0
Position2: "'cpsp' Capital Spacing in Greek lookup 1 subtable" dx=5 dy=0 dh=10 dv=0
Position2: "'cpsp' Capital Spacing lookup 0 subtable" dx=5 dy=0 dh=10 dv=0
EndChar

StartChar: Otilde
Encoding: 213 213 151
Width: 650
Flags: MW
HStem: -6 68<301 349 301 362> 650 68<301 349>
VStem: 76 76<283 429 283 437.5> 498 76<283 429>
LayerCount: 2
Fore
SplineSet
574 356 m 0
 574 193 569 131 502 64 c 0
 458 20 399 -6 325 -6 c 0
 251 -6 191 20 147 64 c 0
 80 131 76 193 76 356 c 0
 76 519 80 581 147 648 c 0
 191 692 251 718 325 718 c 0
 399 718 458 692 502 648 c 0
 569 581 574 519 574 356 c 0
498 356 m 0
 498 502 493 554 448 600 c 0
 415 633 373 650 325 650 c 0
 277 650 235 633 202 600 c 0
 157 554 152 502 152 356 c 0
 152 210 157 158 202 112 c 0
 235 79 277 62 325 62 c 0
 373 62 415 79 448 112 c 0
 493 158 498 210 498 356 c 0
482 844 m 1xf0
 436 799 410 794 387 794 c 0
 358 794 340 803 316 817 c 0
 297 828 280 838 260 838 c 0
 243 838 230 835 201 806 c 1
 164 842 l 1
 209 887 235 893 259 893 c 0
 288 893 305 885 330 869 c 0
 351 856 366 849 386 849 c 0
 401 849 415 851 445 881 c 1
 482 844 l 1xf0
EndSplineSet
Validated: 1
Position2: "'cpsp' Capital Spacing in Latin lookup 3 subtable" dx=5 dy=0 dh=10 dv=0
Position2: "'cpsp' Capital Spacing in Cyrillic lookup 2 subtable" dx=5 dy=0 dh=10 dv=0
Position2: "'cpsp' Capital Spacing in Greek lookup 1 subtable" dx=5 dy=0 dh=10 dv=0
Position2: "'cpsp' Capital Spacing lookup 0 subtable" dx=5 dy=0 dh=10 dv=0
EndChar

StartChar: Odieresis
Encoding: 214 214 152
Width: 650
Flags: MW
HStem: -6 68<301 349 301 362> 650 68<301 349>
VStem: 76 76<283 429 283 437.5> 498 76<283 429>
LayerCount: 2
Fore
SplineSet
574 356 m 0
 574 193 569 131 502 64 c 0
 458 20 399 -6 325 -6 c 0
 251 -6 191 20 147 64 c 0
 80 131 76 193 76 356 c 0
 76 519 80 581 147 648 c 0
 191 692 251 718 325 718 c 0
 399 718 458 692 502 648 c 0
 569 581 574 519 574 356 c 0
498 356 m 0
 498 502 493 554 448 600 c 0
 415 633 373 650 325 650 c 0
 277 650 235 633 202 600 c 0
 157 554 152 502 152 356 c 0
 152 210 157 158 202 112 c 0
 235 79 277 62 325 62 c 0
 373 62 415 79 448 112 c 0
 493 158 498 210 498 356 c 0
467 789 m 1xf0
 395 789 l 1
 395 878 l 1
 467 878 l 1
 467 789 l 1xf0
255 789 m 1
 183 789 l 1
 183 878 l 1
 255 878 l 1
 255 789 l 1
EndSplineSet
Validated: 1
Substitution2: "'ss01' Style Set 1 in Latin lookup 80 subtable" Odieresis.ss01
Substitution2: "'ss01' Style Set 1 in Cyrillic lookup 79 subtable" Odieresis.ss01
Substitution2: "'ss01' Style Set 1 in Greek lookup 78 subtable" Odieresis.ss01
Substitution2: "'ss01' Style Set 1 lookup 77 subtable" Odieresis.ss01
Substitution2: "'salt' Stylistic Alternatives in Latin lookup 76 subtable" Odieresis.ss01
Substitution2: "'salt' Stylistic Alternatives in Cyrillic lookup 75 subtable" Odieresis.ss01
Substitution2: "'salt' Stylistic Alternatives in Greek lookup 74 subtable" Odieresis.ss01
Substitution2: "'salt' Stylistic Alternatives lookup 73 subtable" Odieresis.ss01
Substitution2: "'aalt' Access All Alternates lookup 0 subtable" Odieresis.ss01
Position2: "'cpsp' Capital Spacing in Latin lookup 3 subtable" dx=5 dy=0 dh=10 dv=0
Position2: "'cpsp' Capital Spacing in Cyrillic lookup 2 subtable" dx=5 dy=0 dh=10 dv=0
Position2: "'cpsp' Capital Spacing in Greek lookup 1 subtable" dx=5 dy=0 dh=10 dv=0
Position2: "'cpsp' Capital Spacing lookup 0 subtable" dx=5 dy=0 dh=10 dv=0
EndChar

StartChar: multiply
Encoding: 215 215 153
Width: 522
Flags: MW
HStem: 74 21G<110 110 412 412> 446 20G<110 110 412 412>
LayerCount: 2
Fore
SplineSet
457 119 m 1
 412 74 l 1
 261 225 l 1
 110 74 l 1
 65 119 l 1
 216 270 l 1
 65 421 l 1
 110 466 l 1
 261 314 l 1
 412 466 l 1
 457 421 l 1
 305 270 l 1
 457 119 l 1
EndSplineSet
Validated: 1
EndChar

StartChar: Oslash
Encoding: 216 216 154
Width: 650
Flags: MW
HStem: -44 21G<101 166 101 101> -6 68<307 349 307 362> 650 68<301 343> 736 20G<484 549 549 549>
VStem: 76 76<292.5 429 292.5 437.5> 498 76<283 419.5>
LayerCount: 2
Fore
SplineSet
574 356 m 0
 574 193 571 133 502 64 c 0
 458 20 399 -6 325 -6 c 0
 276 -6 235 5 199 25 c 1
 166 -44 l 1
 101 -44 l 1
 151 60 l 1
 80 129 76 190 76 356 c 0
 76 519 80 581 147 648 c 0
 191 692 251 718 325 718 c 0
 373 718 417 707 450 687 c 1
 484 756 l 1
 549 756 l 1
 499 651 l 1
 571 581 574 519 574 356 c 0
152 356 m 0
 152 229 156 172 187 130 c 1
 421 622 l 1
 395 640 361 650 325 650 c 0
 277 650 234 633 202 600 c 0
 157 554 152 502 152 356 c 0
498 356 m 0
 498 483 494 539 463 582 c 1
 229 90 l 1
 256 72 289 62 325 62 c 0
 373 62 415 79 448 112 c 0
 493 158 498 210 498 356 c 0
EndSplineSet
Validated: 1
Position2: "'cpsp' Capital Spacing in Latin lookup 3 subtable" dx=5 dy=0 dh=10 dv=0
Position2: "'cpsp' Capital Spacing in Cyrillic lookup 2 subtable" dx=5 dy=0 dh=10 dv=0
Position2: "'cpsp' Capital Spacing in Greek lookup 1 subtable" dx=5 dy=0 dh=10 dv=0
Position2: "'cpsp' Capital Spacing lookup 0 subtable" dx=5 dy=0 dh=10 dv=0
EndChar

StartChar: Ugrave
Encoding: 217 217 155
Width: 683
Flags: MW
HStem: -6 68<289 393 289 413> 692 20G<93 169 169 169 514 590 590 590>
VStem: 93 76<235 241 241 712> 514 76<241 712>
LayerCount: 2
Fore
SplineSet
590 235 m 2
 590 93 485 -6 341 -6 c 0
 197 -6 93 93 93 235 c 2
 93 712 l 1
 169 712 l 1
 169 241 l 2
 169 133 237 62 341 62 c 0
 445 62 514 133 514 241 c 2
 514 712 l 1
 590 712 l 1
 590 235 l 2
392 780 m 1xf0
 323 780 l 1
 218 934 l 1
 301 934 l 1
 392 780 l 1xf0
EndSplineSet
Validated: 1
Position2: "'cpsp' Capital Spacing in Latin lookup 3 subtable" dx=5 dy=0 dh=10 dv=0
Position2: "'cpsp' Capital Spacing in Cyrillic lookup 2 subtable" dx=5 dy=0 dh=10 dv=0
Position2: "'cpsp' Capital Spacing in Greek lookup 1 subtable" dx=5 dy=0 dh=10 dv=0
Position2: "'cpsp' Capital Spacing lookup 0 subtable" dx=5 dy=0 dh=10 dv=0
EndChar

StartChar: Uacute
Encoding: 218 218 156
Width: 683
Flags: MW
HStem: -6 68<289 393 289 413> 692 20G<93 169 169 169 514 590 590 590>
VStem: 93 76<235 241 241 712> 514 76<241 712>
LayerCount: 2
Fore
SplineSet
590 235 m 2
 590 93 485 -6 341 -6 c 0
 197 -6 93 93 93 235 c 2
 93 712 l 1
 169 712 l 1
 169 241 l 2
 169 133 237 62 341 62 c 0
 445 62 514 133 514 241 c 2
 514 712 l 1
 590 712 l 1
 590 235 l 2
464 934 m 1xf0
 359 780 l 1
 290 780 l 1
 381 934 l 1
 464 934 l 1xf0
EndSplineSet
Validated: 1
Position2: "'cpsp' Capital Spacing in Latin lookup 3 subtable" dx=5 dy=0 dh=10 dv=0
Position2: "'cpsp' Capital Spacing in Cyrillic lookup 2 subtable" dx=5 dy=0 dh=10 dv=0
Position2: "'cpsp' Capital Spacing in Greek lookup 1 subtable" dx=5 dy=0 dh=10 dv=0
Position2: "'cpsp' Capital Spacing lookup 0 subtable" dx=5 dy=0 dh=10 dv=0
EndChar

StartChar: Ucircumflex
Encoding: 219 219 157
Width: 683
Flags: MW
HStem: -6 68<289 393 289 413> 692 20G<93 169 169 169 514 590 590 590>
VStem: 93 76<235 241 241 712> 514 76<241 712>
LayerCount: 2
Fore
SplineSet
590 235 m 2
 590 93 485 -6 341 -6 c 0
 197 -6 93 93 93 235 c 2
 93 712 l 1
 169 712 l 1
 169 241 l 2
 169 133 237 62 341 62 c 0
 445 62 514 133 514 241 c 2
 514 712 l 1
 590 712 l 1
 590 235 l 2
500 780 m 1xf0
 431 780 l 1
 341 885 l 1
 250 780 l 1
 181 780 l 1
 307 933 l 1
 375 933 l 1
 500 780 l 1xf0
EndSplineSet
Validated: 1
Position2: "'cpsp' Capital Spacing in Latin lookup 3 subtable" dx=5 dy=0 dh=10 dv=0
Position2: "'cpsp' Capital Spacing in Cyrillic lookup 2 subtable" dx=5 dy=0 dh=10 dv=0
Position2: "'cpsp' Capital Spacing in Greek lookup 1 subtable" dx=5 dy=0 dh=10 dv=0
Position2: "'cpsp' Capital Spacing lookup 0 subtable" dx=5 dy=0 dh=10 dv=0
EndChar

StartChar: Udieresis
Encoding: 220 220 158
Width: 683
Flags: MW
HStem: -6 68<289 393 289 413> 692 20G<93 169 169 169 514 590 590 590>
VStem: 93 76<235 241 241 712> 514 76<241 712>
LayerCount: 2
Fore
SplineSet
590 235 m 2
 590 93 485 -6 341 -6 c 0
 197 -6 93 93 93 235 c 2
 93 712 l 1
 169 712 l 1
 169 241 l 2
 169 133 237 62 341 62 c 0
 445 62 514 133 514 241 c 2
 514 712 l 1
 590 712 l 1
 590 235 l 2
483 789 m 1xf0
 411 789 l 1
 411 878 l 1
 483 878 l 1
 483 789 l 1xf0
271 789 m 1
 199 789 l 1
 199 878 l 1
 271 878 l 1
 271 789 l 1
EndSplineSet
Validated: 1
Substitution2: "'ss01' Style Set 1 in Latin lookup 80 subtable" Udieresis.ss01
Substitution2: "'ss01' Style Set 1 in Cyrillic lookup 79 subtable" Udieresis.ss01
Substitution2: "'ss01' Style Set 1 in Greek lookup 78 subtable" Udieresis.ss01
Substitution2: "'ss01' Style Set 1 lookup 77 subtable" Udieresis.ss01
Substitution2: "'salt' Stylistic Alternatives in Latin lookup 76 subtable" Udieresis.ss01
Substitution2: "'salt' Stylistic Alternatives in Cyrillic lookup 75 subtable" Udieresis.ss01
Substitution2: "'salt' Stylistic Alternatives in Greek lookup 74 subtable" Udieresis.ss01
Substitution2: "'salt' Stylistic Alternatives lookup 73 subtable" Udieresis.ss01
Substitution2: "'aalt' Access All Alternates lookup 0 subtable" Udieresis.ss01
Position2: "'cpsp' Capital Spacing in Latin lookup 3 subtable" dx=5 dy=0 dh=10 dv=0
Position2: "'cpsp' Capital Spacing in Cyrillic lookup 2 subtable" dx=5 dy=0 dh=10 dv=0
Position2: "'cpsp' Capital Spacing in Greek lookup 1 subtable" dx=5 dy=0 dh=10 dv=0
Position2: "'cpsp' Capital Spacing lookup 0 subtable" dx=5 dy=0 dh=10 dv=0
EndChar

StartChar: Yacute
Encoding: 221 221 159
Width: 514
Flags: MW
HStem: 0 21G<220 296 220 220> 692 20G<8 90 90 90 424 506 506 506>
VStem: 220 76<0 294 0 294>
LayerCount: 2
Fore
SplineSet
506 712 m 1
 296 294 l 1
 296 0 l 1
 220 0 l 1
 220 294 l 1
 8 712 l 1
 90 712 l 1
 258 371 l 1
 424 712 l 1
 506 712 l 1
380 934 m 1xe0
 275 780 l 1
 206 780 l 1
 297 934 l 1
 380 934 l 1xe0
EndSplineSet
Validated: 1
Position2: "'cpsp' Capital Spacing in Latin lookup 3 subtable" dx=5 dy=0 dh=10 dv=0
Position2: "'cpsp' Capital Spacing in Cyrillic lookup 2 subtable" dx=5 dy=0 dh=10 dv=0
Position2: "'cpsp' Capital Spacing in Greek lookup 1 subtable" dx=5 dy=0 dh=10 dv=0
Position2: "'cpsp' Capital Spacing lookup 0 subtable" dx=5 dy=0 dh=10 dv=0
EndChar

StartChar: Thorn
Encoding: 222 222 160
Width: 642
Flags: MW
HStem: 0 21G<103 179 103 103> 150 68<179 361 361 368 179 361> 500 69<179 361 179 368> 692 20G<103 179 179 179>
VStem: 103 76<0 150 0 218 218 500 569 712> 512 76<312 406>
LayerCount: 2
Fore
SplineSet
588 359 m 0
 588 231 498 150 368 150 c 2
 179 150 l 1
 179 0 l 1
 103 0 l 1
 103 712 l 1
 179 712 l 1
 179 569 l 1
 368 569 l 2
 498 569 588 487 588 359 c 0
512 359 m 0
 512 453 450 500 361 500 c 2
 179 500 l 1
 179 218 l 1
 361 218 l 2
 450 218 512 265 512 359 c 0
EndSplineSet
Validated: 1
Position2: "'cpsp' Capital Spacing in Latin lookup 3 subtable" dx=5 dy=0 dh=10 dv=0
Position2: "'cpsp' Capital Spacing in Cyrillic lookup 2 subtable" dx=5 dy=0 dh=10 dv=0
Position2: "'cpsp' Capital Spacing in Greek lookup 1 subtable" dx=5 dy=0 dh=10 dv=0
Position2: "'cpsp' Capital Spacing lookup 0 subtable" dx=5 dy=0 dh=10 dv=0
EndChar

StartChar: germandbls
Encoding: 223 223 161
Width: 556
Flags: MW
HStem: 0 62<288 328 328 342 288 328> 401 60<288 324 324 332 288 324> 656 63<242 308>
VStem: 90 73<0 521 0 524 0 587> 412 72<149 314 525.5 566.5>
LayerCount: 2
Fore
SplineSet
484 141 m 2
 484 96 470 60 445 36 c 0
 417 11 389 0 342 0 c 2
 288 0 l 1
 288 62 l 1
 328 62 l 2
 356 62 370 69 387 82 c 0
 404 96 412 118 412 149 c 2
 412 318 l 2
 412 347 407 366 391 380 c 0
 377 394 357 401 332 401 c 2
 288 401 l 1
 288 461 l 1
 324 461 l 2
 377 461 412 496 412 552 c 0
 412 581 402 608 381 627 c 0
 361 646 329 656 287 656 c 0
 197 656 163 601 163 521 c 2
 163 0 l 1
 90 0 l 1
 90 524 l 2
 90 650 168 719 291 719 c 0
 398 719 484 668 484 553 c 0
 484 498 460 459 421 434 c 1
 469 410 484 377 484 314 c 2
 484 141 l 2
EndSplineSet
Validated: 1
EndChar

StartChar: agrave
Encoding: 224 224 162
Width: 611
Flags: HMW
HStem: 0 21G<12 93 12 12 518 599 518 518> 161 66<173 439 173 461 150 439> 692 20G<274 338 338 338>
LayerCount: 2
Fore
SplineSet
568 0 m 5
 488 0 l 5
 300 604 l 5
 110 0 l 5
 30 0 l 5
 264 712 l 5
 334 712 l 5
 568 0 l 5
353 780 m 1xe0
 284 780 l 1
 179 934 l 1
 262 934 l 1
 353 780 l 1xe0
EndSplineSet
Validated: 1
EndChar

StartChar: aacute
Encoding: 225 225 163
Width: 611
Flags: HMW
HStem: 0 21G<12 93 12 12 518 599 518 518> 161 66<173 439 173 461 150 439> 692 20G<274 338 338 338>
LayerCount: 2
Fore
SplineSet
568 0 m 5
 488 0 l 5
 300 604 l 5
 110 0 l 5
 30 0 l 5
 264 712 l 5
 334 712 l 5
 568 0 l 5
599 0 m 1025
425 934 m 1xe0
 320 780 l 1
 251 780 l 1
 342 934 l 1
 425 934 l 1xe0
EndSplineSet
Validated: 1
EndChar

StartChar: acircumflex
Encoding: 226 226 164
Width: 611
Flags: HMW
HStem: 0 21G<12 93 12 12 518 599 518 518> 161 66<173 439 173 461 150 439> 692 20G<274 338 338 338>
LayerCount: 2
Fore
SplineSet
568 0 m 5
 488 0 l 5
 300 604 l 5
 110 0 l 5
 30 0 l 5
 264 712 l 5
 334 712 l 5
 568 0 l 5
461 780 m 1xe0
 392 780 l 1
 302 885 l 1
 211 780 l 1
 142 780 l 1
 268 933 l 1
 336 933 l 1
 461 780 l 1xe0
EndSplineSet
Validated: 1
EndChar

StartChar: atilde
Encoding: 227 227 165
Width: 611
Flags: HMW
HStem: 0 21G<12 93 12 12 518 599 518 518> 161 66<173 439 173 461 150 439> 692 20G<274 338 338 338>
LayerCount: 2
Fore
SplineSet
568 0 m 5
 488 0 l 5
 300 604 l 5
 110 0 l 5
 30 0 l 5
 264 712 l 5
 334 712 l 5
 568 0 l 5
459 844 m 1xe0
 413 799 387 794 364 794 c 0
 335 794 317 803 293 817 c 0
 274 828 257 838 237 838 c 0
 220 838 207 835 178 806 c 1
 141 842 l 1
 186 887 212 893 236 893 c 0
 265 893 282 885 307 869 c 0
 328 856 343 849 363 849 c 0
 378 849 392 851 422 881 c 1
 459 844 l 1xe0
EndSplineSet
Validated: 1
EndChar

StartChar: adieresis
Encoding: 228 228 166
Width: 611
Flags: HMW
HStem: 0 21G<12 93 12 12 518 599 518 518> 161 66<173 439 173 461 150 439> 692 20G<274 338 338 338>
LayerCount: 2
Fore
SplineSet
568 0 m 5
 488 0 l 5
 300 604 l 5
 110 0 l 5
 30 0 l 5
 264 712 l 5
 334 712 l 5
 568 0 l 5
448 789 m 1xe0
 376 789 l 1
 376 878 l 1
 448 878 l 1
 448 789 l 1xe0
236 789 m 1
 164 789 l 1
 164 878 l 1
 236 878 l 1
 236 789 l 1
EndSplineSet
Validated: 1
Substitution2: "'ss01' Style Set 1 in Latin lookup 80 subtable" adieresis.ss01
Substitution2: "'ss01' Style Set 1 in Cyrillic lookup 79 subtable" adieresis.ss01
Substitution2: "'ss01' Style Set 1 in Greek lookup 78 subtable" adieresis.ss01
Substitution2: "'ss01' Style Set 1 lookup 77 subtable" adieresis.ss01
Substitution2: "'salt' Stylistic Alternatives in Latin lookup 76 subtable" adieresis.ss01
Substitution2: "'salt' Stylistic Alternatives in Cyrillic lookup 75 subtable" adieresis.ss01
Substitution2: "'salt' Stylistic Alternatives in Greek lookup 74 subtable" adieresis.ss01
Substitution2: "'salt' Stylistic Alternatives lookup 73 subtable" adieresis.ss01
Substitution2: "'aalt' Access All Alternates lookup 0 subtable" adieresis.ss01
EndChar

StartChar: aring
Encoding: 229 229 167
Width: 611
Flags: HMW
HStem: 0 21G<12 93 12 12 518 599 518 518> 161 66<173 439 173 461 150 439> 692 20G<274 338 338 338>
LayerCount: 2
Fore
SplineSet
568 0 m 5
 488 0 l 5
 300 604 l 5
 110 0 l 5
 30 0 l 5
 264 712 l 5
 334 712 l 5
 568 0 l 5
420 867 m 0xe0
 420 802 367 748 302 748 c 0
 237 748 184 802 184 867 c 0
 184 932 237 985 302 985 c 0
 367 985 420 933 420 867 c 0xe0
371 867 m 0
 371 905 340 935 302 935 c 0
 264 935 233 905 233 867 c 0
 233 829 264 798 302 798 c 0
 340 798 371 829 371 867 c 0
EndSplineSet
Validated: 1
EndChar

StartChar: ae
Encoding: 230 230 168
Width: 922
Flags: HMW
HStem: 0 68<501 867 501 867> 169 66<212 426 212 426 179 426> 323 68<501 813 501 813> 644 68<426 426 501 867 501 501>
VStem: 426 75<68 169 169 169 235 323 391 644>
LayerCount: 2
Fore
SplineSet
426 0 m 1
 424 643 l 25
 91 0 l 17
 8 0 l 1
 384 712 l 1
 867 712 l 1
 867 644 l 1
 501 644 l 1
 501 391 l 1
 813 391 l 1
 813 323 l 1
 501 323 l 1
 501 68 l 1
 867 68 l 1
 867 0 l 1
 426 0 l 1
EndSplineSet
Validated: 1
EndChar

StartChar: ccedilla
Encoding: 231 231 169
Width: 637
Flags: MW
HStem: -6 68<301 369.5 301 389> 650 68<301 369.5>
VStem: 76 76<283 429 283 437.5>
LayerCount: 2
Fore
SplineSet
572 206 m 1
 547 73 453 -6 325 -6 c 0
 251 -6 191 20 147 64 c 0
 80 131 76 193 76 356 c 0
 76 519 80 581 147 648 c 0
 191 692 251 718 325 718 c 0
 454 718 547 639 572 506 c 1
 494 506 l 1
 475 594 414 650 325 650 c 0
 277 650 235 633 202 600 c 0
 157 554 152 502 152 356 c 0
 152 210 157 158 202 112 c 0
 235 79 277 62 325 62 c 0
 414 62 477 118 496 206 c 1
 572 206 l 1
370 -67 m 1xe0
 311 -216 l 1
 232 -216 l 1
 303 -67 l 1
 370 -67 l 1xe0
EndSplineSet
Validated: 1
Substitution2: "'ss01' Style Set 1 in Latin lookup 80 subtable" ccedilla.ss01
Substitution2: "'ss01' Style Set 1 in Cyrillic lookup 79 subtable" ccedilla.ss01
Substitution2: "'ss01' Style Set 1 in Greek lookup 78 subtable" ccedilla.ss01
Substitution2: "'ss01' Style Set 1 lookup 77 subtable" ccedilla.ss01
Substitution2: "'salt' Stylistic Alternatives in Latin lookup 76 subtable" ccedilla.ss01
Substitution2: "'salt' Stylistic Alternatives in Cyrillic lookup 75 subtable" ccedilla.ss01
Substitution2: "'salt' Stylistic Alternatives in Greek lookup 74 subtable" ccedilla.ss01
Substitution2: "'salt' Stylistic Alternatives lookup 73 subtable" ccedilla.ss01
Substitution2: "'aalt' Access All Alternates lookup 0 subtable" ccedilla.ss01
EndChar

StartChar: egrave
Encoding: 232 232 170
Width: 600
Flags: HMW
HStem: 0 68<179 545 179 545> 325 68<179 491 179 491> 644 68<179 545 179 179>
VStem: 103 76<68 325 393 644>
LayerCount: 2
Fore
SplineSet
103 712 m 5
 545 712 l 5
 545 644 l 5
 103 644 l 5
 103 712 l 5
103 393 m 5
 491 393 l 5
 491 325 l 5
 103 325 l 5
 103 393 l 5
103 68 m 5
 545 68 l 5
 545 0 l 5
 103 0 l 5
 103 68 l 5
364 780 m 1xf0
 295 780 l 1
 190 934 l 1
 273 934 l 1
 364 780 l 1xf0
EndSplineSet
Validated: 1
EndChar

StartChar: eacute
Encoding: 233 233 171
Width: 600
Flags: HMW
HStem: 0 68<179 545 179 545> 325 68<179 491 179 491> 644 68<179 545 179 179>
VStem: 103 76<68 325 393 644>
LayerCount: 2
Fore
SplineSet
103 712 m 5
 545 712 l 5
 545 644 l 5
 103 644 l 5
 103 712 l 5
103 393 m 5
 491 393 l 5
 491 325 l 5
 103 325 l 5
 103 393 l 5
103 68 m 5
 545 68 l 5
 545 0 l 5
 103 0 l 5
 103 68 l 5
436 934 m 1xf0
 331 780 l 1
 262 780 l 1
 353 934 l 1
 436 934 l 1xf0
EndSplineSet
Validated: 1
EndChar

StartChar: ecircumflex
Encoding: 234 234 172
Width: 600
Flags: HMW
HStem: 0 68<179 545 179 545> 325 68<179 491 179 491> 644 68<179 545 179 179>
VStem: 103 76<68 325 393 644>
LayerCount: 2
Fore
SplineSet
103 712 m 5
 545 712 l 5
 545 644 l 5
 103 644 l 5
 103 712 l 5
103 393 m 5
 491 393 l 5
 491 325 l 5
 103 325 l 5
 103 393 l 5
103 68 m 5
 545 68 l 5
 545 0 l 5
 103 0 l 5
 103 68 l 5
472 780 m 1xf0
 403 780 l 1
 313 885 l 1
 222 780 l 1
 153 780 l 1
 279 933 l 1
 347 933 l 1
 472 780 l 1xf0
EndSplineSet
Validated: 1
EndChar

StartChar: edieresis
Encoding: 235 235 173
Width: 600
Flags: HMW
HStem: 0 68<179 545 179 545> 325 68<179 491 179 491> 644 68<179 545 179 179>
VStem: 103 76<68 325 393 644>
LayerCount: 2
Fore
SplineSet
103 712 m 5
 545 712 l 5
 545 644 l 5
 103 644 l 5
 103 712 l 5
103 393 m 5
 491 393 l 5
 491 325 l 5
 103 325 l 5
 103 393 l 5
103 68 m 5
 545 68 l 5
 545 0 l 5
 103 0 l 5
 103 68 l 5
455 789 m 1xf0
 383 789 l 1
 383 878 l 1
 455 878 l 1
 455 789 l 1xf0
243 789 m 1
 171 789 l 1
 171 878 l 1
 243 878 l 1
 243 789 l 1
EndSplineSet
Validated: 1
Substitution2: "'ss01' Style Set 1 in Latin lookup 80 subtable" edieresis.ss01
Substitution2: "'ss01' Style Set 1 in Cyrillic lookup 79 subtable" edieresis.ss01
Substitution2: "'ss01' Style Set 1 in Greek lookup 78 subtable" edieresis.ss01
Substitution2: "'ss01' Style Set 1 lookup 77 subtable" edieresis.ss01
Substitution2: "'salt' Stylistic Alternatives in Latin lookup 76 subtable" edieresis.ss01
Substitution2: "'salt' Stylistic Alternatives in Cyrillic lookup 75 subtable" edieresis.ss01
Substitution2: "'salt' Stylistic Alternatives in Greek lookup 74 subtable" edieresis.ss01
Substitution2: "'salt' Stylistic Alternatives lookup 73 subtable" edieresis.ss01
Substitution2: "'aalt' Access All Alternates lookup 0 subtable" edieresis.ss01
EndChar

StartChar: igrave
Encoding: 236 236 174
Width: 282
Flags: MW
HStem: 0 21G<103 179 103 103> 692 20G<103 179 179 179>
VStem: 103 76<0 712>
LayerCount: 2
Fore
SplineSet
179 0 m 1
 103 0 l 1
 103 712 l 1
 179 712 l 1
 179 0 l 1
181 780 m 1xe0
 112 780 l 1
 7 934 l 1
 90 934 l 1
 181 780 l 1xe0
EndSplineSet
Validated: 1
EndChar

StartChar: iacute
Encoding: 237 237 175
Width: 282
Flags: MW
HStem: 0 21G<103 179 103 103> 692 20G<103 179 179 179>
VStem: 103 76<0 712>
LayerCount: 2
Fore
SplineSet
179 0 m 1
 103 0 l 1
 103 712 l 1
 179 712 l 1
 179 0 l 1
275 934 m 1xe0
 170 780 l 1
 101 780 l 1
 192 934 l 1
 275 934 l 1xe0
EndSplineSet
Validated: 1
EndChar

StartChar: icircumflex
Encoding: 238 238 176
Width: 282
Flags: MW
HStem: 0 21G<103 179 103 103> 692 20G<103 179 179 179>
VStem: 103 76<0 712>
LayerCount: 2
Fore
SplineSet
179 0 m 1
 103 0 l 1
 103 712 l 1
 179 712 l 1
 179 0 l 1
299 780 m 1xe0
 230 780 l 1
 140 885 l 1
 49 780 l 1
 -20 780 l 1
 106 933 l 1
 174 933 l 1
 299 780 l 1xe0
EndSplineSet
Validated: 1
EndChar

StartChar: idieresis
Encoding: 239 239 177
Width: 282
Flags: MW
HStem: 0 21G<103 179 103 103> 692 20G<103 179 179 179>
VStem: 103 76<0 712>
LayerCount: 2
Fore
SplineSet
179 0 m 1
 103 0 l 1
 103 712 l 1
 179 712 l 1
 179 0 l 1
283 789 m 1xe0
 211 789 l 1
 211 878 l 1
 283 878 l 1
 283 789 l 1xe0
71 789 m 1
 -1 789 l 1
 -1 878 l 1
 71 878 l 1
 71 789 l 1
EndSplineSet
Validated: 1
Substitution2: "'ss01' Style Set 1 in Latin lookup 80 subtable" idieresis.ss01
Substitution2: "'ss01' Style Set 1 in Cyrillic lookup 79 subtable" idieresis.ss01
Substitution2: "'ss01' Style Set 1 in Greek lookup 78 subtable" idieresis.ss01
Substitution2: "'ss01' Style Set 1 lookup 77 subtable" idieresis.ss01
Substitution2: "'salt' Stylistic Alternatives in Latin lookup 76 subtable" idieresis.ss01
Substitution2: "'salt' Stylistic Alternatives in Cyrillic lookup 75 subtable" idieresis.ss01
Substitution2: "'salt' Stylistic Alternatives in Greek lookup 74 subtable" idieresis.ss01
Substitution2: "'salt' Stylistic Alternatives lookup 73 subtable" idieresis.ss01
Substitution2: "'aalt' Access All Alternates lookup 0 subtable" idieresis.ss01
EndChar

StartChar: eth
Encoding: 240 240 178
Width: 687
Flags: MW
HStem: 0 68<193 348 348 361> 330 59<39 117 39 117 193 355> 644 68<193 348 193 193>
VStem: 117 76<68 330 68 330 68 330 389 644> 535 76<306.5 405.5>
LayerCount: 2
Fore
SplineSet
611 356 m 0
 611 247 609 142 548 75 c 0
 500 23 441 0 361 0 c 2
 117 0 l 1
 117 330 l 1
 39 330 l 1
 39 389 l 1
 117 389 l 1
 117 712 l 1
 361 712 l 2
 441 712 500 689 548 637 c 0
 611 569 611 465 611 356 c 0
535 356 m 0
 535 455 534 543 488 592 c 0
 452 632 402 644 348 644 c 2
 193 644 l 1
 193 389 l 1
 355 389 l 1
 355 330 l 1
 193 330 l 1
 193 68 l 1
 348 68 l 2
 402 68 452 80 488 120 c 0
 534 169 535 257 535 356 c 0
EndSplineSet
Validated: 1
EndChar

StartChar: ntilde
Encoding: 241 241 179
Width: 732
Flags: MW
HStem: 0 21G<103 179 103 103 557 629 557 557> 692 20G<103 175 175 175 553 629 629 629>
VStem: 103 76<0 571 0 712> 553 76<143 712>
LayerCount: 2
Fore
SplineSet
629 0 m 1
 557 0 l 1
 179 571 l 1
 179 0 l 1
 103 0 l 1
 103 712 l 1
 175 712 l 1
 553 143 l 1
 553 712 l 1
 629 712 l 1
 629 0 l 1
523 844 m 1xf0
 477 799 451 794 428 794 c 0
 399 794 381 803 357 817 c 0
 338 828 321 838 301 838 c 0
 284 838 271 835 242 806 c 1
 205 842 l 1
 250 887 276 893 300 893 c 0
 329 893 346 885 371 869 c 0
 392 856 407 849 427 849 c 0
 442 849 456 851 486 881 c 1
 523 844 l 1xf0
EndSplineSet
Validated: 1
EndChar

StartChar: ograve
Encoding: 242 242 180
Width: 650
Flags: MW
HStem: -6 68<301 349 301 362> 650 68<301 349>
VStem: 76 76<283 429 283 437.5> 498 76<283 429>
LayerCount: 2
Fore
SplineSet
574 356 m 0
 574 193 569 131 502 64 c 0
 458 20 399 -6 325 -6 c 0
 251 -6 191 20 147 64 c 0
 80 131 76 193 76 356 c 0
 76 519 80 581 147 648 c 0
 191 692 251 718 325 718 c 0
 399 718 458 692 502 648 c 0
 569 581 574 519 574 356 c 0
498 356 m 0
 498 502 493 554 448 600 c 0
 415 633 373 650 325 650 c 0
 277 650 235 633 202 600 c 0
 157 554 152 502 152 356 c 0
 152 210 157 158 202 112 c 0
 235 79 277 62 325 62 c 0
 373 62 415 79 448 112 c 0
 493 158 498 210 498 356 c 0
376 780 m 1xf0
 307 780 l 1
 202 934 l 1
 285 934 l 1
 376 780 l 1xf0
EndSplineSet
Validated: 1
EndChar

StartChar: oacute
Encoding: 243 243 181
Width: 650
Flags: MW
HStem: -6 68<301 349 301 362> 650 68<301 349>
VStem: 76 76<283 429 283 437.5> 498 76<283 429>
LayerCount: 2
Fore
SplineSet
574 356 m 0
 574 193 569 131 502 64 c 0
 458 20 399 -6 325 -6 c 0
 251 -6 191 20 147 64 c 0
 80 131 76 193 76 356 c 0
 76 519 80 581 147 648 c 0
 191 692 251 718 325 718 c 0
 399 718 458 692 502 648 c 0
 569 581 574 519 574 356 c 0
498 356 m 0
 498 502 493 554 448 600 c 0
 415 633 373 650 325 650 c 0
 277 650 235 633 202 600 c 0
 157 554 152 502 152 356 c 0
 152 210 157 158 202 112 c 0
 235 79 277 62 325 62 c 0
 373 62 415 79 448 112 c 0
 493 158 498 210 498 356 c 0
448 934 m 1xf0
 343 780 l 1
 274 780 l 1
 365 934 l 1
 448 934 l 1xf0
EndSplineSet
Validated: 1
EndChar

StartChar: ocircumflex
Encoding: 244 244 182
Width: 650
Flags: MW
HStem: -6 68<301 349 301 362> 650 68<301 349>
VStem: 76 76<283 429 283 437.5> 498 76<283 429>
LayerCount: 2
Fore
SplineSet
574 356 m 0
 574 193 569 131 502 64 c 0
 458 20 399 -6 325 -6 c 0
 251 -6 191 20 147 64 c 0
 80 131 76 193 76 356 c 0
 76 519 80 581 147 648 c 0
 191 692 251 718 325 718 c 0
 399 718 458 692 502 648 c 0
 569 581 574 519 574 356 c 0
498 356 m 0
 498 502 493 554 448 600 c 0
 415 633 373 650 325 650 c 0
 277 650 235 633 202 600 c 0
 157 554 152 502 152 356 c 0
 152 210 157 158 202 112 c 0
 235 79 277 62 325 62 c 0
 373 62 415 79 448 112 c 0
 493 158 498 210 498 356 c 0
484 780 m 1xf0
 415 780 l 1
 325 885 l 1
 234 780 l 1
 165 780 l 1
 291 933 l 1
 359 933 l 1
 484 780 l 1xf0
EndSplineSet
Validated: 1
EndChar

StartChar: otilde
Encoding: 245 245 183
Width: 650
Flags: MW
HStem: -6 68<301 349 301 362> 650 68<301 349>
VStem: 76 76<283 429 283 437.5> 498 76<283 429>
LayerCount: 2
Fore
SplineSet
574 356 m 0
 574 193 569 131 502 64 c 0
 458 20 399 -6 325 -6 c 0
 251 -6 191 20 147 64 c 0
 80 131 76 193 76 356 c 0
 76 519 80 581 147 648 c 0
 191 692 251 718 325 718 c 0
 399 718 458 692 502 648 c 0
 569 581 574 519 574 356 c 0
498 356 m 0
 498 502 493 554 448 600 c 0
 415 633 373 650 325 650 c 0
 277 650 235 633 202 600 c 0
 157 554 152 502 152 356 c 0
 152 210 157 158 202 112 c 0
 235 79 277 62 325 62 c 0
 373 62 415 79 448 112 c 0
 493 158 498 210 498 356 c 0
482 844 m 1xf0
 436 799 410 794 387 794 c 0
 358 794 340 803 316 817 c 0
 297 828 280 838 260 838 c 0
 243 838 230 835 201 806 c 1
 164 842 l 1
 209 887 235 893 259 893 c 0
 288 893 305 885 330 869 c 0
 351 856 366 849 386 849 c 0
 401 849 415 851 445 881 c 1
 482 844 l 1xf0
EndSplineSet
Validated: 1
EndChar

StartChar: odieresis
Encoding: 246 246 184
Width: 650
Flags: MW
HStem: -6 68<301 349 301 362> 650 68<301 349>
VStem: 76 76<283 429 283 437.5> 498 76<283 429>
LayerCount: 2
Fore
SplineSet
574 356 m 0
 574 193 569 131 502 64 c 0
 458 20 399 -6 325 -6 c 0
 251 -6 191 20 147 64 c 0
 80 131 76 193 76 356 c 0
 76 519 80 581 147 648 c 0
 191 692 251 718 325 718 c 0
 399 718 458 692 502 648 c 0
 569 581 574 519 574 356 c 0
498 356 m 0
 498 502 493 554 448 600 c 0
 415 633 373 650 325 650 c 0
 277 650 235 633 202 600 c 0
 157 554 152 502 152 356 c 0
 152 210 157 158 202 112 c 0
 235 79 277 62 325 62 c 0
 373 62 415 79 448 112 c 0
 493 158 498 210 498 356 c 0
467 789 m 1xf0
 395 789 l 1
 395 878 l 1
 467 878 l 1
 467 789 l 1xf0
255 789 m 1
 183 789 l 1
 183 878 l 1
 255 878 l 1
 255 789 l 1
EndSplineSet
Validated: 1
Substitution2: "'ss01' Style Set 1 in Latin lookup 80 subtable" odieresis.ss01
Substitution2: "'ss01' Style Set 1 in Cyrillic lookup 79 subtable" odieresis.ss01
Substitution2: "'ss01' Style Set 1 in Greek lookup 78 subtable" odieresis.ss01
Substitution2: "'ss01' Style Set 1 lookup 77 subtable" odieresis.ss01
Substitution2: "'salt' Stylistic Alternatives in Latin lookup 76 subtable" odieresis.ss01
Substitution2: "'salt' Stylistic Alternatives in Cyrillic lookup 75 subtable" odieresis.ss01
Substitution2: "'salt' Stylistic Alternatives in Greek lookup 74 subtable" odieresis.ss01
Substitution2: "'salt' Stylistic Alternatives lookup 73 subtable" odieresis.ss01
Substitution2: "'aalt' Access All Alternates lookup 0 subtable" odieresis.ss01
EndChar

StartChar: divide
Encoding: 247 247 185
Width: 522
Flags: MW
HStem: 49 21G<218 304 218 218> 236 67<51 471 51 471> 470 20G<218 304 304 304>
VStem: 218 86<49 135 404 490>
LayerCount: 2
Fore
SplineSet
471 236 m 1
 51 236 l 1
 51 303 l 1
 471 303 l 1
 471 236 l 1
304 49 m 1
 218 49 l 1
 218 135 l 1
 304 135 l 1
 304 49 l 1
304 404 m 1
 218 404 l 1
 218 490 l 1
 304 490 l 1
 304 404 l 1
EndSplineSet
Validated: 1
Substitution2: "'ss01' Style Set 1 in Latin lookup 80 subtable" divide.ss01
Substitution2: "'ss01' Style Set 1 in Cyrillic lookup 79 subtable" divide.ss01
Substitution2: "'ss01' Style Set 1 in Greek lookup 78 subtable" divide.ss01
Substitution2: "'ss01' Style Set 1 lookup 77 subtable" divide.ss01
Substitution2: "'salt' Stylistic Alternatives in Latin lookup 76 subtable" divide.ss01
Substitution2: "'salt' Stylistic Alternatives in Cyrillic lookup 75 subtable" divide.ss01
Substitution2: "'salt' Stylistic Alternatives in Greek lookup 74 subtable" divide.ss01
Substitution2: "'salt' Stylistic Alternatives lookup 73 subtable" divide.ss01
Substitution2: "'aalt' Access All Alternates lookup 0 subtable" divide.ss01
EndChar

StartChar: oslash
Encoding: 248 248 186
Width: 650
Flags: MW
HStem: -44 21G<101 166 101 101> -6 68<307 349 307 362> 650 68<301 343> 736 20G<484 549 549 549>
VStem: 76 76<292.5 429 292.5 437.5> 498 76<283 419.5>
LayerCount: 2
Fore
SplineSet
574 356 m 0
 574 193 571 133 502 64 c 0
 458 20 399 -6 325 -6 c 0
 276 -6 235 5 199 25 c 1
 166 -44 l 1
 101 -44 l 1
 151 60 l 1
 80 129 76 190 76 356 c 0
 76 519 80 581 147 648 c 0
 191 692 251 718 325 718 c 0
 373 718 417 707 450 687 c 1
 484 756 l 1
 549 756 l 1
 499 651 l 1
 571 581 574 519 574 356 c 0
152 356 m 0
 152 229 156 172 187 130 c 1
 421 622 l 1
 395 640 361 650 325 650 c 0
 277 650 234 633 202 600 c 0
 157 554 152 502 152 356 c 0
498 356 m 0
 498 483 494 539 463 582 c 1
 229 90 l 1
 256 72 289 62 325 62 c 0
 373 62 415 79 448 112 c 0
 493 158 498 210 498 356 c 0
EndSplineSet
Validated: 1
EndChar

StartChar: ugrave
Encoding: 249 249 187
Width: 683
Flags: MW
HStem: -6 68<289 393 289 413> 692 20G<93 169 169 169 514 590 590 590>
VStem: 93 76<235 241 241 712> 514 76<241 712>
LayerCount: 2
Fore
SplineSet
590 235 m 2
 590 93 485 -6 341 -6 c 0
 197 -6 93 93 93 235 c 2
 93 712 l 1
 169 712 l 1
 169 241 l 2
 169 133 237 62 341 62 c 0
 445 62 514 133 514 241 c 2
 514 712 l 1
 590 712 l 1
 590 235 l 2
392 780 m 1xf0
 323 780 l 1
 218 934 l 1
 301 934 l 1
 392 780 l 1xf0
EndSplineSet
Validated: 1
EndChar

StartChar: uacute
Encoding: 250 250 188
Width: 683
Flags: MW
HStem: -6 68<289 393 289 413> 692 20G<93 169 169 169 514 590 590 590>
VStem: 93 76<235 241 241 712> 514 76<241 712>
LayerCount: 2
Fore
SplineSet
590 235 m 2
 590 93 485 -6 341 -6 c 0
 197 -6 93 93 93 235 c 2
 93 712 l 1
 169 712 l 1
 169 241 l 2
 169 133 237 62 341 62 c 0
 445 62 514 133 514 241 c 2
 514 712 l 1
 590 712 l 1
 590 235 l 2
464 934 m 1xf0
 359 780 l 1
 290 780 l 1
 381 934 l 1
 464 934 l 1xf0
EndSplineSet
Validated: 1
EndChar

StartChar: ucircumflex
Encoding: 251 251 189
Width: 683
Flags: MW
HStem: -6 68<289 393 289 413> 692 20G<93 169 169 169 514 590 590 590>
VStem: 93 76<235 241 241 712> 514 76<241 712>
LayerCount: 2
Fore
SplineSet
590 235 m 2
 590 93 485 -6 341 -6 c 0
 197 -6 93 93 93 235 c 2
 93 712 l 1
 169 712 l 1
 169 241 l 2
 169 133 237 62 341 62 c 0
 445 62 514 133 514 241 c 2
 514 712 l 1
 590 712 l 1
 590 235 l 2
500 780 m 1xf0
 431 780 l 1
 341 885 l 1
 250 780 l 1
 181 780 l 1
 307 933 l 1
 375 933 l 1
 500 780 l 1xf0
EndSplineSet
Validated: 1
EndChar

StartChar: udieresis
Encoding: 252 252 190
Width: 683
Flags: MW
HStem: -6 68<289 393 289 413> 692 20G<93 169 169 169 514 590 590 590>
VStem: 93 76<235 241 241 712> 514 76<241 712>
LayerCount: 2
Fore
SplineSet
590 235 m 2
 590 93 485 -6 341 -6 c 0
 197 -6 93 93 93 235 c 2
 93 712 l 1
 169 712 l 1
 169 241 l 2
 169 133 237 62 341 62 c 0
 445 62 514 133 514 241 c 2
 514 712 l 1
 590 712 l 1
 590 235 l 2
483 789 m 1xf0
 411 789 l 1
 411 878 l 1
 483 878 l 1
 483 789 l 1xf0
271 789 m 1
 199 789 l 1
 199 878 l 1
 271 878 l 1
 271 789 l 1
EndSplineSet
Validated: 1
Substitution2: "'ss01' Style Set 1 in Latin lookup 80 subtable" udieresis.ss01
Substitution2: "'ss01' Style Set 1 in Cyrillic lookup 79 subtable" udieresis.ss01
Substitution2: "'ss01' Style Set 1 in Greek lookup 78 subtable" udieresis.ss01
Substitution2: "'ss01' Style Set 1 lookup 77 subtable" udieresis.ss01
Substitution2: "'salt' Stylistic Alternatives in Latin lookup 76 subtable" udieresis.ss01
Substitution2: "'salt' Stylistic Alternatives in Cyrillic lookup 75 subtable" udieresis.ss01
Substitution2: "'salt' Stylistic Alternatives in Greek lookup 74 subtable" udieresis.ss01
Substitution2: "'salt' Stylistic Alternatives lookup 73 subtable" udieresis.ss01
Substitution2: "'aalt' Access All Alternates lookup 0 subtable" udieresis.ss01
EndChar

StartChar: yacute
Encoding: 253 253 191
Width: 514
Flags: MW
HStem: 0 21G<220 296 220 220> 692 20G<8 90 90 90 424 506 506 506>
VStem: 220 76<0 294 0 294>
LayerCount: 2
Fore
SplineSet
506 712 m 1
 296 294 l 1
 296 0 l 1
 220 0 l 1
 220 294 l 1
 8 712 l 1
 90 712 l 1
 258 371 l 1
 424 712 l 1
 506 712 l 1
380 934 m 1xe0
 275 780 l 1
 206 780 l 1
 297 934 l 1
 380 934 l 1xe0
EndSplineSet
Validated: 1
EndChar

StartChar: thorn
Encoding: 254 254 192
Width: 642
Flags: MW
HStem: 0 21G<103 179 103 103> 150 68<179 361 361 368 179 361> 500 69<179 361 179 368> 692 20G<103 179 179 179>
VStem: 103 76<0 150 0 218 218 500 569 712> 512 76<312 406>
LayerCount: 2
Fore
SplineSet
588 359 m 0
 588 231 498 150 368 150 c 2
 179 150 l 1
 179 0 l 1
 103 0 l 1
 103 712 l 1
 179 712 l 1
 179 569 l 1
 368 569 l 2
 498 569 588 487 588 359 c 0
512 359 m 0
 512 453 450 500 361 500 c 2
 179 500 l 1
 179 218 l 1
 361 218 l 2
 450 218 512 265 512 359 c 0
EndSplineSet
Validated: 1
EndChar

StartChar: ydieresis
Encoding: 255 255 193
Width: 447
Flags: MW
HStem: -211 64<50 72 72 81 50 72> 472 20G<11 89 89 89 358 436 436 436>
LayerCount: 2
Fore
SplineSet
436 492 m 1
 212 -119 l 2
 202 -146 191 -164 177 -177 c 0
 151 -202 116 -211 81 -211 c 2
 50 -211 l 1
 50 -147 l 1
 72 -147 l 2
 122 -147 137 -131 153 -86 c 2
 188 10 l 1
 11 492 l 1
 89 492 l 1
 224 97 l 1
 358 492 l 1
 436 492 l 1
366 602 m 1xc0
 294 602 l 1
 294 691 l 1
 366 691 l 1
 366 602 l 1xc0
154 602 m 1
 82 602 l 1
 82 691 l 1
 154 691 l 1
 154 602 l 1
EndSplineSet
Validated: 1
Substitution2: "'ss01' Style Set 1 in Latin lookup 80 subtable" ydieresis.ss01
Substitution2: "'ss01' Style Set 1 in Cyrillic lookup 79 subtable" ydieresis.ss01
Substitution2: "'ss01' Style Set 1 in Greek lookup 78 subtable" ydieresis.ss01
Substitution2: "'ss01' Style Set 1 lookup 77 subtable" ydieresis.ss01
Substitution2: "'salt' Stylistic Alternatives in Latin lookup 76 subtable" ydieresis.ss01
Substitution2: "'salt' Stylistic Alternatives in Cyrillic lookup 75 subtable" ydieresis.ss01
Substitution2: "'salt' Stylistic Alternatives in Greek lookup 74 subtable" ydieresis.ss01
Substitution2: "'salt' Stylistic Alternatives lookup 73 subtable" ydieresis.ss01
Substitution2: "'aalt' Access All Alternates lookup 0 subtable" ydieresis.ss01
EndChar

StartChar: Amacron
Encoding: 256 256 194
Width: 611
Flags: MW
HStem: 0 21G<12 93 12 12 518 599 518 518> 161 66<173 439 173 461 150 439> 692 20G<274 338 338 338>
LayerCount: 2
Fore
SplineSet
599 0 m 1
 518 0 l 1
 461 161 l 1
 150 161 l 1
 93 0 l 1
 12 0 l 1
 274 712 l 1
 338 712 l 1
 599 0 l 1
439 227 m 1
 307 603 l 1
 173 227 l 1
 439 227 l 1
154 798 m 1xe0
 154 855 l 1
 455 855 l 1
 455 798 l 1
 154 798 l 1xe0
EndSplineSet
Validated: 1
Position2: "'cpsp' Capital Spacing in Latin lookup 3 subtable" dx=5 dy=0 dh=10 dv=0
Position2: "'cpsp' Capital Spacing in Cyrillic lookup 2 subtable" dx=5 dy=0 dh=10 dv=0
Position2: "'cpsp' Capital Spacing in Greek lookup 1 subtable" dx=5 dy=0 dh=10 dv=0
Position2: "'cpsp' Capital Spacing lookup 0 subtable" dx=5 dy=0 dh=10 dv=0
EndChar

StartChar: amacron
Encoding: 257 257 195
Width: 611
Flags: HMW
HStem: 0 21G<12 93 12 12 518 599 518 518> 161 66<173 439 173 461 150 439> 692 20G<274 338 338 338>
LayerCount: 2
Fore
SplineSet
568 0 m 5
 488 0 l 5
 300 604 l 5
 110 0 l 5
 30 0 l 5
 264 712 l 5
 334 712 l 5
 568 0 l 5
154 798 m 1xe0
 154 855 l 1
 455 855 l 1
 455 798 l 1
 154 798 l 1xe0
EndSplineSet
Validated: 1
EndChar

StartChar: Abreve
Encoding: 258 258 196
Width: 611
Flags: MW
HStem: 0 21G<12 93 12 12 518 599 518 518> 161 66<173 439 173 461 150 439> 692 20G<274 338 338 338>
LayerCount: 2
Fore
SplineSet
599 0 m 1
 518 0 l 1
 461 161 l 1
 150 161 l 1
 93 0 l 1
 12 0 l 1
 274 712 l 1
 338 712 l 1
 599 0 l 1
439 227 m 1
 307 603 l 1
 173 227 l 1
 439 227 l 1
472 933 m 1xe0
 464 842 409 794 307 794 c 0
 205 794 150 842 142 933 c 1
 198 933 l 1
 205 880 246 850 307 850 c 0
 368 850 409 880 416 933 c 1
 472 933 l 1xe0
EndSplineSet
Validated: 1
Position2: "'cpsp' Capital Spacing in Latin lookup 3 subtable" dx=5 dy=0 dh=10 dv=0
Position2: "'cpsp' Capital Spacing in Cyrillic lookup 2 subtable" dx=5 dy=0 dh=10 dv=0
Position2: "'cpsp' Capital Spacing in Greek lookup 1 subtable" dx=5 dy=0 dh=10 dv=0
Position2: "'cpsp' Capital Spacing lookup 0 subtable" dx=5 dy=0 dh=10 dv=0
EndChar

StartChar: abreve
Encoding: 259 259 197
Width: 611
Flags: HMW
HStem: 0 21G<12 93 12 12 518 599 518 518> 161 66<173 439 173 461 150 439> 692 20G<274 338 338 338>
LayerCount: 2
Fore
SplineSet
568 0 m 5
 488 0 l 5
 300 604 l 5
 110 0 l 5
 30 0 l 5
 264 712 l 5
 334 712 l 5
 568 0 l 5
472 933 m 1xe0
 464 842 409 794 307 794 c 0
 205 794 150 842 142 933 c 1
 198 933 l 1
 205 880 246 850 307 850 c 0
 368 850 409 880 416 933 c 1
 472 933 l 1xe0
EndSplineSet
Validated: 1
EndChar

StartChar: Aogonek
Encoding: 260 260 198
Width: 611
Flags: MW
HStem: 0 21G<12 93 12 12 518 599 518 518> 161 66<173 439 173 461 150 439> 692 20G<274 338 338 338>
LayerCount: 2
Fore
SplineSet
599 0 m 1
 518 0 l 1
 461 161 l 1
 150 161 l 1
 93 0 l 1
 12 0 l 1
 274 712 l 1
 338 712 l 1
 599 0 l 1
439 227 m 1
 307 603 l 1
 173 227 l 1
 439 227 l 1
585 -67 m 1xe0
 526 -216 l 1
 447 -216 l 1
 518 -67 l 1
 585 -67 l 1xe0
EndSplineSet
Validated: 1
Substitution2: "'ss01' Style Set 1 in Latin lookup 80 subtable" Aogonek.ss01
Substitution2: "'ss01' Style Set 1 in Cyrillic lookup 79 subtable" Aogonek.ss01
Substitution2: "'ss01' Style Set 1 in Greek lookup 78 subtable" Aogonek.ss01
Substitution2: "'ss01' Style Set 1 lookup 77 subtable" Aogonek.ss01
Substitution2: "'salt' Stylistic Alternatives in Latin lookup 76 subtable" Aogonek.ss01
Substitution2: "'salt' Stylistic Alternatives in Cyrillic lookup 75 subtable" Aogonek.ss01
Substitution2: "'salt' Stylistic Alternatives in Greek lookup 74 subtable" Aogonek.ss01
Substitution2: "'salt' Stylistic Alternatives lookup 73 subtable" Aogonek.ss01
Substitution2: "'aalt' Access All Alternates lookup 0 subtable" Aogonek.ss01
Position2: "'cpsp' Capital Spacing in Latin lookup 3 subtable" dx=5 dy=0 dh=10 dv=0
Position2: "'cpsp' Capital Spacing in Cyrillic lookup 2 subtable" dx=5 dy=0 dh=10 dv=0
Position2: "'cpsp' Capital Spacing in Greek lookup 1 subtable" dx=5 dy=0 dh=10 dv=0
Position2: "'cpsp' Capital Spacing lookup 0 subtable" dx=5 dy=0 dh=10 dv=0
EndChar

StartChar: aogonek
Encoding: 261 261 199
Width: 611
Flags: HMW
HStem: 0 21G<12 93 12 12 518 599 518 518> 161 66<173 439 173 461 150 439> 692 20G<274 338 338 338>
LayerCount: 2
Fore
SplineSet
568 0 m 5
 488 0 l 5
 300 604 l 5
 110 0 l 5
 30 0 l 5
 264 712 l 5
 334 712 l 5
 568 0 l 5
585 -67 m 1xe0
 526 -216 l 1
 447 -216 l 1
 518 -67 l 1
 585 -67 l 1xe0
EndSplineSet
Validated: 1
Substitution2: "'ss01' Style Set 1 in Latin lookup 80 subtable" aogonek.ss01
Substitution2: "'ss01' Style Set 1 in Cyrillic lookup 79 subtable" aogonek.ss01
Substitution2: "'ss01' Style Set 1 in Greek lookup 78 subtable" aogonek.ss01
Substitution2: "'ss01' Style Set 1 lookup 77 subtable" aogonek.ss01
Substitution2: "'salt' Stylistic Alternatives in Latin lookup 76 subtable" aogonek.ss01
Substitution2: "'salt' Stylistic Alternatives in Cyrillic lookup 75 subtable" aogonek.ss01
Substitution2: "'salt' Stylistic Alternatives in Greek lookup 74 subtable" aogonek.ss01
Substitution2: "'salt' Stylistic Alternatives lookup 73 subtable" aogonek.ss01
Substitution2: "'aalt' Access All Alternates lookup 0 subtable" aogonek.ss01
EndChar

StartChar: Cacute
Encoding: 262 262 200
Width: 637
Flags: MW
HStem: -6 68<301 369.5 301 389> 650 68<301 369.5>
VStem: 76 76<283 429 283 437.5>
LayerCount: 2
Fore
SplineSet
572 206 m 1
 547 73 453 -6 325 -6 c 0
 251 -6 191 20 147 64 c 0
 80 131 76 193 76 356 c 0
 76 519 80 581 147 648 c 0
 191 692 251 718 325 718 c 0
 454 718 547 639 572 506 c 1
 494 506 l 1
 475 594 414 650 325 650 c 0
 277 650 235 633 202 600 c 0
 157 554 152 502 152 356 c 0
 152 210 157 158 202 112 c 0
 235 79 277 62 325 62 c 0
 414 62 477 118 496 206 c 1
 572 206 l 1
441 934 m 1xe0
 336 780 l 1
 267 780 l 1
 358 934 l 1
 441 934 l 1xe0
EndSplineSet
Validated: 1
Substitution2: "'ss01' Style Set 1 in Latin lookup 80 subtable" Cacute.ss01
Substitution2: "'ss01' Style Set 1 in Cyrillic lookup 79 subtable" Cacute.ss01
Substitution2: "'ss01' Style Set 1 in Greek lookup 78 subtable" Cacute.ss01
Substitution2: "'ss01' Style Set 1 lookup 77 subtable" Cacute.ss01
Substitution2: "'salt' Stylistic Alternatives in Latin lookup 76 subtable" Cacute.ss01
Substitution2: "'salt' Stylistic Alternatives in Cyrillic lookup 75 subtable" Cacute.ss01
Substitution2: "'salt' Stylistic Alternatives in Greek lookup 74 subtable" Cacute.ss01
Substitution2: "'salt' Stylistic Alternatives lookup 73 subtable" Cacute.ss01
Substitution2: "'aalt' Access All Alternates lookup 0 subtable" Cacute.ss01
Position2: "'cpsp' Capital Spacing in Latin lookup 3 subtable" dx=5 dy=0 dh=10 dv=0
Position2: "'cpsp' Capital Spacing in Cyrillic lookup 2 subtable" dx=5 dy=0 dh=10 dv=0
Position2: "'cpsp' Capital Spacing in Greek lookup 1 subtable" dx=5 dy=0 dh=10 dv=0
Position2: "'cpsp' Capital Spacing lookup 0 subtable" dx=5 dy=0 dh=10 dv=0
EndChar

StartChar: cacute
Encoding: 263 263 201
Width: 637
Flags: MW
HStem: -6 68<301 369.5 301 389> 650 68<301 369.5>
VStem: 76 76<283 429 283 437.5>
LayerCount: 2
Fore
SplineSet
572 206 m 1
 547 73 453 -6 325 -6 c 0
 251 -6 191 20 147 64 c 0
 80 131 76 193 76 356 c 0
 76 519 80 581 147 648 c 0
 191 692 251 718 325 718 c 0
 454 718 547 639 572 506 c 1
 494 506 l 1
 475 594 414 650 325 650 c 0
 277 650 235 633 202 600 c 0
 157 554 152 502 152 356 c 0
 152 210 157 158 202 112 c 0
 235 79 277 62 325 62 c 0
 414 62 477 118 496 206 c 1
 572 206 l 1
441 934 m 1xe0
 336 780 l 1
 267 780 l 1
 358 934 l 1
 441 934 l 1xe0
EndSplineSet
Validated: 1
EndChar

StartChar: Ccircumflex
Encoding: 264 264 202
Width: 637
Flags: MW
HStem: -6 68<301 369.5 301 389> 650 68<301 369.5>
VStem: 76 76<283 429 283 437.5>
LayerCount: 2
Fore
SplineSet
572 206 m 1
 547 73 453 -6 325 -6 c 0
 251 -6 191 20 147 64 c 0
 80 131 76 193 76 356 c 0
 76 519 80 581 147 648 c 0
 191 692 251 718 325 718 c 0
 454 718 547 639 572 506 c 1
 494 506 l 1
 475 594 414 650 325 650 c 0
 277 650 235 633 202 600 c 0
 157 554 152 502 152 356 c 0
 152 210 157 158 202 112 c 0
 235 79 277 62 325 62 c 0
 414 62 477 118 496 206 c 1
 572 206 l 1
484 780 m 1xe0
 415 780 l 1
 325 885 l 1
 234 780 l 1
 165 780 l 1
 291 933 l 1
 359 933 l 1
 484 780 l 1xe0
EndSplineSet
Validated: 1
Substitution2: "'ss01' Style Set 1 in Latin lookup 80 subtable" Ccircumflex.ss01
Substitution2: "'ss01' Style Set 1 in Cyrillic lookup 79 subtable" Ccircumflex.ss01
Substitution2: "'ss01' Style Set 1 in Greek lookup 78 subtable" Ccircumflex.ss01
Substitution2: "'ss01' Style Set 1 lookup 77 subtable" Ccircumflex.ss01
Substitution2: "'salt' Stylistic Alternatives in Latin lookup 76 subtable" Ccircumflex.ss01
Substitution2: "'salt' Stylistic Alternatives in Cyrillic lookup 75 subtable" Ccircumflex.ss01
Substitution2: "'salt' Stylistic Alternatives in Greek lookup 74 subtable" Ccircumflex.ss01
Substitution2: "'salt' Stylistic Alternatives lookup 73 subtable" Ccircumflex.ss01
Substitution2: "'aalt' Access All Alternates lookup 0 subtable" Ccircumflex.ss01
Position2: "'cpsp' Capital Spacing in Latin lookup 3 subtable" dx=5 dy=0 dh=10 dv=0
Position2: "'cpsp' Capital Spacing in Cyrillic lookup 2 subtable" dx=5 dy=0 dh=10 dv=0
Position2: "'cpsp' Capital Spacing in Greek lookup 1 subtable" dx=5 dy=0 dh=10 dv=0
Position2: "'cpsp' Capital Spacing lookup 0 subtable" dx=5 dy=0 dh=10 dv=0
EndChar

StartChar: ccircumflex
Encoding: 265 265 203
Width: 637
Flags: MW
HStem: -6 68<301 369.5 301 389> 650 68<301 369.5>
VStem: 76 76<283 429 283 437.5>
LayerCount: 2
Fore
SplineSet
572 206 m 1
 547 73 453 -6 325 -6 c 0
 251 -6 191 20 147 64 c 0
 80 131 76 193 76 356 c 0
 76 519 80 581 147 648 c 0
 191 692 251 718 325 718 c 0
 454 718 547 639 572 506 c 1
 494 506 l 1
 475 594 414 650 325 650 c 0
 277 650 235 633 202 600 c 0
 157 554 152 502 152 356 c 0
 152 210 157 158 202 112 c 0
 235 79 277 62 325 62 c 0
 414 62 477 118 496 206 c 1
 572 206 l 1
484 780 m 1xe0
 415 780 l 1
 325 885 l 1
 234 780 l 1
 165 780 l 1
 291 933 l 1
 359 933 l 1
 484 780 l 1xe0
EndSplineSet
Validated: 1
EndChar

StartChar: Cdotaccent
Encoding: 266 266 204
Width: 637
Flags: MW
HStem: -6 68<301 369.5 301 389> 650 68<301 369.5>
VStem: 76 76<283 429 283 437.5>
LayerCount: 2
Fore
SplineSet
572 206 m 1
 547 73 453 -6 325 -6 c 0
 251 -6 191 20 147 64 c 0
 80 131 76 193 76 356 c 0
 76 519 80 581 147 648 c 0
 191 692 251 718 325 718 c 0
 454 718 547 639 572 506 c 1
 494 506 l 1
 475 594 414 650 325 650 c 0
 277 650 235 633 202 600 c 0
 157 554 152 502 152 356 c 0
 152 210 157 158 202 112 c 0
 235 79 277 62 325 62 c 0
 414 62 477 118 496 206 c 1
 572 206 l 1
286 797 m 1xe0
 286 873 l 1
 361 873 l 1
 361 797 l 1
 286 797 l 1xe0
EndSplineSet
Validated: 1
Substitution2: "'ss01' Style Set 1 in Latin lookup 80 subtable" Cdotaccent.ss01
Substitution2: "'ss01' Style Set 1 in Cyrillic lookup 79 subtable" Cdotaccent.ss01
Substitution2: "'ss01' Style Set 1 in Greek lookup 78 subtable" Cdotaccent.ss01
Substitution2: "'ss01' Style Set 1 lookup 77 subtable" Cdotaccent.ss01
Substitution2: "'salt' Stylistic Alternatives in Latin lookup 76 subtable" Cdotaccent.ss01
Substitution2: "'salt' Stylistic Alternatives in Cyrillic lookup 75 subtable" Cdotaccent.ss01
Substitution2: "'salt' Stylistic Alternatives in Greek lookup 74 subtable" Cdotaccent.ss01
Substitution2: "'salt' Stylistic Alternatives lookup 73 subtable" Cdotaccent.ss01
Substitution2: "'aalt' Access All Alternates lookup 0 subtable" Cdotaccent.ss01
Position2: "'cpsp' Capital Spacing in Latin lookup 3 subtable" dx=5 dy=0 dh=10 dv=0
Position2: "'cpsp' Capital Spacing in Cyrillic lookup 2 subtable" dx=5 dy=0 dh=10 dv=0
Position2: "'cpsp' Capital Spacing in Greek lookup 1 subtable" dx=5 dy=0 dh=10 dv=0
Position2: "'cpsp' Capital Spacing lookup 0 subtable" dx=5 dy=0 dh=10 dv=0
EndChar

StartChar: cdotaccent
Encoding: 267 267 205
Width: 637
Flags: MW
HStem: -6 68<301 369.5 301 389> 650 68<301 369.5>
VStem: 76 76<283 429 283 437.5>
LayerCount: 2
Fore
SplineSet
572 206 m 1
 547 73 453 -6 325 -6 c 0
 251 -6 191 20 147 64 c 0
 80 131 76 193 76 356 c 0
 76 519 80 581 147 648 c 0
 191 692 251 718 325 718 c 0
 454 718 547 639 572 506 c 1
 494 506 l 1
 475 594 414 650 325 650 c 0
 277 650 235 633 202 600 c 0
 157 554 152 502 152 356 c 0
 152 210 157 158 202 112 c 0
 235 79 277 62 325 62 c 0
 414 62 477 118 496 206 c 1
 572 206 l 1
286 797 m 1xe0
 286 873 l 1
 361 873 l 1
 361 797 l 1
 286 797 l 1xe0
EndSplineSet
Validated: 1
Substitution2: "'ss01' Style Set 1 in Latin lookup 80 subtable" cdotaccent.ss01
Substitution2: "'ss01' Style Set 1 in Cyrillic lookup 79 subtable" cdotaccent.ss01
Substitution2: "'ss01' Style Set 1 in Greek lookup 78 subtable" cdotaccent.ss01
Substitution2: "'ss01' Style Set 1 lookup 77 subtable" cdotaccent.ss01
Substitution2: "'salt' Stylistic Alternatives in Latin lookup 76 subtable" cdotaccent.ss01
Substitution2: "'salt' Stylistic Alternatives in Cyrillic lookup 75 subtable" cdotaccent.ss01
Substitution2: "'salt' Stylistic Alternatives in Greek lookup 74 subtable" cdotaccent.ss01
Substitution2: "'salt' Stylistic Alternatives lookup 73 subtable" cdotaccent.ss01
Substitution2: "'aalt' Access All Alternates lookup 0 subtable" cdotaccent.ss01
EndChar

StartChar: Ccaron
Encoding: 268 268 206
Width: 637
Flags: MW
HStem: -6 68<301 369.5 301 389> 650 68<301 369.5>
VStem: 76 76<283 429 283 437.5>
LayerCount: 2
Fore
SplineSet
572 206 m 1
 547 73 453 -6 325 -6 c 0
 251 -6 191 20 147 64 c 0
 80 131 76 193 76 356 c 0
 76 519 80 581 147 648 c 0
 191 692 251 718 325 718 c 0
 454 718 547 639 572 506 c 1
 494 506 l 1
 475 594 414 650 325 650 c 0
 277 650 235 633 202 600 c 0
 157 554 152 502 152 356 c 0
 152 210 157 158 202 112 c 0
 235 79 277 62 325 62 c 0
 414 62 477 118 496 206 c 1
 572 206 l 1
478 933 m 1xe0
 352 780 l 1
 284 780 l 1
 159 933 l 1
 228 933 l 1
 318 829 l 1
 409 933 l 1
 478 933 l 1xe0
EndSplineSet
Validated: 1
Substitution2: "'ss01' Style Set 1 in Latin lookup 80 subtable" Ccaron.ss01
Substitution2: "'ss01' Style Set 1 in Cyrillic lookup 79 subtable" Ccaron.ss01
Substitution2: "'ss01' Style Set 1 in Greek lookup 78 subtable" Ccaron.ss01
Substitution2: "'ss01' Style Set 1 lookup 77 subtable" Ccaron.ss01
Substitution2: "'salt' Stylistic Alternatives in Latin lookup 76 subtable" Ccaron.ss01
Substitution2: "'salt' Stylistic Alternatives in Cyrillic lookup 75 subtable" Ccaron.ss01
Substitution2: "'salt' Stylistic Alternatives in Greek lookup 74 subtable" Ccaron.ss01
Substitution2: "'salt' Stylistic Alternatives lookup 73 subtable" Ccaron.ss01
Substitution2: "'aalt' Access All Alternates lookup 0 subtable" Ccaron.ss01
Position2: "'cpsp' Capital Spacing in Latin lookup 3 subtable" dx=5 dy=0 dh=10 dv=0
Position2: "'cpsp' Capital Spacing in Cyrillic lookup 2 subtable" dx=5 dy=0 dh=10 dv=0
Position2: "'cpsp' Capital Spacing in Greek lookup 1 subtable" dx=5 dy=0 dh=10 dv=0
Position2: "'cpsp' Capital Spacing lookup 0 subtable" dx=5 dy=0 dh=10 dv=0
EndChar

StartChar: ccaron
Encoding: 269 269 207
Width: 637
Flags: MW
HStem: -6 68<301 369.5 301 389> 650 68<301 369.5>
VStem: 76 76<283 429 283 437.5>
LayerCount: 2
Fore
SplineSet
572 206 m 1
 547 73 453 -6 325 -6 c 0
 251 -6 191 20 147 64 c 0
 80 131 76 193 76 356 c 0
 76 519 80 581 147 648 c 0
 191 692 251 718 325 718 c 0
 454 718 547 639 572 506 c 1
 494 506 l 1
 475 594 414 650 325 650 c 0
 277 650 235 633 202 600 c 0
 157 554 152 502 152 356 c 0
 152 210 157 158 202 112 c 0
 235 79 277 62 325 62 c 0
 414 62 477 118 496 206 c 1
 572 206 l 1
478 933 m 1xe0
 352 780 l 1
 284 780 l 1
 159 933 l 1
 228 933 l 1
 318 829 l 1
 409 933 l 1
 478 933 l 1xe0
EndSplineSet
Validated: 1
EndChar

StartChar: Dcaron
Encoding: 270 270 208
Width: 673
Flags: MW
HStem: 0 68<179 334 334 347> 644 68<179 334 179 179>
VStem: 103 76<68 644 68 712 68 712> 521 76<306.5 405.5>
LayerCount: 2
Fore
SplineSet
597 356 m 0
 597 247 597 143 534 75 c 0
 486 23 427 0 347 0 c 2
 103 0 l 1
 103 712 l 1
 347 712 l 2
 427 712 486 689 534 637 c 0
 597 569 597 465 597 356 c 0
521 356 m 0
 521 455 520 543 474 592 c 0
 438 632 388 644 334 644 c 2
 179 644 l 1
 179 68 l 1
 334 68 l 2
 388 68 438 80 474 120 c 0
 520 169 521 257 521 356 c 0
496 933 m 1xf0
 370 780 l 1
 302 780 l 1
 177 933 l 1
 246 933 l 1
 336 829 l 1
 427 933 l 1
 496 933 l 1xf0
EndSplineSet
Validated: 1
Position2: "'cpsp' Capital Spacing in Latin lookup 3 subtable" dx=5 dy=0 dh=10 dv=0
Position2: "'cpsp' Capital Spacing in Cyrillic lookup 2 subtable" dx=5 dy=0 dh=10 dv=0
Position2: "'cpsp' Capital Spacing in Greek lookup 1 subtable" dx=5 dy=0 dh=10 dv=0
Position2: "'cpsp' Capital Spacing lookup 0 subtable" dx=5 dy=0 dh=10 dv=0
EndChar

StartChar: dcaron
Encoding: 271 271 209
Width: 673
Flags: HMW
HStem: 0 68<179 334 334 347> 644 68<179 334 179 179>
VStem: 103 76<68 644 68 712 68 712> 521 76<306.5 405.5>
LayerCount: 2
Fore
SplineSet
103 68 m 1
 334 68 l 2
 388 68 438 80 474 120 c 0
 520 169 521 257 521 356 c 0
 521 455 520 543 474 592 c 0
 438 632 388 644 334 644 c 2
 103 644 l 1
 103 712 l 1
 347 712 l 2
 427 712 486 689 534 637 c 0
 597 569 597 465 597 356 c 0
 597 247 597 143 534 75 c 0
 486 23 427 -0 347 0 c 2
 103 0 l 1
 103 68 l 1
496 933 m 1xf0
 370 780 l 1
 302 780 l 1
 177 933 l 1
 246 933 l 1
 336 829 l 1
 427 933 l 1
 496 933 l 1xf0
EndSplineSet
Validated: 1
Substitution2: "'ss01' Style Set 1 in Latin lookup 80 subtable" dcaron.ss01
Substitution2: "'ss01' Style Set 1 in Cyrillic lookup 79 subtable" dcaron.ss01
Substitution2: "'ss01' Style Set 1 in Greek lookup 78 subtable" dcaron.ss01
Substitution2: "'ss01' Style Set 1 lookup 77 subtable" dcaron.ss01
Substitution2: "'salt' Stylistic Alternatives in Latin lookup 76 subtable" dcaron.ss01
Substitution2: "'salt' Stylistic Alternatives in Cyrillic lookup 75 subtable" dcaron.ss01
Substitution2: "'salt' Stylistic Alternatives in Greek lookup 74 subtable" dcaron.ss01
Substitution2: "'salt' Stylistic Alternatives lookup 73 subtable" dcaron.ss01
Substitution2: "'aalt' Access All Alternates lookup 0 subtable" dcaron.ss01
EndChar

StartChar: Dcroat
Encoding: 272 272 210
Width: 687
Flags: MW
HStem: 0 68<193 348 348 361> 330 59<39 117 39 117 193 355> 644 68<193 348 193 193>
VStem: 117 76<68 330 68 330 68 330 389 644> 535 76<306.5 405.5>
LayerCount: 2
Fore
SplineSet
611 356 m 0
 611 247 609 142 548 75 c 0
 500 23 441 0 361 0 c 2
 117 0 l 1
 117 330 l 1
 39 330 l 1
 39 389 l 1
 117 389 l 1
 117 712 l 1
 361 712 l 2
 441 712 500 689 548 637 c 0
 611 569 611 465 611 356 c 0
535 356 m 0
 535 455 534 543 488 592 c 0
 452 632 402 644 348 644 c 2
 193 644 l 1
 193 389 l 1
 355 389 l 1
 355 330 l 1
 193 330 l 1
 193 68 l 1
 348 68 l 2
 402 68 452 80 488 120 c 0
 534 169 535 257 535 356 c 0
EndSplineSet
Validated: 1
Position2: "'cpsp' Capital Spacing in Latin lookup 3 subtable" dx=5 dy=0 dh=10 dv=0
Position2: "'cpsp' Capital Spacing in Cyrillic lookup 2 subtable" dx=5 dy=0 dh=10 dv=0
Position2: "'cpsp' Capital Spacing in Greek lookup 1 subtable" dx=5 dy=0 dh=10 dv=0
Position2: "'cpsp' Capital Spacing lookup 0 subtable" dx=5 dy=0 dh=10 dv=0
EndChar

StartChar: dcroat
Encoding: 273 273 211
Width: 673
Flags: HMW
HStem: 0 68<193 348 348 361> 330 59<39 117 39 117 193 355> 644 68<193 348 193 193>
VStem: 117 76<68 330 68 330 68 330 389 644> 535 76<306.5 405.5>
LayerCount: 2
Fore
SplineSet
117 68 m 1
 348 68 l 2
 402 68 452 80 488 120 c 0
 534 169 535 257 535 356 c 0
 535 455 534 543 488 592 c 0
 452 632 402 644 348 644 c 2
 117 644 l 1
 117 712 l 1
 361 712 l 2
 441 712 500 689 548 637 c 0
 611 569 611 465 611 356 c 0
 611 247 611 143 548 75 c 0
 500 23 441 0 361 0 c 2
 117 0 l 1
 117 68 l 1
39 330 m 1
 39 389 l 1
 355 389 l 1
 355 330 l 1
 39 330 l 1
EndSplineSet
Validated: 1
EndChar

StartChar: Emacron
Encoding: 274 274 212
Width: 600
Flags: MW
HStem: 0 68<179 545 179 545> 325 68<179 491 179 491> 644 68<179 545 179 179>
VStem: 103 76<68 325 393 644>
LayerCount: 2
Fore
SplineSet
545 0 m 1
 103 0 l 1
 103 712 l 1
 545 712 l 1
 545 644 l 1
 179 644 l 1
 179 393 l 1
 491 393 l 1
 491 325 l 1
 179 325 l 1
 179 68 l 1
 545 68 l 1
 545 0 l 1
161 798 m 1xf0
 161 855 l 1
 462 855 l 1
 462 798 l 1
 161 798 l 1xf0
EndSplineSet
Validated: 1
Position2: "'cpsp' Capital Spacing in Latin lookup 3 subtable" dx=5 dy=0 dh=10 dv=0
Position2: "'cpsp' Capital Spacing in Cyrillic lookup 2 subtable" dx=5 dy=0 dh=10 dv=0
Position2: "'cpsp' Capital Spacing in Greek lookup 1 subtable" dx=5 dy=0 dh=10 dv=0
Position2: "'cpsp' Capital Spacing lookup 0 subtable" dx=5 dy=0 dh=10 dv=0
EndChar

StartChar: emacron
Encoding: 275 275 213
Width: 600
Flags: HMW
HStem: 0 68<179 545 179 545> 325 68<179 491 179 491> 644 68<179 545 179 179>
VStem: 103 76<68 325 393 644>
LayerCount: 2
Fore
SplineSet
103 712 m 5
 545 712 l 5
 545 644 l 5
 103 644 l 5
 103 712 l 5
103 393 m 5
 491 393 l 5
 491 325 l 5
 103 325 l 5
 103 393 l 5
103 68 m 5
 545 68 l 5
 545 0 l 5
 103 0 l 5
 103 68 l 5
161 798 m 1xf0
 161 855 l 1
 462 855 l 1
 462 798 l 1
 161 798 l 1xf0
EndSplineSet
Validated: 1
EndChar

StartChar: Ebreve
Encoding: 276 276 214
Width: 600
Flags: MW
HStem: 0 68<179 545 179 545> 325 68<179 491 179 491> 644 68<179 545 179 179>
VStem: 103 76<68 325 393 644>
LayerCount: 2
Fore
SplineSet
545 0 m 1
 103 0 l 1
 103 712 l 1
 545 712 l 1
 545 644 l 1
 179 644 l 1
 179 393 l 1
 491 393 l 1
 491 325 l 1
 179 325 l 1
 179 68 l 1
 545 68 l 1
 545 0 l 1
478 933 m 1xf0
 470 842 415 794 313 794 c 0
 211 794 156 842 148 933 c 1
 204 933 l 1
 211 880 252 850 313 850 c 0
 374 850 415 880 422 933 c 1
 478 933 l 1xf0
EndSplineSet
Validated: 1
Position2: "'cpsp' Capital Spacing in Latin lookup 3 subtable" dx=5 dy=0 dh=10 dv=0
Position2: "'cpsp' Capital Spacing in Cyrillic lookup 2 subtable" dx=5 dy=0 dh=10 dv=0
Position2: "'cpsp' Capital Spacing in Greek lookup 1 subtable" dx=5 dy=0 dh=10 dv=0
Position2: "'cpsp' Capital Spacing lookup 0 subtable" dx=5 dy=0 dh=10 dv=0
EndChar

StartChar: ebreve
Encoding: 277 277 215
Width: 600
Flags: HMW
HStem: 0 68<179 545 179 545> 325 68<179 491 179 491> 644 68<179 545 179 179>
VStem: 103 76<68 325 393 644>
LayerCount: 2
Fore
SplineSet
103 712 m 5
 545 712 l 5
 545 644 l 5
 103 644 l 5
 103 712 l 5
103 393 m 5
 491 393 l 5
 491 325 l 5
 103 325 l 5
 103 393 l 5
103 68 m 5
 545 68 l 5
 545 0 l 5
 103 0 l 5
 103 68 l 5
478 933 m 1xf0
 470 842 415 794 313 794 c 0
 211 794 156 842 148 933 c 1
 204 933 l 1
 211 880 252 850 313 850 c 0
 374 850 415 880 422 933 c 1
 478 933 l 1xf0
EndSplineSet
Validated: 1
EndChar

StartChar: Edotaccent
Encoding: 278 278 216
Width: 600
Flags: MW
HStem: 0 68<179 545 179 545> 325 68<179 491 179 491> 644 68<179 545 179 179>
VStem: 103 76<68 325 393 644>
LayerCount: 2
Fore
SplineSet
545 0 m 1
 103 0 l 1
 103 712 l 1
 545 712 l 1
 545 644 l 1
 179 644 l 1
 179 393 l 1
 491 393 l 1
 491 325 l 1
 179 325 l 1
 179 68 l 1
 545 68 l 1
 545 0 l 1
274 797 m 1xf0
 274 873 l 1
 349 873 l 1
 349 797 l 1
 274 797 l 1xf0
EndSplineSet
Validated: 1
Substitution2: "'ss01' Style Set 1 in Latin lookup 80 subtable" Edotaccent.ss01
Substitution2: "'ss01' Style Set 1 in Cyrillic lookup 79 subtable" Edotaccent.ss01
Substitution2: "'ss01' Style Set 1 in Greek lookup 78 subtable" Edotaccent.ss01
Substitution2: "'ss01' Style Set 1 lookup 77 subtable" Edotaccent.ss01
Substitution2: "'salt' Stylistic Alternatives in Latin lookup 76 subtable" Edotaccent.ss01
Substitution2: "'salt' Stylistic Alternatives in Cyrillic lookup 75 subtable" Edotaccent.ss01
Substitution2: "'salt' Stylistic Alternatives in Greek lookup 74 subtable" Edotaccent.ss01
Substitution2: "'salt' Stylistic Alternatives lookup 73 subtable" Edotaccent.ss01
Substitution2: "'aalt' Access All Alternates lookup 0 subtable" Edotaccent.ss01
Position2: "'cpsp' Capital Spacing in Latin lookup 3 subtable" dx=5 dy=0 dh=10 dv=0
Position2: "'cpsp' Capital Spacing in Cyrillic lookup 2 subtable" dx=5 dy=0 dh=10 dv=0
Position2: "'cpsp' Capital Spacing in Greek lookup 1 subtable" dx=5 dy=0 dh=10 dv=0
Position2: "'cpsp' Capital Spacing lookup 0 subtable" dx=5 dy=0 dh=10 dv=0
EndChar

StartChar: edotaccent
Encoding: 279 279 217
Width: 600
Flags: HMW
HStem: 0 68<179 545 179 545> 325 68<179 491 179 491> 644 68<179 545 179 179>
VStem: 103 76<68 325 393 644>
LayerCount: 2
Fore
SplineSet
103 712 m 5
 545 712 l 5
 545 644 l 5
 103 644 l 5
 103 712 l 5
103 393 m 5
 491 393 l 5
 491 325 l 5
 103 325 l 5
 103 393 l 5
103 68 m 5
 545 68 l 5
 545 0 l 5
 103 0 l 5
 103 68 l 5
274 797 m 1xf0
 274 873 l 1
 349 873 l 1
 349 797 l 1
 274 797 l 1xf0
EndSplineSet
Validated: 1
Substitution2: "'ss01' Style Set 1 in Latin lookup 80 subtable" edotaccent.ss01
Substitution2: "'ss01' Style Set 1 in Cyrillic lookup 79 subtable" edotaccent.ss01
Substitution2: "'ss01' Style Set 1 in Greek lookup 78 subtable" edotaccent.ss01
Substitution2: "'ss01' Style Set 1 lookup 77 subtable" edotaccent.ss01
Substitution2: "'salt' Stylistic Alternatives in Latin lookup 76 subtable" edotaccent.ss01
Substitution2: "'salt' Stylistic Alternatives in Cyrillic lookup 75 subtable" edotaccent.ss01
Substitution2: "'salt' Stylistic Alternatives in Greek lookup 74 subtable" edotaccent.ss01
Substitution2: "'salt' Stylistic Alternatives lookup 73 subtable" edotaccent.ss01
Substitution2: "'aalt' Access All Alternates lookup 0 subtable" edotaccent.ss01
EndChar

StartChar: Eogonek
Encoding: 280 280 218
Width: 600
Flags: MW
HStem: 0 68<179 545 179 545> 325 68<179 491 179 491> 644 68<179 545 179 179>
VStem: 103 76<68 325 393 644>
LayerCount: 2
Fore
SplineSet
545 0 m 1
 103 0 l 1
 103 712 l 1
 545 712 l 1
 545 644 l 1
 179 644 l 1
 179 393 l 1
 491 393 l 1
 491 325 l 1
 179 325 l 1
 179 68 l 1
 545 68 l 1
 545 0 l 1
545 -67 m 1xf0
 486 -216 l 1
 407 -216 l 1
 478 -67 l 1
 545 -67 l 1xf0
EndSplineSet
Validated: 1
Substitution2: "'ss01' Style Set 1 in Latin lookup 80 subtable" Eogonek.ss01
Substitution2: "'ss01' Style Set 1 in Cyrillic lookup 79 subtable" Eogonek.ss01
Substitution2: "'ss01' Style Set 1 in Greek lookup 78 subtable" Eogonek.ss01
Substitution2: "'ss01' Style Set 1 lookup 77 subtable" Eogonek.ss01
Substitution2: "'salt' Stylistic Alternatives in Latin lookup 76 subtable" Eogonek.ss01
Substitution2: "'salt' Stylistic Alternatives in Cyrillic lookup 75 subtable" Eogonek.ss01
Substitution2: "'salt' Stylistic Alternatives in Greek lookup 74 subtable" Eogonek.ss01
Substitution2: "'salt' Stylistic Alternatives lookup 73 subtable" Eogonek.ss01
Substitution2: "'aalt' Access All Alternates lookup 0 subtable" Eogonek.ss01
Position2: "'cpsp' Capital Spacing in Latin lookup 3 subtable" dx=5 dy=0 dh=10 dv=0
Position2: "'cpsp' Capital Spacing in Cyrillic lookup 2 subtable" dx=5 dy=0 dh=10 dv=0
Position2: "'cpsp' Capital Spacing in Greek lookup 1 subtable" dx=5 dy=0 dh=10 dv=0
Position2: "'cpsp' Capital Spacing lookup 0 subtable" dx=5 dy=0 dh=10 dv=0
EndChar

StartChar: eogonek
Encoding: 281 281 219
Width: 600
Flags: HMW
HStem: 0 68<179 545 179 545> 325 68<179 491 179 491> 644 68<179 545 179 179>
VStem: 103 76<68 325 393 644>
LayerCount: 2
Fore
SplineSet
103 712 m 5
 545 712 l 5
 545 644 l 5
 103 644 l 5
 103 712 l 5
103 393 m 5
 491 393 l 5
 491 325 l 5
 103 325 l 5
 103 393 l 5
103 68 m 5
 545 68 l 5
 545 0 l 5
 103 0 l 5
 103 68 l 5
545 -67 m 1xf0
 486 -216 l 1
 407 -216 l 1
 478 -67 l 1
 545 -67 l 1xf0
EndSplineSet
Validated: 1
Substitution2: "'ss01' Style Set 1 in Latin lookup 80 subtable" eogonek.ss01
Substitution2: "'ss01' Style Set 1 in Cyrillic lookup 79 subtable" eogonek.ss01
Substitution2: "'ss01' Style Set 1 in Greek lookup 78 subtable" eogonek.ss01
Substitution2: "'ss01' Style Set 1 lookup 77 subtable" eogonek.ss01
Substitution2: "'salt' Stylistic Alternatives in Latin lookup 76 subtable" eogonek.ss01
Substitution2: "'salt' Stylistic Alternatives in Cyrillic lookup 75 subtable" eogonek.ss01
Substitution2: "'salt' Stylistic Alternatives in Greek lookup 74 subtable" eogonek.ss01
Substitution2: "'salt' Stylistic Alternatives lookup 73 subtable" eogonek.ss01
Substitution2: "'aalt' Access All Alternates lookup 0 subtable" eogonek.ss01
EndChar

StartChar: Ecaron
Encoding: 282 282 220
Width: 600
Flags: MW
HStem: 0 68<179 545 179 545> 325 68<179 491 179 491> 644 68<179 545 179 179>
VStem: 103 76<68 325 393 644>
LayerCount: 2
Fore
SplineSet
545 0 m 1
 103 0 l 1
 103 712 l 1
 545 712 l 1
 545 644 l 1
 179 644 l 1
 179 393 l 1
 491 393 l 1
 491 325 l 1
 179 325 l 1
 179 68 l 1
 545 68 l 1
 545 0 l 1
471 933 m 1xf0
 345 780 l 1
 277 780 l 1
 152 933 l 1
 221 933 l 1
 311 829 l 1
 402 933 l 1
 471 933 l 1xf0
EndSplineSet
Validated: 1
Position2: "'cpsp' Capital Spacing in Latin lookup 3 subtable" dx=5 dy=0 dh=10 dv=0
Position2: "'cpsp' Capital Spacing in Cyrillic lookup 2 subtable" dx=5 dy=0 dh=10 dv=0
Position2: "'cpsp' Capital Spacing in Greek lookup 1 subtable" dx=5 dy=0 dh=10 dv=0
Position2: "'cpsp' Capital Spacing lookup 0 subtable" dx=5 dy=0 dh=10 dv=0
EndChar

StartChar: ecaron
Encoding: 283 283 221
Width: 600
Flags: HMW
HStem: 0 68<179 545 179 545> 325 68<179 491 179 491> 644 68<179 545 179 179>
VStem: 103 76<68 325 393 644>
LayerCount: 2
Fore
SplineSet
103 712 m 5
 545 712 l 5
 545 644 l 5
 103 644 l 5
 103 712 l 5
103 393 m 5
 491 393 l 5
 491 325 l 5
 103 325 l 5
 103 393 l 5
103 68 m 5
 545 68 l 5
 545 0 l 5
 103 0 l 5
 103 68 l 5
471 933 m 1xf0
 345 780 l 1
 277 780 l 1
 152 933 l 1
 221 933 l 1
 311 829 l 1
 402 933 l 1
 471 933 l 1xf0
EndSplineSet
Validated: 1
EndChar

StartChar: Gcircumflex
Encoding: 284 284 222
Width: 650
Flags: MW
HStem: -6 68<300.5 351 300.5 361.5> 307 65<325 500 325 576> 650 68<300.5 369.5>
VStem: 76 76<283 429 283 437.5> 500 76<252 259 259 307 307 307>
LayerCount: 2
Fore
SplineSet
576 259 m 2
 576 177 561 127 515 76 c 0
 465 21 398 -6 325 -6 c 0
 251 -6 191 20 147 64 c 0
 80 131 76 193 76 356 c 0
 76 519 80 581 147 648 c 0
 191 692 251 718 325 718 c 0
 459 718 554 628 574 505 c 1
 498 505 l 1
 478 596 414 650 325 650 c 0
 276 650 234 633 202 600 c 0
 157 554 152 502 152 356 c 0
 152 210 157 158 202 112 c 0
 234 79 276 62 325 62 c 0
 377 62 427 83 460 123 c 0
 489 159 500 198 500 252 c 2
 500 307 l 1
 325 307 l 1
 325 372 l 1
 576 372 l 1
 576 259 l 2
484 780 m 1xf8
 415 780 l 1
 325 885 l 1
 234 780 l 1
 165 780 l 1
 291 933 l 1
 359 933 l 1
 484 780 l 1xf8
EndSplineSet
Validated: 1
Substitution2: "'ss01' Style Set 1 in Latin lookup 80 subtable" Gcircumflex.ss01
Substitution2: "'ss01' Style Set 1 in Cyrillic lookup 79 subtable" Gcircumflex.ss01
Substitution2: "'ss01' Style Set 1 in Greek lookup 78 subtable" Gcircumflex.ss01
Substitution2: "'ss01' Style Set 1 lookup 77 subtable" Gcircumflex.ss01
Substitution2: "'salt' Stylistic Alternatives in Latin lookup 76 subtable" Gcircumflex.ss01
Substitution2: "'salt' Stylistic Alternatives in Cyrillic lookup 75 subtable" Gcircumflex.ss01
Substitution2: "'salt' Stylistic Alternatives in Greek lookup 74 subtable" Gcircumflex.ss01
Substitution2: "'salt' Stylistic Alternatives lookup 73 subtable" Gcircumflex.ss01
Substitution2: "'aalt' Access All Alternates lookup 0 subtable" Gcircumflex.ss01
Position2: "'cpsp' Capital Spacing in Latin lookup 3 subtable" dx=5 dy=0 dh=10 dv=0
Position2: "'cpsp' Capital Spacing in Cyrillic lookup 2 subtable" dx=5 dy=0 dh=10 dv=0
Position2: "'cpsp' Capital Spacing in Greek lookup 1 subtable" dx=5 dy=0 dh=10 dv=0
Position2: "'cpsp' Capital Spacing lookup 0 subtable" dx=5 dy=0 dh=10 dv=0
EndChar

StartChar: gcircumflex
Encoding: 285 285 223
Width: 650
Flags: MW
HStem: -6 68<300.5 351 300.5 361.5> 307 65<325 500 325 576> 650 68<300.5 369.5>
VStem: 76 76<283 429 283 437.5> 500 76<252 259 259 307 307 307>
LayerCount: 2
Fore
SplineSet
576 259 m 2
 576 177 561 127 515 76 c 0
 465 21 398 -6 325 -6 c 0
 251 -6 191 20 147 64 c 0
 80 131 76 193 76 356 c 0
 76 519 80 581 147 648 c 0
 191 692 251 718 325 718 c 0
 459 718 554 628 574 505 c 1
 498 505 l 1
 478 596 414 650 325 650 c 0
 276 650 234 633 202 600 c 0
 157 554 152 502 152 356 c 0
 152 210 157 158 202 112 c 0
 234 79 276 62 325 62 c 0
 377 62 427 83 460 123 c 0
 489 159 500 198 500 252 c 2
 500 307 l 1
 325 307 l 1
 325 372 l 1
 576 372 l 1
 576 259 l 2
484 780 m 1xf8
 415 780 l 1
 325 885 l 1
 234 780 l 1
 165 780 l 1
 291 933 l 1
 359 933 l 1
 484 780 l 1xf8
EndSplineSet
Validated: 1
EndChar

StartChar: Gbreve
Encoding: 286 286 224
Width: 650
Flags: MW
HStem: -6 68<300.5 351 300.5 361.5> 307 65<325 500 325 576> 650 68<300.5 369.5>
VStem: 76 76<283 429 283 437.5> 500 76<252 259 259 307 307 307>
LayerCount: 2
Fore
SplineSet
576 259 m 2
 576 177 561 127 515 76 c 0
 465 21 398 -6 325 -6 c 0
 251 -6 191 20 147 64 c 0
 80 131 76 193 76 356 c 0
 76 519 80 581 147 648 c 0
 191 692 251 718 325 718 c 0
 459 718 554 628 574 505 c 1
 498 505 l 1
 478 596 414 650 325 650 c 0
 276 650 234 633 202 600 c 0
 157 554 152 502 152 356 c 0
 152 210 157 158 202 112 c 0
 234 79 276 62 325 62 c 0
 377 62 427 83 460 123 c 0
 489 159 500 198 500 252 c 2
 500 307 l 1
 325 307 l 1
 325 372 l 1
 576 372 l 1
 576 259 l 2
490 933 m 1xf8
 482 842 427 794 325 794 c 0
 223 794 168 842 160 933 c 1
 216 933 l 1
 223 880 264 850 325 850 c 0
 386 850 427 880 434 933 c 1
 490 933 l 1xf8
EndSplineSet
Validated: 1
Substitution2: "'ss01' Style Set 1 in Latin lookup 80 subtable" Gbreve.ss01
Substitution2: "'ss01' Style Set 1 in Cyrillic lookup 79 subtable" Gbreve.ss01
Substitution2: "'ss01' Style Set 1 in Greek lookup 78 subtable" Gbreve.ss01
Substitution2: "'ss01' Style Set 1 lookup 77 subtable" Gbreve.ss01
Substitution2: "'salt' Stylistic Alternatives in Latin lookup 76 subtable" Gbreve.ss01
Substitution2: "'salt' Stylistic Alternatives in Cyrillic lookup 75 subtable" Gbreve.ss01
Substitution2: "'salt' Stylistic Alternatives in Greek lookup 74 subtable" Gbreve.ss01
Substitution2: "'salt' Stylistic Alternatives lookup 73 subtable" Gbreve.ss01
Substitution2: "'aalt' Access All Alternates lookup 0 subtable" Gbreve.ss01
Position2: "'cpsp' Capital Spacing in Latin lookup 3 subtable" dx=5 dy=0 dh=10 dv=0
Position2: "'cpsp' Capital Spacing in Cyrillic lookup 2 subtable" dx=5 dy=0 dh=10 dv=0
Position2: "'cpsp' Capital Spacing in Greek lookup 1 subtable" dx=5 dy=0 dh=10 dv=0
Position2: "'cpsp' Capital Spacing lookup 0 subtable" dx=5 dy=0 dh=10 dv=0
EndChar

